<svg width="557" height="67" viewBox="0 0 557 67" fill="none" xmlns="http://www.w3.org/2000/svg">
<path d="M50.3076 51.168C50.3076 56.7493 50.5199 61.36 50.9446 65C46.8192 64.818 39.8729 64.727 30.1056 64.727C16.8802 64.727 6.99155 64.818 0.439551 65V63.18C2.44155 63.0587 3.89755 62.816 4.80755 62.452C5.77822 62.088 6.41522 61.3903 6.71855 60.359C7.08255 59.3277 7.26455 57.6593 7.26455 55.354V10.218C7.26455 7.91266 7.08255 6.24433 6.71855 5.213C6.41522 4.18167 5.77822 3.484 4.80755 3.12C3.89755 2.756 2.44155 2.51333 0.439551 2.392V0.572C6.99155 0.753997 16.8802 0.844996 30.1056 0.844996C39.0236 0.844996 45.3632 0.753997 49.1246 0.572C48.6999 5.60733 48.4876 10.0967 48.4876 14.04C48.4876 16.7093 48.5786 18.772 48.7606 20.228H46.6676C45.7576 13.7367 44.1196 9.18666 41.7536 6.578C39.3876 3.96933 36.0509 2.66499 31.7436 2.66499H28.0126C26.1319 2.66499 24.7669 2.81666 23.9176 3.12C23.0682 3.42333 22.4919 4.03 22.1886 4.94C21.8852 5.78933 21.7336 7.18466 21.7336 9.126V31.694H24.6456C27.8609 31.694 30.2876 30.511 31.9256 28.145C33.6242 25.779 34.8072 22.958 35.4746 19.682H37.5676C37.3856 22.23 37.2946 25.0813 37.2946 28.236V32.604C37.2946 35.698 37.4766 40.0053 37.8406 45.526H35.7476C34.4736 37.518 30.7729 33.514 24.6456 33.514H21.7336V56.446C21.7336 58.3873 21.8852 59.813 22.1886 60.723C22.4919 61.5723 23.0682 62.1487 23.9176 62.452C24.7669 62.7553 26.1319 62.907 28.0126 62.907H32.4716C36.7789 62.907 40.2369 61.451 42.8456 58.539C45.5149 55.5663 47.3956 50.5613 48.4876 43.524H50.5806C50.3986 45.526 50.3076 48.074 50.3076 51.168ZM91.1474 9.672C101.764 9.672 109.711 11.9773 114.989 16.588C120.267 21.138 122.906 27.8113 122.906 36.608C122.906 42.3107 121.632 47.3157 119.084 51.623C116.536 55.8697 112.805 59.176 107.891 61.542C102.977 63.8473 97.123 65 90.3284 65L84.5044 64.909C80.6217 64.7877 77.7704 64.727 75.9504 64.727C70.551 64.727 66.4257 64.818 63.5744 65V63.18C65.637 63.0587 67.1234 62.816 68.0334 62.452C68.9434 62.088 69.55 61.3903 69.8534 60.359C70.2174 59.3277 70.3994 57.6593 70.3994 55.354V19.318C70.3994 17.0127 70.2174 15.3443 69.8534 14.313C69.55 13.2817 68.9434 12.584 68.0334 12.22C67.1234 11.856 65.637 11.6133 63.5744 11.492V9.672C65.8797 9.854 69.1254 9.945 73.3114 9.945L82.0474 9.854C86.5367 9.73266 89.57 9.672 91.1474 9.672ZM89.9644 11.31C88.387 11.31 87.204 11.5223 86.4154 11.947C85.6267 12.3717 85.0807 13.13 84.7774 14.222C84.474 15.314 84.3224 16.952 84.3224 19.136V55.536C84.3224 57.72 84.474 59.358 84.7774 60.45C85.0807 61.542 85.6267 62.3003 86.4154 62.725C87.204 63.1497 88.4174 63.362 90.0554 63.362C94.7267 63.362 98.397 62.3913 101.066 60.45C103.736 58.448 105.616 55.536 106.708 51.714C107.8 47.892 108.346 42.978 108.346 36.972C108.346 28.1147 106.951 21.6233 104.16 17.498C101.37 13.3727 96.6377 11.31 89.9644 11.31ZM191.394 11.492C189.27 11.7953 187.693 12.311 186.662 13.039C185.63 13.767 184.933 14.9197 184.569 16.497C184.205 18.0743 184.023 20.41 184.023 23.504V40.339C184.023 44.525 183.719 48.1043 183.113 51.077C182.567 53.989 181.626 56.537 180.292 58.721C178.836 61.0263 176.652 62.8767 173.74 64.272C170.888 65.6067 167.643 66.274 164.003 66.274C157.147 66.274 151.809 64.9393 147.987 62.27C145.863 60.6927 144.256 58.994 143.164 57.174C142.072 55.354 141.283 53.17 140.798 50.622C140.373 48.0133 140.161 44.6767 140.161 40.612V19.318C140.161 17.0127 139.979 15.3443 139.615 14.313C139.311 13.2817 138.674 12.584 137.704 12.22C136.794 11.856 135.338 11.6133 133.336 11.492V9.672C136.369 9.854 140.98 9.945 147.168 9.945C153.052 9.945 157.633 9.854 160.909 9.672V11.492C158.846 11.6133 157.36 11.856 156.45 12.22C155.54 12.584 154.903 13.2817 154.539 14.313C154.235 15.3443 154.084 17.0127 154.084 19.318V42.159C154.084 46.527 154.357 50.1367 154.903 52.988C155.509 55.8393 156.753 58.1447 158.634 59.904C160.514 61.6633 163.305 62.543 167.006 62.543C172.526 62.543 176.379 60.6927 178.563 56.992C180.807 53.2307 181.93 48.0133 181.93 41.34V24.596C181.93 21.0773 181.717 18.4687 181.293 16.77C180.868 15.0713 180.049 13.858 178.836 13.13C177.622 12.3413 175.711 11.7953 173.103 11.492V9.672C175.469 9.854 178.745 9.945 182.931 9.945C186.571 9.945 189.392 9.854 191.394 9.672V11.492ZM230.358 8.398C233.877 8.398 236.728 8.91366 238.912 9.945C241.096 10.9157 243.341 12.3717 245.646 14.313C246.314 14.859 246.89 15.132 247.375 15.132C248.589 15.132 249.377 13.312 249.741 9.672H251.834C251.592 13.312 251.47 19.682 251.47 28.782H249.377C248.771 25.506 248.164 23.14 247.557 21.684C246.951 20.1673 246.041 18.6507 244.827 17.134C243.128 15.132 241.187 13.585 239.003 12.493C236.88 11.3403 234.665 10.764 232.36 10.764C229.023 10.764 226.111 11.856 223.624 14.04C221.137 16.1633 219.195 19.227 217.8 23.231C216.465 27.235 215.798 31.9973 215.798 37.518C215.798 43.0993 216.526 47.892 217.982 51.896C219.499 55.8393 221.561 58.8423 224.17 60.905C226.779 62.907 229.721 63.908 232.997 63.908C235.363 63.908 237.669 63.362 239.913 62.27C242.219 61.1173 244.19 59.54 245.828 57.538C247.042 56.0213 247.921 54.3833 248.467 52.624C249.013 50.8647 249.529 48.3167 250.014 44.98H252.107C252.107 54.5047 252.229 61.178 252.471 65H250.378C250.196 63.1193 249.923 61.7543 249.559 60.905C249.195 59.995 248.71 59.54 248.103 59.54C247.618 59.54 247.011 59.813 246.283 60.359C244.039 62.2397 241.703 63.6957 239.276 64.727C236.85 65.7583 233.938 66.274 230.54 66.274C224.777 66.274 219.681 65.1517 215.252 62.907C210.823 60.6623 207.365 57.4167 204.878 53.17C202.451 48.9233 201.238 43.8273 201.238 37.882C201.238 32.1187 202.512 26.9923 205.06 22.503C207.608 18.0137 211.066 14.5557 215.434 12.129C219.863 9.64166 224.837 8.398 230.358 8.398ZM314.645 57.356C316.404 61.1173 318.315 63.0587 320.378 63.18V65C317.466 64.818 313.492 64.727 308.457 64.727C301.965 64.727 297.173 64.818 294.079 65V63.18C296.081 63.0587 297.567 62.7553 298.538 62.27C299.508 61.724 299.994 60.8443 299.994 59.631C299.994 58.539 299.599 57.174 298.811 55.536L294.261 45.162H275.151L274.059 47.619C272.36 51.623 271.511 54.7473 271.511 56.992C271.511 59.0547 272.178 60.5713 273.513 61.542C274.847 62.5127 276.819 63.0587 279.428 63.18V65C275.97 64.818 272.481 64.727 268.963 64.727C265.687 64.727 263.23 64.818 261.592 65V63.18C263.048 62.8767 264.382 61.9667 265.596 60.45C266.87 58.8727 268.204 56.537 269.6 53.443L288.801 9.49C289.286 9.55066 289.984 9.581 290.894 9.581C291.864 9.581 292.562 9.55066 292.987 9.49L314.645 57.356ZM293.442 43.342L284.706 23.413L275.97 43.342H293.442ZM376.64 9.672C376.215 14.2827 376.003 18.408 376.003 22.048C376.003 25.4453 376.094 28.1147 376.276 30.056H374.183C373.334 25.4453 372.302 21.8357 371.089 19.227C369.936 16.6183 368.42 14.7377 366.539 13.585C364.719 12.3717 362.353 11.765 359.441 11.765H356.62V54.444C356.62 56.992 356.863 58.8423 357.348 59.995C357.833 61.1477 358.683 61.9363 359.896 62.361C361.109 62.7857 363.081 63.0587 365.811 63.18V65C362.535 64.818 357.075 64.727 349.431 64.727C341.726 64.727 336.418 64.818 333.506 65V63.18C336.236 63.0587 338.208 62.7857 339.421 62.361C340.634 61.9363 341.484 61.1477 341.969 59.995C342.454 58.8423 342.697 56.992 342.697 54.444V11.765H339.876C336.964 11.765 334.568 12.3717 332.687 13.585C330.867 14.7377 329.35 16.6183 328.137 19.227C326.984 21.8357 325.983 25.4453 325.134 30.056H323.041C323.223 28.1147 323.314 25.4453 323.314 22.048C323.314 18.408 323.102 14.2827 322.677 9.672C327.955 9.854 336.873 9.945 349.431 9.945C362.232 9.945 371.301 9.854 376.64 9.672ZM415.353 11.492C413.29 11.6133 411.804 11.856 410.894 12.22C409.984 12.584 409.347 13.2817 408.983 14.313C408.679 15.3443 408.528 17.0127 408.528 19.318V55.354C408.528 57.6593 408.679 59.3277 408.983 60.359C409.347 61.3903 409.984 62.088 410.894 62.452C411.804 62.816 413.29 63.0587 415.353 63.18V65C412.259 64.818 407.769 64.727 401.885 64.727C395.515 64.727 390.813 64.818 387.78 65V63.18C389.842 63.0587 391.329 62.816 392.239 62.452C393.149 62.088 393.755 61.3903 394.059 60.359C394.423 59.3277 394.605 57.6593 394.605 55.354V19.318C394.605 17.0127 394.423 15.3443 394.059 14.313C393.755 13.2817 393.118 12.584 392.148 12.22C391.238 11.856 389.782 11.6133 387.78 11.492V9.672C390.752 9.854 395.454 9.945 401.885 9.945C407.769 9.945 412.259 9.854 415.353 9.672V11.492ZM457.695 8.398C463.823 8.398 469.192 9.52033 473.802 11.765C478.413 13.949 481.992 17.1947 484.54 21.502C487.088 25.7487 488.362 30.8447 488.362 36.79C488.362 42.614 487.058 47.7707 484.449 52.26C481.841 56.6887 478.201 60.1467 473.529 62.634C468.858 65.0607 463.55 66.274 457.604 66.274C451.477 66.274 446.108 65.182 441.497 62.998C436.887 60.7533 433.307 57.5077 430.759 53.261C428.211 48.9537 426.937 43.8273 426.937 37.882C426.937 32.058 428.242 26.9317 430.85 22.503C433.459 18.0137 437.099 14.5557 441.77 12.129C446.442 9.64166 451.75 8.398 457.695 8.398ZM457.331 10.036C454.177 10.036 451.386 11.219 448.959 13.585C446.593 15.8903 444.743 19.136 443.408 23.322C442.134 27.4473 441.497 32.1793 441.497 37.518C441.497 42.9173 442.225 47.6797 443.681 51.805C445.137 55.9303 447.109 59.1153 449.596 61.36C452.144 63.544 454.935 64.636 457.968 64.636C461.123 64.636 463.883 63.4833 466.249 61.178C468.676 58.812 470.526 55.5663 471.8 51.441C473.135 47.255 473.802 42.4927 473.802 37.154C473.802 31.7547 473.074 26.9923 471.618 22.867C470.162 18.7417 468.16 15.587 465.612 13.403C463.125 11.1583 460.365 10.036 457.331 10.036ZM556.976 11.492C554.974 11.7953 553.488 12.2503 552.517 12.857C551.607 13.4637 550.97 14.4343 550.606 15.769C550.303 17.1037 550.151 19.136 550.151 21.866V65.182L547.694 65.091L545.328 65.182L508.928 19.955V52.806C508.928 55.4753 509.171 57.5077 509.656 58.903C510.142 60.2377 511.021 61.2083 512.295 61.815C513.569 62.4217 515.571 62.8767 518.301 63.18V65C515.571 64.818 512.113 64.727 507.927 64.727C504.591 64.727 501.952 64.818 500.01 65V63.18C502.012 62.8767 503.468 62.4217 504.378 61.815C505.349 61.2083 505.986 60.2377 506.289 58.903C506.653 57.5683 506.835 55.536 506.835 52.806V19.318C506.835 17.0127 506.653 15.3443 506.289 14.313C505.986 13.2817 505.349 12.584 504.378 12.22C503.468 11.856 502.012 11.6133 500.01 11.492V9.672C501.952 9.854 504.591 9.945 507.927 9.945C512.235 9.945 515.935 9.854 519.029 9.672L548.058 45.708V21.866C548.058 19.1967 547.816 17.1947 547.33 15.86C546.845 14.4647 545.935 13.4637 544.6 12.857C543.326 12.2503 541.355 11.7953 538.685 11.492V9.672C541.355 9.854 544.813 9.945 549.059 9.945C552.457 9.945 555.096 9.854 556.976 9.672V11.492Z" fill="white"/>
<path d="M50.9446 65L50.9005 65.999L52.0739 66.0508L51.9378 64.8841L50.9446 65ZM0.439551 65H-0.560449V66.0282L0.467318 65.9996L0.439551 65ZM0.439551 63.18L0.379056 62.1818L-0.560449 62.2388V63.18H0.439551ZM4.80755 62.452L4.45643 61.5157L4.44625 61.5195L4.43616 61.5235L4.80755 62.452ZM6.71855 60.359L5.77556 60.0262L5.7667 60.0513L5.75919 60.0768L6.71855 60.359ZM6.71855 5.213L5.75919 5.49517L5.7667 5.52071L5.77556 5.54582L6.71855 5.213ZM4.80755 3.12L4.43616 4.04847L4.44625 4.05251L4.45643 4.05633L4.80755 3.12ZM0.439551 2.392H-0.560449V3.33323L0.379056 3.39017L0.439551 2.392ZM0.439551 0.571999L0.467317 -0.427616L-0.560449 -0.456165V0.571999H0.439551ZM49.1245 0.571999L50.121 0.656036L50.217 -0.482029L49.0762 -0.42683L49.1245 0.571999ZM48.7606 20.228V21.228H49.8933L49.7528 20.104L48.7606 20.228ZM46.6676 20.228L45.6772 20.3668L45.798 21.228H46.6676V20.228ZM41.7536 6.578L41.0128 7.24981H41.0128L41.7536 6.578ZM23.9176 3.12L24.2539 4.06174H24.2539L23.9176 3.12ZM22.1886 4.94L23.1303 5.27633L23.1339 5.26632L23.1372 5.25623L22.1886 4.94ZM21.7336 31.694H20.7336V32.694H21.7336V31.694ZM31.9256 28.145L31.1132 27.5618L31.1082 27.5687L31.1034 27.5758L31.9256 28.145ZM35.4746 19.682V18.682H34.6577L34.4947 19.4824L35.4746 19.682ZM37.5676 19.682L38.565 19.7532L38.6415 18.682H37.5676V19.682ZM37.8406 45.526V46.526H38.9087L38.8384 45.4602L37.8406 45.526ZM35.7476 45.526L34.76 45.6831L34.8941 46.526H35.7476V45.526ZM21.7336 33.514V32.514H20.7336V33.514H21.7336ZM22.1886 60.723L21.2399 61.0392L21.2432 61.0493L21.2468 61.0593L22.1886 60.723ZM42.8456 58.539L42.1015 57.8709L42.1007 57.8717L42.8456 58.539ZM48.4876 43.524V42.524H47.6308L47.4994 43.3707L48.4876 43.524ZM50.5806 43.524L51.5764 43.6145L51.6756 42.524H50.5806V43.524ZM49.3076 51.168C49.3076 56.7703 49.5205 61.4231 49.9513 65.1159L51.9378 64.8841C51.5193 61.2969 51.3076 56.7284 51.3076 51.168H49.3076ZM50.9886 64.001C46.8391 63.8179 39.8732 63.727 30.1056 63.727V65.727C39.8725 65.727 46.7993 65.8181 50.9005 65.999L50.9886 64.001ZM30.1056 63.727C16.8783 63.727 6.97823 63.818 0.411784 64.0004L0.467318 65.9996C7.00488 65.818 16.8822 65.727 30.1056 65.727V63.727ZM1.43955 65V63.18H-0.560449V65H1.43955ZM0.500046 64.1782C2.52133 64.0557 4.11221 63.8072 5.17894 63.3805L4.43616 61.5235C3.68289 61.8248 2.36178 62.0617 0.379056 62.1818L0.500046 64.1782ZM5.15867 63.3883C6.43615 62.9093 7.28975 61.9609 7.67792 60.6412L5.75919 60.0768C5.54069 60.8197 5.12028 61.2667 4.45643 61.5157L5.15867 63.3883ZM7.66154 60.6918C8.08583 59.4897 8.26455 57.6756 8.26455 55.354H6.26455C6.26455 57.6431 6.07928 59.1657 5.77556 60.0262L7.66154 60.6918ZM8.26455 55.354V10.218H6.26455V55.354H8.26455ZM8.26455 10.218C8.26455 7.89642 8.08583 6.08232 7.66154 4.88018L5.77556 5.54582C6.07928 6.40634 6.26455 7.92891 6.26455 10.218H8.26455ZM7.67792 4.93083C7.28975 3.61105 6.43615 2.66272 5.15867 2.18367L4.45643 4.05633C5.12028 4.30527 5.54069 4.75228 5.75919 5.49517L7.67792 4.93083ZM5.17894 2.19152C4.11221 1.76483 2.52133 1.51633 0.500045 1.39383L0.379056 3.39017C2.36178 3.51033 3.68289 3.74717 4.43616 4.04847L5.17894 2.19152ZM1.43955 2.392V0.571999H-0.560449V2.392H1.43955ZM0.411784 1.57161C6.97823 1.75401 16.8783 1.845 30.1056 1.845V-0.155003C16.8822 -0.155003 7.00487 -0.246017 0.467317 -0.427616L0.411784 1.57161ZM30.1056 1.845C39.0239 1.845 45.385 1.75411 49.1729 1.57083L49.0762 -0.42683C45.3414 -0.246117 39.0232 -0.155003 30.1056 -0.155003V1.845ZM48.1281 0.487961C47.7017 5.54391 47.4876 10.0621 47.4876 14.04H49.4876C49.4876 10.1312 49.6981 5.67075 50.121 0.656036L48.1281 0.487961ZM47.4876 14.04C47.4876 16.7231 47.5786 18.8344 47.7683 20.352L49.7528 20.104C49.5785 18.7096 49.4876 16.6955 49.4876 14.04H47.4876ZM48.7606 19.228H46.6676V21.228H48.7606V19.228ZM47.6579 20.0892C46.7406 13.5458 45.0686 8.74449 42.4943 5.90619L41.0128 7.24981C43.1706 9.62884 44.7745 13.9275 45.6772 20.3668L47.6579 20.0892ZM42.4943 5.90619C39.8974 3.04295 36.265 1.66499 31.7436 1.66499V3.66499C35.8368 3.66499 38.8777 4.8957 41.0128 7.24981L42.4943 5.90619ZM31.7436 1.66499H28.0126V3.66499H31.7436V1.66499ZM28.0126 1.66499C26.114 1.66499 24.6024 1.81355 23.5812 2.17826L24.2539 4.06174C24.9314 3.81977 26.1497 3.66499 28.0126 3.66499V1.66499ZM23.5812 2.17826C22.4219 2.5923 21.6332 3.44368 21.2399 4.62377L23.1372 5.25623C23.3505 4.61631 23.7146 4.25436 24.2539 4.06174L23.5812 2.17826ZM21.2468 4.60366C20.8814 5.62677 20.7336 7.17118 20.7336 9.126H22.7336C22.7336 7.19815 22.889 5.95189 23.1303 5.27633L21.2468 4.60366ZM20.7336 9.126V31.694H22.7336V9.126H20.7336ZM21.7336 32.694H24.6456V30.694H21.7336V32.694ZM24.6456 32.694C28.1441 32.694 30.8988 31.3849 32.7477 28.7142L31.1034 27.5758C29.6763 29.6371 27.5776 30.694 24.6456 30.694V32.694ZM32.7379 28.7282C34.5301 26.2318 35.7631 23.2755 36.4544 19.8816L34.4947 19.4824C33.8514 22.6405 32.7183 25.3262 31.1132 27.5618L32.7379 28.7282ZM35.4746 20.682H37.5676V18.682H35.4746V20.682ZM36.5701 19.6107C36.3861 22.1872 36.2946 25.0628 36.2946 28.236H38.2946C38.2946 25.0998 38.385 22.2728 38.565 19.7532L36.5701 19.6107ZM36.2946 28.236V32.604H38.2946V28.236H36.2946ZM36.2946 32.604C36.2946 35.7306 36.4782 40.0634 36.8427 45.5918L38.8384 45.4602C38.4749 39.9473 38.2946 35.6654 38.2946 32.604H36.2946ZM37.8406 44.526H35.7476V46.526H37.8406V44.526ZM36.7351 45.3689C36.0813 41.2593 34.7859 38.04 32.7509 35.8383C30.6869 33.605 27.9499 32.514 24.6456 32.514V34.514C27.4685 34.514 29.6456 35.425 31.2822 37.1957C32.9479 38.998 34.1398 41.7847 34.76 45.6831L36.7351 45.3689ZM24.6456 32.514H21.7336V34.514H24.6456V32.514ZM20.7336 33.514V56.446H22.7336V33.514H20.7336ZM20.7336 56.446C20.7336 58.4082 20.8831 59.9688 21.2399 61.0392L23.1372 60.4068C22.8874 59.6572 22.7336 58.3665 22.7336 56.446H20.7336ZM21.2468 61.0593C21.651 62.191 22.4495 62.9896 23.5812 63.3937L24.2539 61.5103C23.6869 61.3078 23.3328 60.9536 23.1303 60.3867L21.2468 61.0593ZM23.5812 63.3937C24.6024 63.7584 26.114 63.907 28.0126 63.907V61.907C26.1497 61.907 24.9314 61.7522 24.2539 61.5103L23.5812 63.3937ZM28.0126 63.907H32.4715V61.907H28.0126V63.907ZM32.4715 63.907C37.0308 63.907 40.7715 62.3529 43.5904 59.2062L42.1007 57.8717C39.7023 60.5491 36.5269 61.907 32.4715 61.907V63.907ZM43.5896 59.2071C46.455 56.0161 48.3742 50.7758 49.4757 43.6773L47.4994 43.3707C46.4169 50.3469 44.5747 55.1166 42.1015 57.8709L43.5896 59.2071ZM48.4876 44.524H50.5806V42.524H48.4876V44.524ZM49.5847 43.4335C49.3989 45.477 49.3076 48.058 49.3076 51.168H51.3076C51.3076 48.09 51.3982 45.575 51.5764 43.6145L49.5847 43.4335ZM114.989 16.588L114.331 17.3411L114.336 17.3454L114.989 16.588ZM119.084 51.623L119.942 52.1375L119.945 52.1321L119.084 51.623ZM107.891 61.542L108.316 62.4474L108.325 62.443L107.891 61.542ZM90.3284 65L90.3127 65.9999L90.3205 66H90.3284V65ZM84.5044 64.909L84.4731 65.9085L84.4809 65.9088L84.4887 65.9089L84.5044 64.909ZM63.5744 65H62.5744V66.0659L63.6381 65.998L63.5744 65ZM63.5744 63.18L63.5156 62.1817L62.5744 62.2371V63.18H63.5744ZM68.0334 62.452L68.4047 63.3805L68.0334 62.452ZM69.8534 60.359L68.9104 60.0262L68.9015 60.0513L68.894 60.0768L69.8534 60.359ZM69.8534 14.313L68.894 14.5952L68.9015 14.6207L68.9104 14.6458L69.8534 14.313ZM68.0334 12.22L68.4047 11.2915L68.0334 12.22ZM63.5744 11.492H62.5744V12.4349L63.5156 12.4903L63.5744 11.492ZM63.5744 9.672L63.6531 8.6751L62.5744 8.58994V9.672H63.5744ZM73.3114 9.945V10.9451L73.3218 10.9449L73.3114 9.945ZM82.0474 9.854L82.0578 10.8539L82.0661 10.8539L82.0744 10.8536L82.0474 9.854ZM86.4154 11.947L86.8895 12.8275V12.8275L86.4154 11.947ZM84.7774 60.45L83.8138 60.7176L84.7774 60.45ZM86.4154 62.725L86.8895 61.8445L86.4154 62.725ZM101.066 60.45L101.655 61.2587L101.66 61.2544L101.666 61.25L101.066 60.45ZM106.708 51.714L105.747 51.4393L106.708 51.714ZM104.16 17.498L103.332 18.0583L104.16 17.498ZM91.1474 10.672C101.642 10.672 109.309 12.9541 114.331 17.3411L115.647 15.8349C110.113 11.0006 101.886 8.672 91.1474 8.672V10.672ZM114.336 17.3454C119.339 21.6576 121.906 28.0199 121.906 36.608H123.906C123.906 27.6027 121.196 20.6184 115.642 15.8306L114.336 17.3454ZM121.906 36.608C121.906 42.157 120.668 46.9812 118.224 51.1139L119.945 52.1321C122.596 47.6501 123.906 42.4643 123.906 36.608H121.906ZM118.227 51.1085C115.789 55.1709 112.214 58.3508 107.458 60.641L108.325 62.443C113.397 60.0012 117.283 56.5684 119.942 52.1375L118.227 51.1085ZM107.467 60.6367C102.715 62.866 97.0122 64 90.3284 64V66C97.2339 66 103.24 64.8287 108.316 62.4473L107.467 60.6367ZM90.344 64.0001L84.52 63.9091L84.4887 65.9089L90.3127 65.9999L90.344 64.0001ZM84.5356 63.9095C80.6514 63.7881 77.7869 63.727 75.9504 63.727V65.727C77.7538 65.727 80.592 65.7872 84.4731 65.9085L84.5356 63.9095ZM75.9504 63.727C70.5449 63.727 66.3942 63.818 63.5107 64.002L63.6381 65.998C66.4571 65.818 70.5572 65.727 75.9504 65.727V63.727ZM64.5744 65V63.18H62.5744V65H64.5744ZM63.6331 64.1783C65.7113 64.056 67.3354 63.8082 68.4047 63.3805L67.662 61.5235C66.9113 61.8238 65.5628 62.0613 63.5156 62.1817L63.6331 64.1783ZM68.4047 63.3805C69.6296 62.8905 70.4325 61.9341 70.8127 60.6412L68.894 60.0768C68.6676 60.8466 68.2571 61.2855 67.662 61.5235L68.4047 63.3805ZM70.7963 60.6918C71.2206 59.4897 71.3994 57.6756 71.3994 55.354H69.3994C69.3994 57.6431 69.2141 59.1657 68.9104 60.0262L70.7963 60.6918ZM71.3994 55.354V19.318H69.3994V55.354H71.3994ZM71.3994 19.318C71.3994 16.9964 71.2206 15.1823 70.7963 13.9802L68.9104 14.6458C69.2141 15.5063 69.3994 17.0289 69.3994 19.318H71.3994ZM70.8127 14.0308C70.4325 12.7379 69.6296 11.7815 68.4047 11.2915L67.662 13.1485C68.2571 13.3865 68.6676 13.8254 68.894 14.5952L70.8127 14.0308ZM68.4047 11.2915C67.3354 10.8638 65.7113 10.616 63.6331 10.4937L63.5156 12.4903C65.5628 12.6107 66.9113 12.8482 67.662 13.1485L68.4047 11.2915ZM64.5744 11.492V9.672H62.5744V11.492H64.5744ZM63.4957 10.6689C65.8401 10.854 69.1164 10.945 73.3114 10.945V8.945C69.1343 8.945 65.9193 8.85401 63.6531 8.6751L63.4957 10.6689ZM73.3218 10.9449L82.0578 10.8539L82.0369 8.85405L73.3009 8.94505L73.3218 10.9449ZM82.0744 10.8536C86.5654 10.7323 89.5856 10.672 91.1474 10.672V8.672C89.5544 8.672 86.5079 8.73307 82.0203 8.85437L82.0744 10.8536ZM89.9644 10.31C88.33 10.31 86.948 10.5244 85.9413 11.0665L86.8895 12.8275C87.46 12.5202 88.4441 12.31 89.9644 12.31V10.31ZM85.9413 11.0665C84.8529 11.6526 84.1696 12.6737 83.8138 13.9544L85.7409 14.4896C85.9918 13.5863 86.4005 13.0908 86.8895 12.8275L85.9413 11.0665ZM83.8138 13.9544C83.4732 15.1806 83.3224 16.9288 83.3224 19.136H85.3224C85.3224 16.9752 85.4748 15.4474 85.7409 14.4896L83.8138 13.9544ZM83.3224 19.136V55.536H85.3224V19.136H83.3224ZM83.3224 55.536C83.3224 57.7432 83.4732 59.4914 83.8138 60.7176L85.7409 60.1824C85.4748 59.2246 85.3224 57.6968 85.3224 55.536H83.3224ZM83.8138 60.7176C84.1696 61.9983 84.8529 63.0194 85.9413 63.6055L86.8895 61.8445C86.4005 61.5812 85.9918 61.0857 85.7409 60.1824L83.8138 60.7176ZM85.9413 63.6055C86.9518 64.1496 88.368 64.362 90.0554 64.362V62.362C88.4667 62.362 87.4563 62.1497 86.8895 61.8445L85.9413 63.6055ZM90.0554 64.362C94.853 64.362 98.7564 63.3665 101.655 61.2587L100.478 59.6413C98.0376 61.4162 94.6003 62.362 90.0554 62.362V64.362ZM101.666 61.25C104.542 59.0934 106.53 55.9791 107.67 51.9887L105.747 51.4393C104.703 55.0929 102.929 57.8026 100.466 59.65L101.666 61.25ZM107.67 51.9887C108.797 48.0443 109.346 43.0287 109.346 36.972H107.346C107.346 42.9273 106.804 47.7397 105.747 51.4393L107.67 51.9887ZM109.346 36.972C109.346 28.0509 107.949 21.3134 104.989 16.9377L103.332 18.0583C105.953 21.9332 107.346 28.1784 107.346 36.972H109.346ZM104.989 16.9377C101.952 12.4482 96.8452 10.31 89.9644 10.31V12.31C96.4302 12.31 100.788 14.2971 103.332 18.0583L104.989 16.9377ZM191.394 11.492L191.535 12.4819L192.394 12.3593V11.492H191.394ZM186.662 13.039L186.085 12.222V12.222L186.662 13.039ZM184.569 16.497L185.543 16.7219L184.569 16.497ZM183.113 51.077L182.133 50.877L182.131 50.8849L182.13 50.8927L183.113 51.077ZM180.292 58.721L181.137 59.255L181.141 59.2487L181.145 59.2424L180.292 58.721ZM173.74 64.272L174.164 65.1777L174.172 65.1738L173.74 64.272ZM147.987 62.27L147.39 63.0727L147.402 63.0815L147.414 63.0898L147.987 62.27ZM143.164 57.174L142.306 57.6885L143.164 57.174ZM140.798 50.622L139.811 50.7827L139.813 50.7959L139.815 50.8091L140.798 50.622ZM139.615 14.313L138.655 14.5952L138.663 14.6207L138.672 14.6458L139.615 14.313ZM137.704 12.22L137.332 13.1485L137.343 13.1525L137.353 13.1563L137.704 12.22ZM133.336 11.492H132.336V12.4332L133.275 12.4902L133.336 11.492ZM133.336 9.672L133.396 8.67379L132.336 8.6102V9.672H133.336ZM160.909 9.672H161.909V8.6149L160.853 8.67353L160.909 9.672ZM160.909 11.492L160.968 12.4903L161.909 12.4349V11.492H160.909ZM156.45 12.22L156.078 11.2915L156.45 12.22ZM154.539 14.313L153.596 13.9802L153.587 14.0053L153.579 14.0308L154.539 14.313ZM154.903 52.988L153.921 53.1761L153.923 53.1861L153.925 53.1961L154.903 52.988ZM158.634 59.904L157.951 60.6343L158.634 59.904ZM178.563 56.992L177.704 56.4795L177.702 56.4837L178.563 56.992ZM181.293 16.77L182.263 16.5275L181.293 16.77ZM178.836 13.13L178.291 13.9684L178.306 13.9782L178.321 13.9875L178.836 13.13ZM173.103 11.492H172.103V12.3825L172.987 12.4853L173.103 11.492ZM173.103 9.672L173.18 8.67494L172.103 8.59212V9.672H173.103ZM191.394 9.672H192.394V8.57696L191.303 8.6761L191.394 9.672ZM191.252 10.5021C189.068 10.8141 187.307 11.3598 186.085 12.222L187.238 13.856C188.08 13.2621 189.473 12.7765 191.535 12.4819L191.252 10.5021ZM186.085 12.222C184.801 13.1282 183.998 14.5249 183.594 16.2721L185.543 16.7219C185.868 15.3144 186.46 14.4058 187.238 13.856L186.085 12.222ZM183.594 16.2721C183.204 17.9625 183.023 20.3896 183.023 23.504H185.023C185.023 20.4304 185.205 18.1861 185.543 16.7219L183.594 16.2721ZM183.023 23.504V40.339H185.023V23.504H183.023ZM183.023 40.339C183.023 44.4812 182.722 47.9896 182.133 50.877L184.093 51.277C184.717 48.219 185.023 44.5688 185.023 40.339H183.023ZM182.13 50.8927C181.603 53.7039 180.701 56.1341 179.439 58.1995L181.145 59.2424C182.552 56.9399 183.531 54.2741 184.096 51.2613L182.13 50.8927ZM179.446 58.187C178.108 60.306 176.082 62.041 173.308 63.3702L174.172 65.1738C177.222 63.7124 179.564 61.7467 181.137 59.255L179.446 58.187ZM173.316 63.3663C170.616 64.6299 167.519 65.274 164.003 65.274V67.274C167.767 67.274 171.161 66.5835 174.164 65.1777L173.316 63.3663ZM164.003 65.274C157.261 65.274 152.151 63.9589 148.559 61.4502L147.414 63.0898C151.466 65.9198 157.034 67.274 164.003 67.274V65.274ZM148.583 61.4673C146.54 59.9494 145.032 58.3433 144.021 56.6595L142.306 57.6885C143.48 59.6447 145.187 61.4359 147.39 63.0727L148.583 61.4673ZM144.021 56.6595C143.002 54.9601 142.248 52.8921 141.78 50.4349L139.815 50.8091C140.318 53.4479 141.142 55.7479 142.306 57.6885L144.021 56.6595ZM141.785 50.4613C141.372 47.926 141.161 44.6482 141.161 40.612H139.161C139.161 44.7051 139.374 48.1007 139.811 50.7827L141.785 50.4613ZM141.161 40.612V19.318H139.161V40.612H141.161ZM141.161 19.318C141.161 16.9964 140.982 15.1823 140.558 13.9802L138.672 14.6458C138.976 15.5063 139.161 17.0289 139.161 19.318H141.161ZM140.574 14.0308C140.186 12.7111 139.332 11.7627 138.055 11.2837L137.353 13.1563C138.017 13.4053 138.437 13.8523 138.655 14.5952L140.574 14.0308ZM138.075 11.2915C137.008 10.8648 135.418 10.6163 133.396 10.4938L133.275 12.4902C135.258 12.6103 136.579 12.8472 137.332 13.1485L138.075 11.2915ZM134.336 11.492V9.672H132.336V11.492H134.336ZM133.276 10.6702C136.34 10.8541 140.976 10.945 147.168 10.945V8.945C140.984 8.945 136.398 8.85392 133.396 8.67379L133.276 10.6702ZM147.168 10.945C153.059 10.945 157.661 10.854 160.964 10.6705L160.853 8.67353C157.605 8.85401 153.046 8.945 147.168 8.945V10.945ZM159.909 9.672V11.492H161.909V9.672H159.909ZM160.85 10.4937C158.772 10.616 157.148 10.8638 156.078 11.2915L156.821 13.1485C157.572 12.8482 158.92 12.6107 160.968 12.4903L160.85 10.4937ZM156.078 11.2915C154.868 11.7756 154.043 12.7124 153.596 13.9802L155.482 14.6458C155.762 13.8509 156.211 13.3924 156.821 13.1485L156.078 11.2915ZM153.579 14.0308C153.233 15.2091 153.084 17.0005 153.084 19.318H155.084C155.084 17.0248 155.238 15.4795 155.498 14.5952L153.579 14.0308ZM153.084 19.318V42.159H155.084V19.318H153.084ZM153.084 42.159C153.084 46.5619 153.358 50.2401 153.921 53.1761L155.885 52.7999C155.355 50.0332 155.084 46.4921 155.084 42.159H153.084ZM153.925 53.1961C154.568 56.2202 155.901 58.7172 157.951 60.6343L159.317 59.1737C157.605 57.5722 156.451 55.4585 155.881 52.7799L153.925 53.1961ZM157.951 60.6343C160.084 62.6299 163.162 63.543 167.006 63.543V61.543C163.449 61.543 160.945 60.6968 159.317 59.1737L157.951 60.6343ZM167.006 63.543C172.765 63.543 177.008 61.5937 179.424 57.5003L177.702 56.4837C175.749 59.7916 172.288 61.543 167.006 61.543V63.543ZM179.422 57.5045C181.795 53.5274 182.93 48.1066 182.93 41.34H180.93C180.93 47.9201 179.82 52.9339 177.704 56.4795L179.422 57.5045ZM182.93 41.34V24.596H180.93V41.34H182.93ZM182.93 24.596C182.93 21.0603 182.719 18.3502 182.263 16.5275L180.323 17.0125C180.716 18.5871 180.93 21.0944 180.93 24.596H182.93ZM182.263 16.5275C181.79 14.6362 180.843 13.1678 179.35 12.2725L178.321 13.9875C179.256 14.5482 179.946 15.5064 180.323 17.0125L182.263 16.5275ZM179.381 12.2915C177.972 11.3756 175.875 10.8076 173.218 10.4987L172.987 12.4853C175.548 12.7831 177.273 13.3071 178.291 13.9684L179.381 12.2915ZM174.103 11.492V9.672H172.103V11.492H174.103ZM173.026 10.6691C175.43 10.854 178.735 10.945 182.931 10.945V8.945C178.754 8.945 175.508 8.85405 173.18 8.67494L173.026 10.6691ZM182.931 10.945C186.581 10.945 189.437 10.854 191.484 10.6679L191.303 8.6761C189.346 8.85402 186.561 8.945 182.931 8.945V10.945ZM190.394 9.672V11.492H192.394V9.672H190.394ZM238.912 9.945L238.485 10.8492L238.496 10.8541L238.506 10.8588L238.912 9.945ZM245.646 14.313L245.002 15.0779L245.007 15.0825L245.013 15.087L245.646 14.313ZM249.741 9.672V8.672H248.836L248.746 9.57249L249.741 9.672ZM251.834 9.672L252.832 9.73851L252.903 8.672H251.834V9.672ZM251.47 28.782V29.782H252.47V28.782H251.47ZM249.377 28.782L248.394 28.9641L248.545 29.782H249.377V28.782ZM247.557 21.684L246.629 22.0554L246.631 22.062L246.634 22.0686L247.557 21.684ZM244.827 17.134L245.608 16.5093L245.599 16.498L245.59 16.487L244.827 17.134ZM239.003 12.493L238.526 13.3719L238.541 13.3799L238.556 13.3874L239.003 12.493ZM223.624 14.04L224.273 14.8006L224.284 14.7914L223.624 14.04ZM217.8 23.231L216.856 22.9019L216.851 22.9148L217.8 23.231ZM217.982 51.896L217.042 52.2377L217.046 52.2464L217.049 52.255L217.982 51.896ZM224.17 60.905L223.55 61.6894L223.556 61.6939L223.561 61.6983L224.17 60.905ZM239.913 62.27L240.351 63.1693L240.36 63.1644L239.913 62.27ZM245.828 57.538L246.602 58.1713L246.609 58.1627L245.828 57.538ZM250.014 44.98V43.98H249.149L249.025 44.8361L250.014 44.98ZM252.107 44.98H253.107V43.98H252.107V44.98ZM252.471 65V66H253.537L253.469 64.9366L252.471 65ZM250.378 65L249.383 65.0963L249.47 66H250.378V65ZM249.559 60.905L248.631 61.2764L248.635 61.2877L248.64 61.2989L249.559 60.905ZM246.283 60.359L245.683 59.559L245.662 59.5752L245.641 59.5925L246.283 60.359ZM239.276 64.727L238.885 63.8067L239.276 64.727ZM215.252 62.907L215.704 62.015L215.252 62.907ZM204.878 53.17L204.01 53.6662L204.015 53.6754L204.878 53.17ZM205.06 22.503L204.19 22.0094L205.06 22.503ZM215.434 12.129L215.92 13.0032L215.924 13.0009L215.434 12.129ZM230.358 9.39799C233.791 9.39799 236.481 9.90301 238.485 10.8492L239.339 9.04075C236.975 7.92432 233.962 7.39799 230.358 7.39799V9.39799ZM238.506 10.8588C240.585 11.7828 242.751 13.1821 245.002 15.0779L246.29 13.5481C243.931 11.5612 241.607 10.0485 239.318 9.03119L238.506 10.8588ZM245.013 15.087C245.735 15.6776 246.538 16.132 247.375 16.132V14.132C247.242 14.132 246.892 14.0403 246.279 13.539L245.013 15.087ZM247.375 16.132C248.6 16.132 249.352 15.1843 249.794 14.1646C250.251 13.1111 250.551 11.623 250.736 9.7715L248.746 9.57249C248.567 11.361 248.291 12.6029 247.959 13.3694C247.794 13.7499 247.641 13.9525 247.533 14.0508C247.444 14.1317 247.401 14.132 247.375 14.132V16.132ZM249.741 10.672H251.834V8.672H249.741V10.672ZM250.836 9.60548C250.591 13.2825 250.47 19.6829 250.47 28.782H252.47C252.47 19.6811 252.592 13.3415 252.832 9.73851L250.836 9.60548ZM251.47 27.782H249.377V29.782H251.47V27.782ZM250.36 28.5999C249.752 25.3134 249.13 22.8591 248.48 21.2994L246.634 22.0686C247.198 23.4209 247.789 25.6986 248.394 28.9641L250.36 28.5999ZM248.486 21.3126C247.836 19.6894 246.872 18.0886 245.608 16.5093L244.046 17.7587C245.209 19.2127 246.065 20.6453 246.629 22.0554L248.486 21.3126ZM245.59 16.487C243.81 14.3899 241.764 12.7554 239.45 11.5986L238.556 13.3874C240.61 14.4146 242.447 15.8741 244.065 17.781L245.59 16.487ZM239.48 11.6141C237.218 10.3859 234.84 9.764 232.36 9.764V11.764C234.491 11.764 236.542 12.2947 238.526 13.3719L239.48 11.6141ZM232.36 9.764C228.783 9.764 225.636 10.9429 222.964 13.2886L224.284 14.7914C226.587 12.7691 229.264 11.764 232.36 11.764V9.764ZM222.975 13.2794C220.318 15.5472 218.293 18.779 216.856 22.9019L218.744 23.5601C220.098 19.675 221.955 16.7795 224.273 14.8006L222.975 13.2794ZM216.851 22.9148C215.474 27.0466 214.798 31.9211 214.798 37.518H216.798C216.798 32.0736 217.457 27.4234 218.749 23.5472L216.851 22.9148ZM214.798 37.518C214.798 43.1817 215.536 48.0962 217.042 52.2377L218.922 51.5543C217.516 47.6879 216.798 43.0169 216.798 37.518H214.798ZM217.049 52.255C218.613 56.3211 220.767 59.4893 223.55 61.6894L224.79 60.1206C222.356 58.1954 220.385 55.3576 218.916 51.537L217.049 52.255ZM223.561 61.6983C226.344 63.8338 229.5 64.908 232.997 64.908V62.908C229.942 62.908 227.214 61.9802 224.779 60.1117L223.561 61.6983ZM232.997 64.908C235.523 64.908 237.977 64.3238 240.351 63.1692L239.476 61.3708C237.36 62.4002 235.203 62.908 232.997 62.908V64.908ZM240.36 63.1644C242.792 61.9485 244.875 60.282 246.602 58.1712L245.054 56.9048C243.505 58.798 241.645 60.2862 239.466 61.3756L240.36 63.1644ZM246.609 58.1627C247.896 56.5538 248.837 54.8055 249.422 52.9204L247.512 52.3276C247.005 53.9612 246.187 55.4888 245.047 56.9133L246.609 58.1627ZM249.422 52.9204C249.991 51.0862 250.516 48.4773 251.004 45.1239L249.025 44.8361C248.542 48.156 248.035 50.6432 247.512 52.3276L249.422 52.9204ZM250.014 45.98H252.107V43.98H250.014V45.98ZM251.107 44.98C251.107 54.5039 251.228 61.2061 251.473 65.0634L253.469 64.9366C253.229 61.1499 253.107 54.5054 253.107 44.98H251.107ZM252.471 64H250.378V66H252.471V64ZM251.374 64.9037C251.19 63.0043 250.906 61.5098 250.478 60.5111L248.64 61.2989C248.94 61.9988 249.203 63.2344 249.383 65.0963L251.374 64.9037ZM250.488 60.5336C250.077 59.5067 249.342 58.54 248.103 58.54V60.54C248.127 60.54 248.161 60.5388 248.238 60.6108C248.336 60.7024 248.479 60.8982 248.631 61.2764L250.488 60.5336ZM248.103 58.54C247.281 58.54 246.454 58.9812 245.683 59.559L246.883 61.159C247.569 60.6448 247.955 60.54 248.103 60.54V58.54ZM245.641 59.5925C243.464 61.4167 241.211 62.8179 238.885 63.8067L239.667 65.6473C242.194 64.5734 244.613 63.0626 246.925 61.1255L245.641 59.5925ZM238.885 63.8067C236.612 64.7726 233.84 65.274 230.54 65.274V67.274C234.035 67.274 237.087 66.744 239.667 65.6473L238.885 63.8067ZM230.54 65.274C224.909 65.274 219.972 64.1781 215.704 62.015L214.8 63.799C219.39 66.1253 224.645 67.274 230.54 67.274V65.274ZM215.704 62.015C211.445 59.8563 208.13 56.7441 205.741 52.6646L204.015 53.6754C206.601 58.0892 210.202 61.4684 214.8 63.799L215.704 62.015ZM205.746 52.6739C203.423 48.6077 202.238 43.6907 202.238 37.882H200.238C200.238 43.964 201.48 49.2389 204.01 53.6661L205.746 52.6739ZM202.238 37.882C202.238 32.2711 203.477 27.3185 205.93 22.9966L204.19 22.0094C201.547 26.6662 200.238 31.9662 200.238 37.882H202.238ZM205.93 22.9966C208.39 18.6614 211.718 15.3376 215.92 13.0032L214.949 11.2548C210.415 13.7737 206.826 17.3659 204.19 22.0094L205.93 22.9966ZM215.924 13.0009C220.19 10.6047 224.994 9.39799 230.358 9.39799V7.39799C224.681 7.39799 219.535 8.67858 214.944 11.2571L215.924 13.0009ZM314.645 57.356L313.734 57.7683L313.739 57.7797L314.645 57.356ZM320.378 63.18H321.378V62.2371L320.436 62.1817L320.378 63.18ZM320.378 65L320.315 65.9981L321.378 66.0645V65H320.378ZM294.079 65H293.079V66.0606L294.137 65.9983L294.079 65ZM294.079 63.18L294.018 62.1818L293.079 62.2388V63.18H294.079ZM298.538 62.27L298.985 63.1644L299.007 63.1535L299.028 63.1416L298.538 62.27ZM298.811 55.536L297.895 55.9377L297.902 55.9539L297.91 55.9698L298.811 55.536ZM294.261 45.162L295.177 44.7603L294.914 44.162H294.261V45.162ZM275.151 45.162V44.162H274.501L274.237 44.7559L275.151 45.162ZM274.059 47.619L273.145 47.2129L273.142 47.2206L273.138 47.2284L274.059 47.619ZM273.513 61.542L274.101 60.7333L273.513 61.542ZM279.428 63.18H280.428V62.2254L279.474 62.1811L279.428 63.18ZM279.428 65L279.375 65.9986L280.428 66.054V65H279.428ZM261.592 65H260.592V66.1173L261.702 65.9939L261.592 65ZM261.592 63.18L261.388 62.201L260.592 62.3669V63.18H261.592ZM265.596 60.45L264.818 59.8217L264.815 59.8253L265.596 60.45ZM269.6 53.443L270.511 53.8541L270.516 53.8433L269.6 53.443ZM288.801 9.49L288.925 8.49772L288.183 8.40506L287.884 9.08968L288.801 9.49ZM292.987 9.49L293.898 9.07776L293.588 8.3939L292.845 8.50005L292.987 9.49ZM293.442 43.342V44.342H294.972L294.358 42.9405L293.442 43.342ZM284.706 23.413L285.622 23.0115L284.706 20.9222L283.79 23.0115L284.706 23.413ZM275.97 43.342L275.054 42.9405L274.44 44.342H275.97V43.342ZM313.739 57.7797C314.644 59.7151 315.619 61.2521 316.685 62.3345C317.758 63.4243 318.97 64.0989 320.319 64.1783L320.436 62.1817C319.722 62.1397 318.948 61.7831 318.11 60.9315C317.265 60.0726 316.405 58.7583 315.551 56.9323L313.739 57.7797ZM319.378 63.18V65H321.378V63.18H319.378ZM320.44 64.0019C317.498 63.818 313.5 63.727 308.457 63.727V65.727C313.484 65.727 317.434 65.8179 320.315 65.9981L320.44 64.0019ZM308.457 63.727C301.962 63.727 297.145 63.8179 294.02 64.0017L294.137 65.9983C297.201 65.8181 301.969 65.727 308.457 65.727V63.727ZM295.079 65V63.18H293.079V65H295.079ZM294.139 64.1782C296.181 64.0544 297.831 63.7415 298.985 63.1644L298.091 61.3756C297.303 61.7691 295.98 62.0629 294.018 62.1818L294.139 64.1782ZM299.028 63.1416C300.347 62.3999 300.994 61.1661 300.994 59.631H298.994C298.994 60.5226 298.67 61.0481 298.048 61.3984L299.028 63.1416ZM300.994 59.631C300.994 58.3207 300.528 56.7968 299.712 55.1022L297.91 55.9698C298.671 57.5512 298.994 58.7572 298.994 59.631H300.994ZM299.727 55.1343L295.177 44.7603L293.345 45.5637L297.895 55.9377L299.727 55.1343ZM294.261 44.162H275.151V46.162H294.261V44.162ZM274.237 44.7559L273.145 47.2129L274.973 48.0251L276.065 45.5681L274.237 44.7559ZM273.138 47.2284C271.427 51.2619 270.511 54.5391 270.511 56.992H272.511C272.511 54.9556 273.293 51.9841 274.979 48.0096L273.138 47.2284ZM270.511 56.992C270.511 59.2854 271.267 61.145 272.925 62.3507L274.101 60.7333C273.09 59.9977 272.511 58.8239 272.511 56.992H270.511ZM272.925 62.3507C274.485 63.4854 276.682 64.0534 279.381 64.1789L279.474 62.1811C276.957 62.064 275.21 61.54 274.101 60.7333L272.925 62.3507ZM278.428 63.18V65H280.428V63.18H278.428ZM279.48 64.0014C276.005 63.8184 272.499 63.727 268.963 63.727V65.727C272.464 65.727 275.935 65.8176 279.375 65.9986L279.48 64.0014ZM268.963 63.727C265.678 63.727 263.176 63.8178 261.481 64.0061L261.702 65.9939C263.283 65.8182 265.695 65.727 268.963 65.727V63.727ZM262.592 65V63.18H260.592V65H262.592ZM261.796 64.159C263.541 63.7954 265.063 62.7167 266.377 61.0747L264.815 59.8253C263.702 61.2166 262.554 61.958 261.388 62.201L261.796 64.159ZM266.374 61.0783C267.725 59.405 269.101 56.9812 270.511 53.8541L268.688 53.0319C267.308 56.0928 266.014 58.3403 264.818 59.8217L266.374 61.0783ZM270.516 53.8433L289.717 9.89032L287.884 9.08968L268.683 53.0427L270.516 53.8433ZM288.677 10.4823C289.224 10.5507 289.971 10.581 290.894 10.581V8.581C289.996 8.581 289.348 8.55061 288.925 8.49772L288.677 10.4823ZM290.894 10.581C291.868 10.581 292.627 10.5515 293.128 10.4799L292.845 8.50005C292.497 8.54983 291.861 8.581 290.894 8.581V10.581ZM292.076 9.90224L313.734 57.7682L315.556 56.9438L293.898 9.07776L292.076 9.90224ZM294.358 42.9405L285.622 23.0115L283.79 23.8145L292.526 43.7435L294.358 42.9405ZM283.79 23.0115L275.054 42.9405L276.886 43.7435L285.622 23.8145L283.79 23.0115ZM275.97 44.342H293.442V42.342H275.97V44.342ZM376.64 9.672L377.636 9.76371L377.74 8.63392L376.606 8.67258L376.64 9.672ZM376.276 30.056V31.056H377.374L377.272 29.9627L376.276 30.056ZM374.183 30.056L373.199 30.2372L373.35 31.056H374.183V30.056ZM371.089 19.227L370.174 19.6312L370.178 19.64L370.182 19.6487L371.089 19.227ZM366.539 13.585L365.984 14.417L366 14.4276L366.016 14.4376L366.539 13.585ZM356.62 11.765V10.765H355.62V11.765H356.62ZM357.348 59.995L356.426 60.3831L357.348 59.995ZM359.896 62.361L359.566 63.3049L359.896 62.361ZM365.811 63.18H366.811V62.2235L365.855 62.181L365.811 63.18ZM365.811 65L365.755 65.9985L366.811 66.0571V65H365.811ZM333.506 65H332.506V66.0645L333.568 65.9981L333.506 65ZM333.506 63.18L333.462 62.181L332.506 62.2235V63.18H333.506ZM339.421 62.361L339.751 63.3049L339.421 62.361ZM341.969 59.995L341.047 59.6069L341.969 59.995ZM342.697 11.765H343.697V10.765H342.697V11.765ZM332.687 13.585L333.222 14.4298L333.229 14.4253L332.687 13.585ZM328.137 19.227L327.23 18.8053L327.226 18.814L327.222 18.8228L328.137 19.227ZM325.134 30.056V31.056H325.967L326.117 30.2372L325.134 30.056ZM323.041 30.056L322.045 29.9627L321.943 31.056H323.041V30.056ZM322.677 9.672L322.711 8.67259L321.577 8.63348L321.681 9.76371L322.677 9.672ZM375.644 9.58028C375.217 14.2137 375.003 18.3705 375.003 22.048H377.003C377.003 18.4455 377.213 14.3516 377.636 9.76371L375.644 9.58028ZM375.003 22.048C375.003 25.4573 375.094 28.1624 375.28 30.1493L377.272 29.9627C377.094 28.0669 377.003 25.4334 377.003 22.048H375.003ZM376.276 29.056H374.183V31.056H376.276V29.056ZM375.166 29.8748C374.31 25.2261 373.26 21.5232 371.996 18.8053L370.182 19.6487C371.345 22.1481 372.357 25.6645 373.199 30.2372L375.166 29.8748ZM372.004 18.8228C370.793 16.0825 369.16 14.0185 367.061 12.7324L366.016 14.4376C367.679 15.4569 369.08 17.1542 370.174 19.6312L372.004 18.8228ZM367.094 12.7529C365.063 11.3992 362.486 10.765 359.441 10.765V12.765C362.22 12.765 364.375 13.3441 365.984 14.417L367.094 12.7529ZM359.441 10.765H356.62V12.765H359.441V10.765ZM355.62 11.765V54.444H357.62V11.765H355.62ZM355.62 54.444C355.62 57.0157 355.859 59.036 356.426 60.3831L358.27 59.6069C357.866 58.6487 357.62 56.9683 357.62 54.444H355.62ZM356.426 60.3831C357.025 61.8044 358.094 62.7898 359.566 63.3049L360.226 61.4171C359.271 61.0829 358.642 60.491 358.27 59.6069L356.426 60.3831ZM359.566 63.3049C360.926 63.7811 363.023 64.0571 365.767 64.179L365.855 62.181C363.139 62.0602 361.292 61.7902 360.226 61.4171L359.566 63.3049ZM364.811 63.18V65H366.811V63.18H364.811ZM365.866 64.0015C362.56 63.8179 357.076 63.727 349.431 63.727V65.727C357.074 65.727 362.51 65.8181 365.755 65.9985L365.866 64.0015ZM349.431 63.727C341.728 63.727 336.391 63.8177 333.444 64.0019L333.568 65.9981C336.445 65.8183 341.724 65.727 349.431 65.727V63.727ZM334.506 65V63.18H332.506V65H334.506ZM333.55 64.179C336.294 64.0571 338.391 63.7811 339.751 63.3049L339.091 61.4171C338.025 61.7902 336.178 62.0602 333.462 62.181L333.55 64.179ZM339.751 63.3049C341.223 62.7898 342.292 61.8044 342.891 60.3831L341.047 59.6069C340.675 60.491 340.046 61.0829 339.091 61.4171L339.751 63.3049ZM342.891 60.3831C343.458 59.036 343.697 57.0157 343.697 54.444H341.697C341.697 56.9683 341.451 58.6487 341.047 59.6069L342.891 60.3831ZM343.697 54.444V11.765H341.697V54.444H343.697ZM342.697 10.765H339.876V12.765H342.697V10.765ZM339.876 10.765C336.829 10.765 334.229 11.4 332.145 12.7447L333.229 14.4253C334.906 13.3433 337.099 12.765 339.876 12.765V10.765ZM332.152 12.7402C330.124 14.0244 328.498 16.0798 327.23 18.8053L329.044 19.6487C330.203 17.1569 331.61 15.4509 333.222 14.4298L332.152 12.7402ZM327.222 18.8228C326.024 21.5337 325.006 25.2298 324.15 29.8748L326.117 30.2372C326.96 25.6609 327.944 22.1376 329.052 19.6312L327.222 18.8228ZM325.134 29.056H323.041V31.056H325.134V29.056ZM324.037 30.1493C324.223 28.1624 324.314 25.4573 324.314 22.048H322.314C322.314 25.4334 322.223 28.0669 322.045 29.9627L324.037 30.1493ZM324.314 22.048C324.314 18.3705 324.099 14.2137 323.673 9.58028L321.681 9.76371C322.104 14.3516 322.314 18.4455 322.314 22.048H324.314ZM322.642 10.6714C327.939 10.8541 336.873 10.945 349.431 10.945V8.945C336.873 8.945 327.97 8.85394 322.711 8.67259L322.642 10.6714ZM349.431 10.945C362.232 10.945 371.317 10.8541 376.674 10.6714L376.606 8.67258C371.286 8.85394 362.232 8.945 349.431 8.945V10.945ZM415.353 11.492L415.411 12.4903L416.353 12.4349V11.492H415.353ZM410.894 12.22L410.522 11.2915L410.894 12.22ZM408.983 14.313L408.04 13.9802L408.031 14.0053L408.023 14.0308L408.983 14.313ZM408.983 60.359L408.023 60.6412L408.031 60.6667L408.04 60.6918L408.983 60.359ZM410.894 62.452L411.265 61.5235L410.894 62.452ZM415.353 63.18H416.353V62.2371L415.411 62.1817L415.353 63.18ZM415.353 65L415.294 65.9983L416.353 66.0606V65H415.353ZM387.78 65H386.78V66.0618L387.84 65.9982L387.78 65ZM387.78 63.18L387.721 62.1817L386.78 62.2371V63.18H387.78ZM392.239 62.452L392.61 63.3805L392.239 62.452ZM394.059 60.359L393.116 60.0262L393.107 60.0513L393.099 60.0768L394.059 60.359ZM394.059 14.313L393.099 14.5952L393.107 14.6207L393.116 14.6458L394.059 14.313ZM392.148 12.22L391.776 13.1485L391.786 13.1525L391.797 13.1563L392.148 12.22ZM387.78 11.492H386.78V12.4332L387.719 12.4902L387.78 11.492ZM387.78 9.672L387.841 8.67387L386.78 8.6089V9.672H387.78ZM415.353 9.672H416.353V8.61144L415.294 8.67372L415.353 9.672ZM415.294 10.4937C413.216 10.616 411.592 10.8638 410.522 11.2915L411.265 13.1485C412.016 12.8482 413.364 12.6107 415.411 12.4903L415.294 10.4937ZM410.522 11.2915C409.312 11.7756 408.487 12.7124 408.04 13.9802L409.926 14.6458C410.206 13.8509 410.655 13.3924 411.265 13.1485L410.522 11.2915ZM408.023 14.0308C407.677 15.2091 407.528 17.0005 407.528 19.318H409.528C409.528 17.0248 409.682 15.4795 409.942 14.5952L408.023 14.0308ZM407.528 19.318V55.354H409.528V19.318H407.528ZM407.528 55.354C407.528 57.6715 407.677 59.4629 408.023 60.6412L409.942 60.0768C409.682 59.1925 409.528 57.6471 409.528 55.354H407.528ZM408.04 60.6918C408.487 61.9596 409.312 62.8964 410.522 63.3805L411.265 61.5235C410.655 61.2796 410.206 60.8211 409.926 60.0262L408.04 60.6918ZM410.522 63.3805C411.592 63.8082 413.216 64.056 415.294 64.1783L415.411 62.1817C413.364 62.0613 412.016 61.8238 411.265 61.5235L410.522 63.3805ZM414.353 63.18V65H416.353V63.18H414.353ZM415.411 64.0017C412.288 63.818 407.775 63.727 401.885 63.727V65.727C407.764 65.727 412.23 65.818 415.294 65.9983L415.411 64.0017ZM401.885 63.727C395.511 63.727 390.785 63.8179 387.72 64.0018L387.84 65.9982C390.841 65.8181 395.518 65.727 401.885 65.727V63.727ZM388.78 65V63.18H386.78V65H388.78ZM387.838 64.1783C389.917 64.056 391.541 63.8082 392.61 63.3805L391.867 61.5235C391.117 61.8238 389.768 62.0613 387.721 62.1817L387.838 64.1783ZM392.61 63.3805C393.835 62.8905 394.638 61.9341 395.018 60.6412L393.099 60.0768C392.873 60.8466 392.462 61.2855 391.867 61.5235L392.61 63.3805ZM395.002 60.6918C395.426 59.4897 395.605 57.6756 395.605 55.354H393.605C393.605 57.6431 393.419 59.1657 393.116 60.0262L395.002 60.6918ZM395.605 55.354V19.318H393.605V55.354H395.605ZM395.605 19.318C395.605 16.9964 395.426 15.1823 395.002 13.9802L393.116 14.6458C393.419 15.5063 393.605 17.0289 393.605 19.318H395.605ZM395.018 14.0308C394.63 12.7111 393.776 11.7627 392.499 11.2837L391.797 13.1563C392.46 13.4053 392.881 13.8523 393.099 14.5952L395.018 14.0308ZM392.519 11.2915C391.452 10.8648 389.861 10.6163 387.84 10.4938L387.719 12.4902C389.702 12.6103 391.023 12.8472 391.776 13.1485L392.519 11.2915ZM388.78 11.492V9.672H386.78V11.492H388.78ZM387.719 10.6701C390.724 10.8541 395.451 10.945 401.885 10.945V8.945C395.457 8.945 390.781 8.85387 387.841 8.67387L387.719 10.6701ZM401.885 10.945C407.775 10.945 412.288 10.854 415.411 10.6703L415.294 8.67372C412.23 8.85397 407.764 8.945 401.885 8.945V10.945ZM414.353 9.672V11.492H416.353V9.672H414.353ZM473.802 11.765L473.365 12.6642L473.374 12.6687L473.802 11.765ZM484.54 21.502L483.68 22.0111L483.683 22.0165L484.54 21.502ZM484.449 52.26L485.311 52.7675L485.314 52.7624L484.449 52.26ZM473.529 62.634L473.99 63.5215L473.999 63.5167L473.529 62.634ZM441.497 62.998L441.06 63.8972L441.069 63.9017L441.497 62.998ZM430.759 53.261L429.899 53.7701L429.902 53.7755L430.759 53.261ZM430.85 22.503L431.712 23.0105L431.715 23.0054L430.85 22.503ZM441.77 12.129L442.231 13.0164L442.24 13.0117L441.77 12.129ZM448.959 13.585L449.657 14.3012L449.657 14.301L448.959 13.585ZM443.408 23.322L442.456 23.0182L442.453 23.0269L443.408 23.322ZM443.681 51.805L444.624 51.4722L443.681 51.805ZM449.596 61.36L448.926 62.1024L448.936 62.1109L448.946 62.1193L449.596 61.36ZM466.249 61.178L466.947 61.8942L466.947 61.894L466.249 61.178ZM471.8 51.441L470.848 51.1372L470.845 51.1459L471.8 51.441ZM471.618 22.867L472.561 22.5342L471.618 22.867ZM465.612 13.403L464.942 14.1454L464.952 14.1539L464.962 14.1623L465.612 13.403ZM457.695 9.39799C463.7 9.39799 468.914 10.4975 473.365 12.6641L474.24 10.8659C469.469 8.54312 463.945 7.39799 457.695 7.39799V9.39799ZM473.374 12.6687C477.808 14.7691 481.235 17.8791 483.68 22.0111L485.401 20.9929C482.749 16.5103 479.018 13.1289 474.23 10.8613L473.374 12.6687ZM483.683 22.0165C486.12 26.0792 487.362 30.9894 487.362 36.79H489.362C489.362 30.6999 488.056 25.4182 485.398 20.9875L483.683 22.0165ZM487.362 36.79C487.362 42.4595 486.094 47.4388 483.585 51.7576L485.314 52.7624C488.022 48.1026 489.362 42.7685 489.362 36.79H487.362ZM483.588 51.7525C481.075 56.0175 477.573 59.3479 473.059 61.7513L473.999 63.5167C478.828 60.9454 482.606 57.3598 485.311 52.7675L483.588 51.7525ZM473.068 61.7466C468.557 64.0902 463.41 65.274 457.604 65.274V67.274C463.689 67.274 469.159 66.0312 473.99 63.5214L473.068 61.7466ZM457.604 65.274C451.596 65.274 446.378 64.2034 441.925 62.0943L441.069 63.9017C445.838 66.1606 451.358 67.274 457.604 67.274V65.274ZM441.935 62.0989C437.492 59.9359 434.061 56.8209 431.617 52.7465L429.902 53.7755C432.553 58.1945 436.281 61.5708 441.06 63.8971L441.935 62.0989ZM431.62 52.7519C429.179 48.6255 427.937 43.6821 427.937 37.882H425.937C425.937 43.9726 427.244 49.2819 429.899 53.7701L431.62 52.7519ZM427.937 37.882C427.937 32.2123 429.205 27.2658 431.712 23.0105L429.989 21.9955C427.278 26.5975 425.937 31.9037 425.937 37.882H427.937ZM431.715 23.0054C434.227 18.6825 437.726 15.3569 442.231 13.0164L441.309 11.2416C436.472 13.7544 432.691 17.3448 429.986 22.0006L431.715 23.0054ZM442.24 13.0117C446.75 10.6105 451.893 9.39799 457.695 9.39799V7.39799C451.607 7.39799 446.133 8.67286 441.3 11.2463L442.24 13.0117ZM457.331 9.036C453.895 9.036 450.859 10.3358 448.261 12.869L449.657 14.301C451.913 12.1022 454.458 11.036 457.331 11.036V9.036ZM448.262 12.8688C445.746 15.3201 443.824 18.7255 442.456 23.0182L444.361 23.6258C445.662 19.5465 447.441 16.4605 449.657 14.3012L448.262 12.8688ZM442.453 23.0269C441.143 27.2673 440.497 32.102 440.497 37.518H442.497C442.497 32.2567 443.125 27.6274 444.364 23.6171L442.453 23.0269ZM440.497 37.518C440.497 43.0051 441.237 47.8839 442.738 52.1378L444.624 51.4722C443.214 47.4755 442.497 42.8295 442.497 37.518H440.497ZM442.738 52.1378C444.233 56.3737 446.283 59.7171 448.926 62.1024L450.266 60.6176C447.935 58.5135 446.041 55.4869 444.624 51.4722L442.738 52.1378ZM448.946 62.1193C451.654 64.4409 454.67 65.636 457.968 65.636V63.636C455.2 63.636 452.635 62.6471 450.247 60.6007L448.946 62.1193ZM457.968 65.636C461.397 65.636 464.404 64.372 466.947 61.8942L465.551 60.4618C463.362 62.5947 460.849 63.636 457.968 63.636V65.636ZM466.947 61.894C469.522 59.3837 471.446 55.9783 472.756 51.7361L470.845 51.1459C469.607 55.1544 467.83 58.2403 465.551 60.462L466.947 61.894ZM472.753 51.7448C474.125 47.4421 474.802 42.5744 474.802 37.154H472.802C472.802 42.4109 472.145 47.0679 470.848 51.1372L472.753 51.7448ZM474.802 37.154C474.802 31.6669 474.063 26.7881 472.561 22.5342L470.675 23.1998C472.086 27.1965 472.802 31.8425 472.802 37.154H474.802ZM472.561 22.5342C471.064 18.2924 468.979 14.9714 466.263 12.6437L464.962 14.1623C467.342 16.2026 469.26 19.1909 470.675 23.1998L472.561 22.5342ZM466.282 12.6606C463.632 10.2688 460.639 9.036 457.331 9.036V11.036C460.091 11.036 462.618 12.0478 464.942 14.1454L466.282 12.6606ZM556.976 11.492L557.126 12.4807L557.976 12.3519V11.492H556.976ZM552.517 12.857L551.987 12.009L551.975 12.0168L551.963 12.0249L552.517 12.857ZM550.606 15.769L549.642 15.5059L549.636 15.5265L549.631 15.5474L550.606 15.769ZM550.151 65.182L550.114 66.1813L551.151 66.2197V65.182H550.151ZM547.694 65.091L547.731 64.0917L547.694 64.0903L547.656 64.0917L547.694 65.091ZM545.328 65.182L544.549 65.809L544.865 66.2006L545.367 66.1813L545.328 65.182ZM508.928 19.955L509.707 19.328L507.928 17.1176V19.955H508.928ZM509.656 58.903L508.712 59.2316L508.717 59.2447L509.656 58.903ZM512.295 61.815L511.865 62.7179L512.295 61.815ZM518.301 63.18H519.301V62.285L518.412 62.1861L518.301 63.18ZM518.301 65L518.235 65.9978L519.301 66.0689V65H518.301ZM500.01 65H499.01V66.0981L500.104 65.9956L500.01 65ZM500.01 63.18L499.861 62.1913L499.01 62.3201V63.18H500.01ZM504.378 61.815L503.848 60.967L503.836 60.9748L503.824 60.9829L504.378 61.815ZM506.289 58.903L505.325 58.6399L505.319 58.6605L505.314 58.6814L506.289 58.903ZM506.289 14.313L505.33 14.5952L505.337 14.6207L505.346 14.6458L506.289 14.313ZM504.378 12.22L504.007 13.1485L504.017 13.1525L504.027 13.1563L504.378 12.22ZM500.01 11.492H499.01V12.4332L499.95 12.4902L500.01 11.492ZM500.01 9.672L500.104 8.67636L499.01 8.57386V9.672H500.01ZM519.029 9.672L519.808 9.04467L519.485 8.64347L518.971 8.67372L519.029 9.672ZM548.058 45.708L547.28 46.3353L549.058 48.5434V45.708H548.058ZM547.33 15.86L546.386 16.1885L546.391 16.2017L547.33 15.86ZM544.6 12.857L544.17 13.7599L544.178 13.7637L544.187 13.7674L544.6 12.857ZM538.685 11.492H537.685V12.3848L538.572 12.4856L538.685 11.492ZM538.685 9.672L538.753 8.67431L537.685 8.60149V9.672H538.685ZM556.976 9.672H557.976V8.57055L556.88 8.67665L556.976 9.672ZM556.827 10.5033C554.778 10.8137 553.131 11.2943 551.987 12.009L553.047 13.705C553.845 13.2064 555.171 12.7769 557.126 12.4807L556.827 10.5033ZM551.963 12.0249C550.803 12.7981 550.052 14.0019 549.642 15.5059L551.571 16.0321C551.889 14.8668 552.412 14.1293 553.072 13.689L551.963 12.0249ZM549.631 15.5474C549.302 16.9954 549.151 19.1197 549.151 21.866H551.151C551.151 19.1523 551.304 17.2119 551.581 15.9906L549.631 15.5474ZM549.151 21.866V65.182H551.151V21.866H549.151ZM550.188 64.1827L547.731 64.0917L547.657 66.0903L550.114 66.1813L550.188 64.1827ZM547.656 64.0917L545.29 64.1827L545.367 66.1813L547.733 66.0903L547.656 64.0917ZM546.107 64.555L509.707 19.328L508.149 20.582L544.549 65.809L546.107 64.555ZM507.928 19.955V52.806H509.928V19.955H507.928ZM507.928 52.806C507.928 55.5122 508.171 57.6775 508.712 59.2315L510.601 58.5745C510.171 57.3378 509.928 55.4385 509.928 52.806H507.928ZM508.717 59.2447C509.291 60.8243 510.353 61.9975 511.865 62.7179L512.725 60.9121C511.69 60.4192 510.992 59.651 510.596 58.5613L508.717 59.2447ZM511.865 62.7179C513.295 63.3988 515.434 63.8676 518.191 64.1739L518.412 62.1861C515.708 61.8857 513.843 61.4445 512.725 60.9121L511.865 62.7179ZM517.301 63.18V65H519.301V63.18H517.301ZM518.368 64.0022C515.607 63.8182 512.125 63.727 507.927 63.727V65.727C512.101 65.727 515.535 65.8178 518.235 65.9978L518.368 64.0022ZM507.927 63.727C504.578 63.727 501.904 63.8181 499.917 64.0044L500.104 65.9956C502 65.8179 504.603 65.727 507.927 65.727V63.727ZM501.01 65V63.18H499.01V65H501.01ZM500.16 64.1687C502.204 63.859 503.837 63.3777 504.933 62.647L503.824 60.9829C503.1 61.4657 501.821 61.8943 499.861 62.1913L500.16 64.1687ZM504.908 62.663C506.148 61.888 506.915 60.6645 507.264 59.1246L505.314 58.6814C505.058 59.8108 504.55 60.5286 503.848 60.967L504.908 62.663ZM507.254 59.1661C507.654 57.6982 507.835 55.5563 507.835 52.806H505.835C505.835 55.5157 505.652 57.4385 505.325 58.6399L507.254 59.1661ZM507.835 52.806V19.318H505.835V52.806H507.835ZM507.835 19.318C507.835 16.9964 507.657 15.1823 507.232 13.9802L505.346 14.6458C505.65 15.5063 505.835 17.0289 505.835 19.318H507.835ZM507.249 14.0308C506.861 12.7111 506.007 11.7627 504.729 11.2837L504.027 13.1563C504.691 13.4053 505.111 13.8523 505.33 14.5952L507.249 14.0308ZM504.75 11.2915C503.683 10.8648 502.092 10.6163 500.071 10.4938L499.95 12.4902C501.933 12.6103 503.254 12.8472 504.007 13.1485L504.75 11.2915ZM501.01 11.492V9.672H499.01V11.492H501.01ZM499.917 10.6676C501.904 10.8539 504.578 10.945 507.927 10.945V8.945C504.603 8.945 502 8.85413 500.104 8.67636L499.917 10.6676ZM507.927 10.945C512.247 10.945 515.969 10.8538 519.088 10.6703L518.971 8.67372C515.902 8.85423 512.222 8.945 507.927 8.945V10.945ZM518.251 10.2993L547.28 46.3353L548.837 45.0807L519.808 9.04467L518.251 10.2993ZM549.058 45.708V21.866H547.058V45.708H549.058ZM549.058 21.866C549.058 19.164 548.816 17.0204 548.27 15.5183L546.391 16.2017C546.815 17.3689 547.058 19.2294 547.058 21.866H549.058ZM548.275 15.5315C547.7 13.88 546.6 12.6675 545.014 11.9466L544.187 13.7674C545.27 14.2599 545.99 15.0493 546.386 16.1885L548.275 15.5315ZM545.03 11.9541C543.603 11.2744 541.497 10.8051 538.798 10.4984L538.572 12.4856C541.212 12.7856 543.05 13.2263 544.17 13.7599L545.03 11.9541ZM539.685 11.492V9.672H537.685V11.492H539.685ZM538.617 10.6697C541.318 10.8538 544.801 10.945 549.059 10.945V8.945C544.824 8.945 541.391 8.85415 538.753 8.67431L538.617 10.6697ZM549.059 10.945C552.468 10.945 555.144 10.854 557.073 10.6673L556.88 8.67665C555.047 8.85403 552.445 8.945 549.059 8.945V10.945ZM555.976 9.672V11.492H557.976V9.672H555.976Z" fill="black"/>
</svg>
