<svg width="761" height="67" viewBox="0 0 761 67" fill="none" xmlns="http://www.w3.org/2000/svg">
<path d="M57.0124 57.356C57.8011 59.358 58.7111 60.814 59.7424 61.724C60.7737 62.634 61.7747 63.1193 62.7454 63.18V65C59.1054 64.818 54.4947 64.727 48.9134 64.727C42.7254 64.727 38.1147 64.818 35.0814 65V63.18C37.3867 63.0587 39.0247 62.7857 39.9954 62.361C40.9661 61.8757 41.4514 61.0567 41.4514 59.904C41.4514 58.812 41.0874 57.356 40.3594 55.536L34.8994 40.612H15.0614L12.6954 46.891C10.9967 51.259 10.1474 54.626 10.1474 56.992C10.1474 59.2367 10.8147 60.814 12.1494 61.724C13.5447 62.5733 15.5771 63.0587 18.2464 63.18V65C14.1211 64.818 10.3597 64.727 6.96241 64.727C4.17174 64.727 1.86641 64.818 0.0464074 65V63.18C3.01907 62.634 5.62774 59.449 7.87241 53.625L28.6204 0.389997C29.2877 0.450662 30.3494 0.480995 31.8054 0.480995C33.2614 0.480995 34.2927 0.450662 34.8994 0.389997L57.0124 57.356ZM34.2624 38.792L25.2534 14.222L15.7894 38.792H34.2624ZM100.601 8.398C104.119 8.398 106.971 8.91366 109.155 9.945C111.339 10.9157 113.583 12.3717 115.889 14.313C116.556 14.859 117.132 15.132 117.618 15.132C118.831 15.132 119.62 13.312 119.984 9.672H122.077C121.834 13.312 121.713 19.682 121.713 28.782H119.62C119.013 25.506 118.406 23.14 117.8 21.684C117.193 20.1673 116.283 18.6507 115.07 17.134C113.371 15.132 111.43 13.585 109.246 12.493C107.122 11.3403 104.908 10.764 102.603 10.764C99.266 10.764 96.354 11.856 93.8667 14.04C91.3794 16.1633 89.438 19.227 88.0427 23.231C86.708 27.235 86.0407 31.9973 86.0407 37.518C86.0407 43.0993 86.7687 47.892 88.2247 51.896C89.7414 55.8393 91.804 58.8423 94.4127 60.905C97.0214 62.907 99.9637 63.908 103.24 63.908C105.606 63.908 107.911 63.362 110.156 62.27C112.461 61.1173 114.433 59.54 116.071 57.538C117.284 56.0213 118.164 54.3833 118.71 52.624C119.256 50.8647 119.771 48.3167 120.257 44.98H122.35C122.35 54.5047 122.471 61.178 122.714 65H120.621C120.439 63.1193 120.166 61.7543 119.802 60.905C119.438 59.995 118.952 59.54 118.346 59.54C117.86 59.54 117.254 59.813 116.526 60.359C114.281 62.2397 111.945 63.6957 109.519 64.727C107.092 65.7583 104.18 66.274 100.783 66.274C95.0194 66.274 89.9234 65.1517 85.4947 62.907C81.066 60.6623 77.608 57.4167 75.1207 53.17C72.694 48.9233 71.4807 43.8273 71.4807 37.882C71.4807 32.1187 72.7547 26.9923 75.3027 22.503C77.8507 18.0137 81.3087 14.5557 85.6767 12.129C90.1054 9.64166 95.08 8.398 100.601 8.398ZM200.812 11.492C198.75 11.6133 197.263 11.856 196.353 12.22C195.443 12.584 194.806 13.2817 194.442 14.313C194.139 15.3443 193.987 17.0127 193.987 19.318V55.354C193.987 57.6593 194.139 59.3277 194.442 60.359C194.806 61.3903 195.443 62.088 196.353 62.452C197.324 62.816 198.81 63.0587 200.812 63.18V65C198.022 64.818 193.593 64.727 187.526 64.727C181.399 64.727 176.637 64.818 173.239 65V63.18C175.302 63.0587 176.788 62.816 177.698 62.452C178.608 62.088 179.215 61.3903 179.518 60.359C179.882 59.3277 180.064 57.6593 180.064 55.354V37.7H156.677V55.354C156.677 57.6593 156.829 59.3277 157.132 60.359C157.496 61.3903 158.133 62.088 159.043 62.452C160.014 62.816 161.5 63.0587 163.502 63.18V65C160.166 64.818 155.403 64.727 149.215 64.727C143.27 64.727 138.841 64.818 135.929 65V63.18C137.992 63.0587 139.478 62.816 140.388 62.452C141.298 62.088 141.905 61.3903 142.208 60.359C142.572 59.3277 142.754 57.6593 142.754 55.354V19.318C142.754 17.0127 142.572 15.3443 142.208 14.313C141.905 13.2817 141.268 12.584 140.297 12.22C139.387 11.856 137.931 11.6133 135.929 11.492V9.672C138.841 9.854 143.27 9.945 149.215 9.945C155.403 9.945 160.166 9.854 163.502 9.672V11.492C161.44 11.6133 159.953 11.856 159.043 12.22C158.133 12.584 157.496 13.2817 157.132 14.313C156.829 15.3443 156.677 17.0127 156.677 19.318V35.88H180.064V19.318C180.064 17.0127 179.882 15.3443 179.518 14.313C179.215 13.2817 178.578 12.584 177.607 12.22C176.697 11.856 175.241 11.6133 173.239 11.492V9.672C176.637 9.854 181.399 9.945 187.526 9.945C193.593 9.945 198.022 9.854 200.812 9.672V11.492ZM240.056 11.492C237.993 11.6133 236.507 11.856 235.597 12.22C234.687 12.584 234.05 13.2817 233.686 14.313C233.383 15.3443 233.231 17.0127 233.231 19.318V55.354C233.231 57.6593 233.383 59.3277 233.686 60.359C234.05 61.3903 234.687 62.088 235.597 62.452C236.507 62.816 237.993 63.0587 240.056 63.18V65C236.962 64.818 232.473 64.727 226.588 64.727C220.218 64.727 215.516 64.818 212.483 65V63.18C214.546 63.0587 216.032 62.816 216.942 62.452C217.852 62.088 218.459 61.3903 218.762 60.359C219.126 59.3277 219.308 57.6593 219.308 55.354V19.318C219.308 17.0127 219.126 15.3443 218.762 14.313C218.459 13.2817 217.822 12.584 216.851 12.22C215.941 11.856 214.485 11.6133 212.483 11.492V9.672C215.456 9.854 220.157 9.945 226.588 9.945C232.473 9.945 236.962 9.854 240.056 9.672V11.492ZM299.215 53.17C299.215 56.628 299.427 60.5713 299.852 65C295.908 64.818 289.265 64.727 279.923 64.727C267.425 64.727 258.022 64.818 251.713 65V63.18C253.775 63.0587 255.262 62.816 256.172 62.452C257.082 62.088 257.688 61.3903 257.992 60.359C258.356 59.3277 258.538 57.6593 258.538 55.354V19.318C258.538 17.0127 258.356 15.3443 257.992 14.313C257.688 13.2817 257.051 12.584 256.081 12.22C255.171 11.856 253.715 11.6133 251.713 11.492V9.672C258.022 9.854 267.425 9.945 279.923 9.945C288.416 9.945 294.452 9.854 298.032 9.672C297.607 13.7367 297.395 17.3767 297.395 20.592C297.395 22.958 297.486 24.8387 297.668 26.234H295.575C294.665 21.0167 293.087 17.316 290.843 15.132C288.598 12.8873 285.504 11.765 281.561 11.765H278.194C276.616 11.765 275.433 11.9167 274.645 12.22C273.856 12.4627 273.28 13.0087 272.916 13.858C272.612 14.6467 272.461 15.9207 272.461 17.68V36.244H276.738C279.528 36.244 281.621 35.2733 283.017 33.332C284.473 31.33 285.443 29.0247 285.929 26.416H288.022C287.84 28.4787 287.749 30.8447 287.749 33.514V37.154C287.749 39.884 287.931 43.4633 288.295 47.892H286.202C285.777 45.0407 284.806 42.705 283.29 40.885C281.834 39.0043 279.65 38.064 276.738 38.064H272.461V56.992C272.461 58.7513 272.612 60.0557 272.916 60.905C273.28 61.6937 273.856 62.2397 274.645 62.543C275.433 62.7857 276.616 62.907 278.194 62.907H282.107C286.414 62.907 289.781 61.6633 292.208 59.176C294.695 56.6887 296.424 52.5027 297.395 46.618H299.488C299.306 48.3167 299.215 50.5007 299.215 53.17ZM360.138 9.945C362.808 9.945 365.022 9.854 366.781 9.672V11.492C365.204 12.0987 363.748 13.2817 362.413 15.041C361.079 16.7397 359.683 19.2877 358.227 22.685L340.391 65.182C339.906 65.1213 339.208 65.091 338.298 65.091C337.388 65.091 336.691 65.1213 336.205 65.182L313.728 17.316C311.969 13.5547 310.058 11.6133 307.995 11.492V9.672C310.847 9.854 314.82 9.945 319.916 9.945C326.408 9.945 331.2 9.854 334.294 9.672V11.492C332.292 11.6133 330.806 11.947 329.835 12.493C328.865 12.9783 328.379 13.7973 328.379 14.95C328.379 16.1027 328.774 17.498 329.562 19.136L344.213 50.986L353.404 29.601C355.346 24.9297 356.316 21.1987 356.316 18.408C356.316 13.9793 353.859 11.674 348.945 11.492V9.672C352.403 9.854 356.134 9.945 360.138 9.945ZM422.196 53.17C422.196 56.628 422.408 60.5713 422.833 65C418.89 64.818 412.247 64.727 402.904 64.727C390.407 64.727 381.003 64.818 374.694 65V63.18C376.757 63.0587 378.243 62.816 379.153 62.452C380.063 62.088 380.67 61.3903 380.973 60.359C381.337 59.3277 381.519 57.6593 381.519 55.354V19.318C381.519 17.0127 381.337 15.3443 380.973 14.313C380.67 13.2817 380.033 12.584 379.062 12.22C378.152 11.856 376.696 11.6133 374.694 11.492V9.672C381.003 9.854 390.407 9.945 402.904 9.945C411.397 9.945 417.434 9.854 421.013 9.672C420.588 13.7367 420.376 17.3767 420.376 20.592C420.376 22.958 420.467 24.8387 420.649 26.234H418.556C417.646 21.0167 416.069 17.316 413.824 15.132C411.579 12.8873 408.485 11.765 404.542 11.765H401.175C399.598 11.765 398.415 11.9167 397.626 12.22C396.837 12.4627 396.261 13.0087 395.897 13.858C395.594 14.6467 395.442 15.9207 395.442 17.68V36.244H399.719C402.51 36.244 404.603 35.2733 405.998 33.332C407.454 31.33 408.425 29.0247 408.91 26.416H411.003C410.821 28.4787 410.73 30.8447 410.73 33.514V37.154C410.73 39.884 410.912 43.4633 411.276 47.892H409.183C408.758 45.0407 407.788 42.705 406.271 40.885C404.815 39.0043 402.631 38.064 399.719 38.064H395.442V56.992C395.442 58.7513 395.594 60.0557 395.897 60.905C396.261 61.6937 396.837 62.2397 397.626 62.543C398.415 62.7857 399.598 62.907 401.175 62.907H405.088C409.395 62.907 412.762 61.6633 415.189 59.176C417.676 56.6887 419.405 52.5027 420.376 46.618H422.469C422.287 48.3167 422.196 50.5007 422.196 53.17ZM509.954 11.492C507.77 11.6133 506.163 11.856 505.131 12.22C504.161 12.584 503.493 13.2817 503.129 14.313C502.765 15.3443 502.583 17.0127 502.583 19.318V55.354C502.583 57.6593 502.765 59.3277 503.129 60.359C503.493 61.3903 504.161 62.088 505.131 62.452C506.163 62.816 507.77 63.0587 509.954 63.18V65C506.678 64.818 502.098 64.727 496.213 64.727C489.176 64.727 484.019 64.818 480.743 65V63.18C482.927 63.0587 484.505 62.816 485.475 62.452C486.507 62.088 487.204 61.3903 487.568 60.359C487.932 59.3277 488.114 57.6593 488.114 55.354V15.405L467.275 65.455H465.819L444.707 15.496V52.806C444.707 55.4753 444.95 57.5077 445.435 58.903C445.921 60.2377 446.8 61.2083 448.074 61.815C449.409 62.4217 451.411 62.8767 454.08 63.18V65C451.472 64.818 448.014 64.727 443.706 64.727C440.37 64.727 437.731 64.818 435.789 65V63.18C437.791 62.8767 439.247 62.4217 440.157 61.815C441.128 61.2083 441.765 60.2377 442.068 58.903C442.432 57.5683 442.614 55.536 442.614 52.806V19.318C442.614 17.0127 442.432 15.3443 442.068 14.313C441.704 13.2817 441.007 12.584 439.975 12.22C439.005 11.856 437.427 11.6133 435.243 11.492V9.672C438.398 9.854 443.221 9.945 449.712 9.945C452.867 9.945 455.567 9.854 457.811 9.672L472.917 45.981L488.114 9.945H496.213C502.098 9.945 506.678 9.854 509.954 9.672V11.492ZM568.816 53.17C568.816 56.628 569.029 60.5713 569.453 65C565.51 64.818 558.867 64.727 549.524 64.727C537.027 64.727 527.624 64.818 521.314 65V63.18C523.377 63.0587 524.863 62.816 525.773 62.452C526.683 62.088 527.29 61.3903 527.593 60.359C527.957 59.3277 528.139 57.6593 528.139 55.354V19.318C528.139 17.0127 527.957 15.3443 527.593 14.313C527.29 13.2817 526.653 12.584 525.682 12.22C524.772 11.856 523.316 11.6133 521.314 11.492V9.672C527.624 9.854 537.027 9.945 549.524 9.945C558.018 9.945 564.054 9.854 567.633 9.672C567.209 13.7367 566.996 17.3767 566.996 20.592C566.996 22.958 567.087 24.8387 567.269 26.234H565.176C564.266 21.0167 562.689 17.316 560.444 15.132C558.2 12.8873 555.106 11.765 551.162 11.765H547.795C546.218 11.765 545.035 11.9167 544.246 12.22C543.458 12.4627 542.881 13.0087 542.517 13.858C542.214 14.6467 542.062 15.9207 542.062 17.68V36.244H546.339C549.13 36.244 551.223 35.2733 552.618 33.332C554.074 31.33 555.045 29.0247 555.53 26.416H557.623C557.441 28.4787 557.35 30.8447 557.35 33.514V37.154C557.35 39.884 557.532 43.4633 557.896 47.892H555.803C555.379 45.0407 554.408 42.705 552.891 40.885C551.435 39.0043 549.251 38.064 546.339 38.064H542.062V56.992C542.062 58.7513 542.214 60.0557 542.517 60.905C542.881 61.6937 543.458 62.2397 544.246 62.543C545.035 62.7857 546.218 62.907 547.795 62.907H551.708C556.016 62.907 559.383 61.6633 561.809 59.176C564.297 56.6887 566.026 52.5027 566.996 46.618H569.089C568.907 48.3167 568.816 50.5007 568.816 53.17ZM639.284 11.492C637.282 11.7953 635.796 12.2503 634.825 12.857C633.915 13.4637 633.278 14.4343 632.914 15.769C632.611 17.1037 632.459 19.136 632.459 21.866V65.182L630.002 65.091L627.636 65.182L591.236 19.955V52.806C591.236 55.4753 591.479 57.5077 591.964 58.903C592.45 60.2377 593.329 61.2083 594.603 61.815C595.877 62.4217 597.879 62.8767 600.609 63.18V65C597.879 64.818 594.421 64.727 590.235 64.727C586.899 64.727 584.26 64.818 582.318 65V63.18C584.32 62.8767 585.776 62.4217 586.686 61.815C587.657 61.2083 588.294 60.2377 588.597 58.903C588.961 57.5683 589.143 55.536 589.143 52.806V19.318C589.143 17.0127 588.961 15.3443 588.597 14.313C588.294 13.2817 587.657 12.584 586.686 12.22C585.776 11.856 584.32 11.6133 582.318 11.492V9.672C584.26 9.854 586.899 9.945 590.235 9.945C594.543 9.945 598.243 9.854 601.337 9.672L630.366 45.708V21.866C630.366 19.1967 630.124 17.1947 629.638 15.86C629.153 14.4647 628.243 13.4637 626.908 12.857C625.634 12.2503 623.663 11.7953 620.993 11.492V9.672C623.663 9.854 627.121 9.945 631.367 9.945C634.765 9.945 637.404 9.854 639.284 9.672V11.492ZM703.933 9.672C703.509 14.2827 703.296 18.408 703.296 22.048C703.296 25.4453 703.387 28.1147 703.569 30.056H701.476C700.627 25.4453 699.596 21.8357 698.382 19.227C697.23 16.6183 695.713 14.7377 693.832 13.585C692.012 12.3717 689.646 11.765 686.734 11.765H683.913V54.444C683.913 56.992 684.156 58.8423 684.641 59.995C685.127 61.1477 685.976 61.9363 687.189 62.361C688.403 62.7857 690.374 63.0587 693.104 63.18V65C689.828 64.818 684.368 64.727 676.724 64.727C669.02 64.727 663.711 64.818 660.799 65V63.18C663.529 63.0587 665.501 62.7857 666.714 62.361C667.928 61.9363 668.777 61.1477 669.262 59.995C669.748 58.8423 669.99 56.992 669.99 54.444V11.765H667.169C664.257 11.765 661.861 12.3717 659.98 13.585C658.16 14.7377 656.644 16.6183 655.43 19.227C654.278 21.8357 653.277 25.4453 652.427 30.056H650.334C650.516 28.1147 650.607 25.4453 650.607 22.048C650.607 18.408 650.395 14.2827 649.97 9.672C655.248 9.854 664.166 9.945 676.724 9.945C689.525 9.945 698.595 9.854 703.933 9.672ZM738.278 8.398C741.069 8.398 743.435 8.70133 745.376 9.308C747.378 9.91466 749.259 10.7337 751.018 11.765C751.686 12.129 752.262 12.4323 752.747 12.675C753.293 12.9177 753.748 13.039 754.112 13.039C754.658 13.039 755.083 12.7357 755.386 12.129C755.69 11.4617 755.932 10.4303 756.114 9.035H758.207C757.904 12.675 757.752 18.9843 757.752 27.963H755.659C754.992 22.503 753.233 18.226 750.381 15.132C747.53 11.9773 743.799 10.4 739.188 10.4C736.155 10.4 733.698 11.0673 731.817 12.402C729.997 13.7367 729.087 15.4657 729.087 17.589C729.087 19.227 729.573 20.7437 730.543 22.139C731.575 23.4737 732.909 24.7173 734.547 25.87C736.185 27.0227 738.582 28.5393 741.736 30.42L743.738 31.603C747.378 33.6657 750.351 35.5463 752.656 37.245C754.962 38.883 756.873 40.8547 758.389 43.16C759.906 45.4047 760.664 47.9527 760.664 50.804C760.664 55.7787 758.602 59.6007 754.476 62.27C750.351 64.9393 744.921 66.274 738.187 66.274C735.275 66.274 732.758 65.9403 730.634 65.273C728.511 64.6663 726.357 63.817 724.173 62.725C722.657 61.997 721.595 61.633 720.988 61.633C720.442 61.633 720.018 61.9667 719.714 62.634C719.411 63.2407 719.168 64.2417 718.986 65.637H716.893C717.136 62.2397 717.257 54.8383 717.257 43.433H719.35C719.775 49.8637 721.504 54.9293 724.537 58.63C727.631 62.3307 731.969 64.181 737.55 64.181C740.28 64.181 742.646 63.4833 744.648 62.088C746.65 60.6927 747.651 58.63 747.651 55.9C747.651 53.4733 746.711 51.3803 744.83 49.621C742.95 47.8617 739.734 45.6473 735.184 42.978C729.421 39.702 724.992 36.5777 721.898 33.605C718.865 30.6323 717.348 27.144 717.348 23.14C717.348 18.408 719.29 14.768 723.172 12.22C727.116 9.672 732.151 8.398 738.278 8.398Z" fill="white"/>
<path d="M57.0124 57.356L56.0802 57.7179L56.082 57.7225L57.0124 57.356ZM62.7454 63.18H63.7454V62.2405L62.8078 62.1819L62.7454 63.18ZM62.7454 65L62.6955 65.9988L63.7454 66.0512V65H62.7454ZM35.0814 65H34.0814V66.0618L35.1413 65.9982L35.0814 65ZM35.0814 63.18L35.0288 62.1814L34.0814 62.2312V63.18H35.0814ZM39.9954 62.361L40.3962 63.2772L40.4197 63.2669L40.4426 63.2554L39.9954 62.361ZM40.3594 55.536L39.4203 55.8796L39.4254 55.8936L39.4309 55.9074L40.3594 55.536ZM34.8994 40.612L35.8385 40.2684L35.5984 39.612H34.8994V40.612ZM15.0614 40.612V39.612H14.3696L14.1256 40.2594L15.0614 40.612ZM12.6954 46.891L13.6275 47.2535L13.6312 47.2436L12.6954 46.891ZM12.1494 61.724L11.5861 62.5502L11.6074 62.5648L11.6295 62.5782L12.1494 61.724ZM18.2464 63.18H19.2464V62.2244L18.2918 62.181L18.2464 63.18ZM18.2464 65L18.2023 65.999L19.2464 66.0451V65H18.2464ZM0.0464074 65H-0.953593V66.105L0.145911 65.995L0.0464074 65ZM0.0464074 63.18L-0.134244 62.1965L-0.953593 62.3469V63.18H0.0464074ZM7.87241 53.625L6.94067 53.2619L6.93931 53.2654L7.87241 53.625ZM28.6204 0.389997L28.7109 -0.605897L27.9618 -0.673997L27.6887 0.0268586L28.6204 0.389997ZM34.8994 0.389997L35.8316 0.0281253L35.5565 -0.680698L34.7999 -0.605041L34.8994 0.389997ZM34.2624 38.792V39.792H35.6942L35.2013 38.4477L34.2624 38.792ZM25.2534 14.222L26.1923 13.8777L25.2765 11.3801L24.3202 13.8626L25.2534 14.222ZM15.7894 38.792L14.8562 38.4326L14.3326 39.792H15.7894V38.792ZM56.082 57.7225C56.8991 59.7968 57.8824 61.4164 59.0808 62.4738L60.404 60.9742C59.5398 60.2116 58.703 58.9192 57.9428 56.9895L56.082 57.7225ZM59.0808 62.4738C60.2114 63.4714 61.4151 64.0988 62.683 64.1781L62.8078 62.1819C62.1344 62.1399 61.3361 61.7966 60.404 60.9742L59.0808 62.4738ZM61.7454 63.18V65H63.7454V63.18H61.7454ZM62.7953 64.0012C59.1325 63.8181 54.5037 63.727 48.9134 63.727V65.727C54.4858 65.727 59.0784 65.8179 62.6955 65.9988L62.7953 64.0012ZM48.9134 63.727C42.7214 63.727 38.0861 63.8179 35.0215 64.0018L35.1413 65.9982C38.1434 65.8181 42.7294 65.727 48.9134 65.727V63.727ZM36.0814 65V63.18H34.0814V65H36.0814ZM35.134 64.1786C37.4515 64.0566 39.2473 63.7798 40.3962 63.2772L39.5946 61.4448C38.8022 61.7915 37.322 62.0607 35.0288 62.1814L35.134 64.1786ZM40.4426 63.2554C41.075 62.9392 41.5939 62.4895 41.9477 61.8926C42.2994 61.2991 42.4514 60.6219 42.4514 59.904H40.4514C40.4514 60.3388 40.3608 60.6474 40.2271 60.8729C40.0955 61.095 39.8865 61.2974 39.5482 61.4666L40.4426 63.2554ZM42.4514 59.904C42.4514 58.6211 42.0316 57.024 41.2879 55.1646L39.4309 55.9074C40.1432 57.688 40.4514 59.0029 40.4514 59.904H42.4514ZM41.2985 55.1924L35.8385 40.2684L33.9603 40.9556L39.4203 55.8796L41.2985 55.1924ZM34.8994 39.612H15.0614V41.612H34.8994V39.612ZM14.1256 40.2594L11.7596 46.5384L13.6312 47.2436L15.9972 40.9646L14.1256 40.2594ZM11.7634 46.5286C10.0551 50.9214 9.14741 54.4322 9.14741 56.992H11.1474C11.1474 54.8198 11.9384 51.5966 13.6274 47.2534L11.7634 46.5286ZM9.14741 56.992C9.14741 59.4273 9.87994 61.387 11.5861 62.5502L12.7127 60.8978C11.7495 60.241 11.1474 59.046 11.1474 56.992H9.14741ZM11.6295 62.5782C13.2321 63.5537 15.4588 64.0543 18.201 64.179L18.2918 62.181C15.6953 62.063 13.8574 61.593 12.6694 60.8698L11.6295 62.5782ZM17.2464 63.18V65H19.2464V63.18H17.2464ZM18.2905 64.001C14.1535 63.8185 10.3772 63.727 6.96241 63.727V65.727C10.3423 65.727 14.0887 65.8175 18.2023 65.999L18.2905 64.001ZM6.96241 63.727C4.15381 63.727 1.81232 63.8184 -0.0530963 64.005L0.145911 65.995C1.92049 65.8176 4.18967 65.727 6.96241 65.727V63.727ZM1.04641 65V63.18H-0.953593V65H1.04641ZM0.227059 64.1635C2.01863 63.8345 3.60607 62.7247 5.00604 61.0154C6.40303 59.3098 7.66254 56.9501 8.8055 53.9846L6.93931 53.2654C5.8376 56.1239 4.67045 58.2687 3.45878 59.7481C2.25008 61.2238 1.04685 61.9795 -0.134244 62.1965L0.227059 64.1635ZM8.80414 53.9881L29.5521 0.753134L27.6887 0.0268586L6.94067 53.2619L8.80414 53.9881ZM28.5299 1.38589C29.2455 1.45094 30.3457 1.481 31.8054 1.481V-0.519005C30.3531 -0.519005 29.33 -0.549619 28.7109 -0.605897L28.5299 1.38589ZM31.8054 1.481C33.2618 1.481 34.3376 1.45116 34.9989 1.38503L34.7999 -0.605041C34.2479 -0.549839 33.261 -0.519005 31.8054 -0.519005V1.481ZM33.9672 0.751868L56.0802 57.7179L57.9446 56.9941L35.8316 0.0281253L33.9672 0.751868ZM35.2013 38.4477L26.1923 13.8777L24.3145 14.5663L33.3235 39.1363L35.2013 38.4477ZM24.3202 13.8626L14.8562 38.4326L16.7226 39.1514L26.1866 14.5814L24.3202 13.8626ZM15.7894 39.792H34.2624V37.792H15.7894V39.792ZM109.155 9.945L108.728 10.8492L108.738 10.8541L108.749 10.8588L109.155 9.945ZM115.889 14.313L115.245 15.0779L115.25 15.0825L115.255 15.087L115.889 14.313ZM119.984 9.672V8.672H119.079L118.989 9.57249L119.984 9.672ZM122.077 9.672L123.074 9.73852L123.146 8.672H122.077V9.672ZM121.713 28.782V29.782H122.713V28.782H121.713ZM119.62 28.782L118.636 28.9641L118.788 29.782H119.62V28.782ZM117.8 21.684L116.871 22.0554L116.874 22.062L116.877 22.0686L117.8 21.684ZM115.07 17.134L115.851 16.5093L115.842 16.498L115.832 16.487L115.07 17.134ZM109.246 12.493L108.769 13.3719L108.783 13.3799L108.798 13.3874L109.246 12.493ZM93.8667 14.04L94.516 14.8006L94.5265 14.7914L93.8667 14.04ZM88.0427 23.231L87.0983 22.9019L87.094 22.9148L88.0427 23.231ZM88.2247 51.896L87.2849 52.2377L87.288 52.2464L87.2914 52.255L88.2247 51.896ZM94.4127 60.905L93.7925 61.6894L93.7981 61.6939L93.8039 61.6983L94.4127 60.905ZM110.156 62.27L110.593 63.1693L110.603 63.1644L110.156 62.27ZM116.071 57.538L116.845 58.1713L116.852 58.1627L116.071 57.538ZM120.257 44.98V43.98H119.392L119.267 44.8361L120.257 44.98ZM122.35 44.98H123.35V43.98H122.35V44.98ZM122.714 65V66H123.779L123.712 64.9366L122.714 65ZM120.621 65L119.625 65.0963L119.713 66H120.621V65ZM119.802 60.905L118.873 61.2764L118.878 61.2877L118.883 61.2989L119.802 60.905ZM116.526 60.359L115.926 59.559L115.904 59.5752L115.883 59.5925L116.526 60.359ZM109.519 64.727L109.128 63.8067L109.128 63.8067L109.519 64.727ZM85.4947 62.907L85.9468 62.015L85.9468 62.015L85.4947 62.907ZM75.1207 53.17L74.2524 53.6662L74.2578 53.6754L75.1207 53.17ZM75.3027 22.503L74.433 22.0094L74.433 22.0094L75.3027 22.503ZM85.6767 12.129L86.1623 13.0032L86.1664 13.0009L85.6767 12.129ZM100.601 9.398C104.034 9.398 106.724 9.90301 108.728 10.8492L109.582 9.04075C107.217 7.92431 104.205 7.398 100.601 7.398V9.398ZM108.749 10.8588C110.828 11.7828 112.993 13.1821 115.245 15.0779L116.533 13.5481C114.173 11.5612 111.85 10.0485 109.561 9.03119L108.749 10.8588ZM115.255 15.087C115.977 15.6776 116.78 16.132 117.618 16.132V14.132C117.484 14.132 117.135 14.0403 116.522 13.539L115.255 15.087ZM117.618 16.132C118.842 16.132 119.595 15.1843 120.037 14.1646C120.493 13.1111 120.794 11.623 120.979 9.7715L118.989 9.57249C118.81 11.361 118.534 12.6029 118.202 13.3694C118.037 13.7499 117.884 13.9525 117.775 14.0508C117.686 14.1317 117.643 14.132 117.618 14.132V16.132ZM119.984 10.672H122.077V8.672H119.984V10.672ZM121.079 9.60548C120.834 13.2825 120.713 19.6829 120.713 28.782H122.713C122.713 19.6811 122.834 13.3415 123.074 9.73852L121.079 9.60548ZM121.713 27.782H119.62V29.782H121.713V27.782ZM120.603 28.5999C119.994 25.3134 119.373 22.8591 118.723 21.2994L116.877 22.0686C117.44 23.4209 118.032 25.6986 118.636 28.9641L120.603 28.5999ZM118.728 21.3126C118.079 19.6894 117.114 18.0886 115.851 16.5093L114.289 17.7587C115.452 19.2127 116.307 20.6453 116.871 22.0554L118.728 21.3126ZM115.832 16.487C114.053 14.3899 112.006 12.7554 109.693 11.5986L108.798 13.3874C110.853 14.4146 112.689 15.8741 114.307 17.781L115.832 16.487ZM109.723 11.6141C107.46 10.3859 105.083 9.764 102.603 9.764V11.764C104.733 11.764 106.784 12.2947 108.769 13.3719L109.723 11.6141ZM102.603 9.764C99.0254 9.764 95.8783 10.9429 93.2069 13.2886L94.5265 14.7914C96.8298 12.7691 99.5067 11.764 102.603 11.764V9.764ZM93.2174 13.2794C90.5609 15.5472 88.5352 18.779 87.0984 22.9019L88.987 23.5601C90.3409 19.675 92.1978 16.7795 94.516 14.8006L93.2174 13.2794ZM87.094 22.9148C85.7167 27.0466 85.0407 31.921 85.0407 37.518H87.0407C87.0407 32.0736 87.6993 27.4234 88.9914 23.5472L87.094 22.9148ZM85.0407 37.518C85.0407 43.1817 85.7789 48.0962 87.2849 52.2377L89.1645 51.5543C87.7585 47.6878 87.0407 43.0169 87.0407 37.518H85.0407ZM87.2914 52.255C88.8552 56.3211 91.0099 59.4893 93.7925 61.6894L95.0329 60.1206C92.5981 58.1954 90.6275 55.3576 89.158 51.537L87.2914 52.255ZM93.8039 61.6983C96.5865 63.8338 99.7426 64.908 103.24 64.908V62.908C100.185 62.908 97.4562 61.9802 95.0215 60.1117L93.8039 61.6983ZM103.24 64.908C105.766 64.908 108.22 64.3238 110.593 63.1692L109.718 61.3708C107.602 62.4002 105.446 62.908 103.24 62.908V64.908ZM110.603 63.1644C113.035 61.9485 115.118 60.282 116.845 58.1712L115.297 56.9048C113.748 58.798 111.887 60.2862 109.708 61.3756L110.603 63.1644ZM116.852 58.1627C118.139 56.5538 119.08 54.8055 119.665 52.9204L117.755 52.3276C117.248 53.9612 116.429 55.4888 115.29 56.9133L116.852 58.1627ZM119.665 52.9204C120.234 51.0862 120.759 48.4774 121.246 45.1239L119.267 44.8361C118.784 48.156 118.277 50.6432 117.755 52.3276L119.665 52.9204ZM120.257 45.98H122.35V43.98H120.257V45.98ZM121.35 44.98C121.35 54.5039 121.471 61.2061 121.716 65.0634L123.712 64.9366C123.471 61.1499 123.35 54.5054 123.35 44.98H121.35ZM122.714 64H120.621V66H122.714V64ZM121.616 64.9037C121.432 63.0043 121.149 61.5098 120.721 60.5111L118.883 61.2989C119.183 61.9988 119.445 63.2344 119.625 65.0963L121.616 64.9037ZM120.73 60.5336C120.319 59.5067 119.585 58.54 118.346 58.54V60.54C118.369 60.54 118.404 60.5388 118.481 60.6108C118.578 60.7024 118.722 60.8982 118.873 61.2764L120.73 60.5336ZM118.346 58.54C117.524 58.54 116.696 58.9812 115.926 59.559L117.126 61.159C117.811 60.6448 118.197 60.54 118.346 60.54V58.54ZM115.883 59.5925C113.706 61.4167 111.454 62.8179 109.128 63.8067L109.91 65.6473C112.437 64.5734 114.856 63.0626 117.168 61.1255L115.883 59.5925ZM109.128 63.8067C106.855 64.7726 104.083 65.274 100.783 65.274V67.274C104.277 67.274 107.329 66.744 109.91 65.6473L109.128 63.8067ZM100.783 65.274C95.1512 65.274 90.2144 64.1781 85.9468 62.015L85.0426 63.799C89.6323 66.1253 94.8875 67.274 100.783 67.274V65.274ZM85.9468 62.015C81.6877 59.8563 78.373 56.7441 75.9836 52.6646L74.2578 53.6754C76.8431 58.0892 80.4444 61.4684 85.0426 63.799L85.9468 62.015ZM75.9889 52.6739C73.6654 48.6077 72.4807 43.6907 72.4807 37.882H70.4807C70.4807 43.964 71.7226 49.2389 74.2525 53.6661L75.9889 52.6739ZM72.4807 37.882C72.4807 32.2711 73.7194 27.3185 76.1724 22.9966L74.433 22.0094C71.79 26.6662 70.4807 31.9662 70.4807 37.882H72.4807ZM76.1724 22.9966C78.6329 18.6614 81.9603 15.3376 86.1623 13.0032L85.1911 11.2548C80.657 13.7737 77.0685 17.3659 74.433 22.0094L76.1724 22.9966ZM86.1664 13.0009C90.4327 10.6047 95.2362 9.398 100.601 9.398V7.398C94.9238 7.398 89.778 8.67858 85.187 11.2571L86.1664 13.0009ZM200.812 11.492L200.871 12.4903L201.812 12.4349V11.492H200.812ZM196.353 12.22L195.982 11.2915L195.982 11.2915L196.353 12.22ZM194.442 14.313L193.499 13.9802L193.49 14.0053L193.483 14.0308L194.442 14.313ZM194.442 60.359L193.483 60.6412L193.49 60.6667L193.499 60.6918L194.442 60.359ZM196.353 62.452L195.982 63.3805L195.992 63.3845L196.002 63.3883L196.353 62.452ZM200.812 63.18H201.812V62.2388L200.873 62.1818L200.812 63.18ZM200.812 65L200.747 65.9979L201.812 66.0673V65H200.812ZM173.239 65H172.239V66.055L173.293 65.9986L173.239 65ZM173.239 63.18L173.181 62.1817L172.239 62.2371V63.18H173.239ZM177.698 62.452L178.07 63.3805L178.07 63.3805L177.698 62.452ZM179.518 60.359L178.575 60.0262L178.566 60.0513L178.559 60.0768L179.518 60.359ZM180.064 37.7H181.064V36.7H180.064V37.7ZM156.677 37.7V36.7H155.677V37.7H156.677ZM157.132 60.359L156.173 60.6412L156.18 60.6667L156.189 60.6918L157.132 60.359ZM159.043 62.452L158.672 63.3805L158.682 63.3845L158.692 63.3883L159.043 62.452ZM163.502 63.18H164.502V62.2388L163.563 62.1818L163.502 63.18ZM163.502 65L163.448 65.9985L164.502 66.056V65H163.502ZM135.929 65H134.929V66.0645L135.992 65.9981L135.929 65ZM135.929 63.18L135.871 62.1817L134.929 62.2371V63.18H135.929ZM140.388 62.452L140.76 63.3805L140.76 63.3805L140.388 62.452ZM142.208 60.359L141.265 60.0262L141.256 60.0513L141.249 60.0768L142.208 60.359ZM142.208 14.313L141.249 14.5952L141.256 14.6207L141.265 14.6458L142.208 14.313ZM140.297 12.22L139.926 13.1485L139.936 13.1525L139.946 13.1563L140.297 12.22ZM135.929 11.492H134.929V12.4332L135.869 12.4902L135.929 11.492ZM135.929 9.672L135.992 8.67394L134.929 8.60754V9.672H135.929ZM163.502 9.672H164.502V8.61596L163.448 8.67348L163.502 9.672ZM163.502 11.492L163.561 12.4903L164.502 12.4349V11.492H163.502ZM159.043 12.22L158.672 11.2915L158.672 11.2915L159.043 12.22ZM157.132 14.313L156.189 13.9802L156.18 14.0053L156.173 14.0308L157.132 14.313ZM156.677 35.88H155.677V36.88H156.677V35.88ZM180.064 35.88V36.88H181.064V35.88H180.064ZM179.518 14.313L178.559 14.5952L178.566 14.6207L178.575 14.6458L179.518 14.313ZM177.607 12.22L177.236 13.1485L177.246 13.1525L177.256 13.1563L177.607 12.22ZM173.239 11.492H172.239V12.4332L173.179 12.4902L173.239 11.492ZM173.239 9.672L173.293 8.67343L172.239 8.61699V9.672H173.239ZM200.812 9.672H201.812V8.60465L200.747 8.67412L200.812 9.672ZM200.754 10.4937C198.675 10.616 197.051 10.8638 195.982 11.2915L196.725 13.1485C197.475 12.8482 198.824 12.6107 200.871 12.4903L200.754 10.4937ZM195.982 11.2915C194.772 11.7756 193.947 12.7124 193.499 13.9802L195.385 14.6458C195.666 13.8509 196.115 13.3924 196.725 13.1485L195.982 11.2915ZM193.483 14.0308C193.136 15.2091 192.987 17.0005 192.987 19.318H194.987C194.987 17.0248 195.142 15.4795 195.402 14.5952L193.483 14.0308ZM192.987 19.318V55.354H194.987V19.318H192.987ZM192.987 55.354C192.987 57.6715 193.136 59.4629 193.483 60.6412L195.402 60.0768C195.142 59.1925 194.987 57.6472 194.987 55.354H192.987ZM193.499 60.6918C193.947 61.9596 194.772 62.8964 195.982 63.3805L196.725 61.5235C196.115 61.2796 195.666 60.8211 195.385 60.0262L193.499 60.6918ZM196.002 63.3883C197.117 63.8063 198.725 64.0553 200.752 64.1782L200.873 62.1818C198.896 62.062 197.531 61.8257 196.704 61.5157L196.002 63.3883ZM199.812 63.18V65H201.812V63.18H199.812ZM200.877 64.0021C198.052 63.8179 193.596 63.727 187.526 63.727V65.727C193.59 65.727 197.991 65.8181 200.747 65.9979L200.877 64.0021ZM187.526 63.727C181.393 63.727 176.61 63.818 173.186 64.0014L173.293 65.9986C176.664 65.818 181.405 65.727 187.526 65.727V63.727ZM174.239 65V63.18H172.239V65H174.239ZM173.298 64.1783C175.376 64.056 177 63.8082 178.07 63.3805L177.327 61.5235C176.576 61.8238 175.228 62.0613 173.181 62.1817L173.298 64.1783ZM178.07 63.3805C179.295 62.8905 180.097 61.9341 180.478 60.6412L178.559 60.0768C178.333 60.8466 177.922 61.2855 177.327 61.5235L178.07 63.3805ZM180.461 60.6918C180.886 59.4897 181.064 57.6756 181.064 55.354H179.064C179.064 57.6431 178.879 59.1657 178.575 60.0262L180.461 60.6918ZM181.064 55.354V37.7H179.064V55.354H181.064ZM180.064 36.7H156.677V38.7H180.064V36.7ZM155.677 37.7V55.354H157.677V37.7H155.677ZM155.677 55.354C155.677 57.6715 155.826 59.4629 156.173 60.6412L158.092 60.0768C157.832 59.1925 157.677 57.6472 157.677 55.354H155.677ZM156.189 60.6918C156.637 61.9596 157.462 62.8964 158.672 63.3805L159.415 61.5235C158.805 61.2796 158.356 60.8211 158.075 60.0262L156.189 60.6918ZM158.692 63.3883C159.807 63.8063 161.415 64.0553 163.442 64.1782L163.563 62.1818C161.586 62.062 160.221 61.8257 159.394 61.5157L158.692 63.3883ZM162.502 63.18V65H164.502V63.18H162.502ZM163.557 64.0015C160.193 63.818 155.409 63.727 149.215 63.727V65.727C155.398 65.727 160.139 65.818 163.448 65.9985L163.557 64.0015ZM149.215 63.727C143.266 63.727 138.811 63.8179 135.867 64.0019L135.992 65.9981C138.871 65.8181 143.274 65.727 149.215 65.727V63.727ZM136.929 65V63.18H134.929V65H136.929ZM135.988 64.1783C138.066 64.056 139.69 63.8082 140.76 63.3805L140.017 61.5235C139.266 61.8238 137.918 62.0613 135.871 62.1817L135.988 64.1783ZM140.76 63.3805C141.985 62.8905 142.787 61.9341 143.168 60.6412L141.249 60.0768C141.023 60.8466 140.612 61.2855 140.017 61.5235L140.76 63.3805ZM143.151 60.6918C143.576 59.4897 143.754 57.6756 143.754 55.354H141.754C141.754 57.6431 141.569 59.1657 141.265 60.0262L143.151 60.6918ZM143.754 55.354V19.318H141.754V55.354H143.754ZM143.754 19.318C143.754 16.9964 143.576 15.1823 143.151 13.9802L141.265 14.6458C141.569 15.5063 141.754 17.0289 141.754 19.318H143.754ZM143.168 14.0308C142.78 12.7111 141.926 11.7627 140.648 11.2837L139.946 13.1563C140.61 13.4053 141.03 13.8523 141.249 14.5952L143.168 14.0308ZM140.669 11.2915C139.602 10.8648 138.011 10.6163 135.99 10.4938L135.869 12.4902C137.852 12.6103 139.173 12.8472 139.926 13.1485L140.669 11.2915ZM136.929 11.492V9.672H134.929V11.492H136.929ZM135.867 10.67C138.811 10.8541 143.266 10.945 149.215 10.945V8.945C143.274 8.945 138.871 8.85391 135.992 8.67394L135.867 10.67ZM149.215 10.945C155.409 10.945 160.193 10.854 163.557 10.6705L163.448 8.67348C160.139 8.85399 155.398 8.945 149.215 8.945V10.945ZM162.502 9.672V11.492H164.502V9.672H162.502ZM163.444 10.4937C161.365 10.616 159.741 10.8638 158.672 11.2915L159.415 13.1485C160.165 12.8482 161.514 12.6107 163.561 12.4903L163.444 10.4937ZM158.672 11.2915C157.462 11.7756 156.637 12.7124 156.189 13.9802L158.075 14.6458C158.356 13.8509 158.805 13.3924 159.415 13.1485L158.672 11.2915ZM156.173 14.0308C155.826 15.2091 155.677 17.0005 155.677 19.318H157.677C157.677 17.0248 157.832 15.4795 158.092 14.5952L156.173 14.0308ZM155.677 19.318V35.88H157.677V19.318H155.677ZM156.677 36.88H180.064V34.88H156.677V36.88ZM181.064 35.88V19.318H179.064V35.88H181.064ZM181.064 19.318C181.064 16.9964 180.886 15.1823 180.461 13.9802L178.575 14.6458C178.879 15.5063 179.064 17.0289 179.064 19.318H181.064ZM180.478 14.0308C180.09 12.7111 179.236 11.7627 177.958 11.2837L177.256 13.1563C177.92 13.4053 178.34 13.8523 178.559 14.5952L180.478 14.0308ZM177.979 11.2915C176.912 10.8648 175.321 10.6163 173.3 10.4938L173.179 12.4902C175.162 12.6103 176.483 12.8472 177.236 13.1485L177.979 11.2915ZM174.239 11.492V9.672H172.239V11.492H174.239ZM173.186 10.6706C176.61 10.854 181.393 10.945 187.526 10.945V8.945C181.405 8.945 176.664 8.85401 173.293 8.67343L173.186 10.6706ZM187.526 10.945C193.596 10.945 198.052 10.8541 200.877 10.6699L200.747 8.67412C197.991 8.85385 193.59 8.945 187.526 8.945V10.945ZM199.812 9.672V11.492H201.812V9.672H199.812ZM240.056 11.492L240.115 12.4903L241.056 12.4349V11.492H240.056ZM235.597 12.22L235.226 11.2915L235.226 11.2915L235.597 12.22ZM233.686 14.313L232.743 13.9802L232.734 14.0053L232.727 14.0308L233.686 14.313ZM233.686 60.359L232.727 60.6412L232.734 60.6667L232.743 60.6918L233.686 60.359ZM235.597 62.452L235.968 61.5235L235.968 61.5235L235.597 62.452ZM240.056 63.18H241.056V62.2371L240.115 62.1817L240.056 63.18ZM240.056 65L239.997 65.9983L241.056 66.0606V65H240.056ZM212.483 65H211.483V66.0618L212.543 65.9982L212.483 65ZM212.483 63.18L212.424 62.1817L211.483 62.2371V63.18H212.483ZM216.942 62.452L217.313 63.3805L217.313 63.3805L216.942 62.452ZM218.762 60.359L217.819 60.0262L217.81 60.0513L217.803 60.0768L218.762 60.359ZM218.762 14.313L217.803 14.5952L217.81 14.6207L217.819 14.6458L218.762 14.313ZM216.851 12.22L216.48 13.1485L216.49 13.1525L216.5 13.1563L216.851 12.22ZM212.483 11.492H211.483V12.4332L212.423 12.4902L212.483 11.492ZM212.483 9.672L212.544 8.67387L211.483 8.6089V9.672H212.483ZM240.056 9.672H241.056V8.61144L239.997 8.67372L240.056 9.672ZM239.997 10.4937C237.919 10.616 236.295 10.8638 235.226 11.2915L235.968 13.1485C236.719 12.8482 238.068 12.6107 240.115 12.4903L239.997 10.4937ZM235.226 11.2915C234.015 11.7756 233.191 12.7124 232.743 13.9802L234.629 14.6458C234.91 13.8509 235.359 13.3924 235.968 13.1485L235.226 11.2915ZM232.727 14.0308C232.38 15.2091 232.231 17.0005 232.231 19.318H234.231C234.231 17.0248 234.385 15.4795 234.645 14.5952L232.727 14.0308ZM232.231 19.318V55.354H234.231V19.318H232.231ZM232.231 55.354C232.231 57.6715 232.38 59.4629 232.727 60.6412L234.645 60.0768C234.385 59.1925 234.231 57.6472 234.231 55.354H232.231ZM232.743 60.6918C233.191 61.9596 234.015 62.8964 235.226 63.3805L235.968 61.5235C235.359 61.2796 234.91 60.8211 234.629 60.0262L232.743 60.6918ZM235.226 63.3805C236.295 63.8082 237.919 64.056 239.997 64.1783L240.115 62.1817C238.068 62.0613 236.719 61.8238 235.968 61.5235L235.226 63.3805ZM239.056 63.18V65H241.056V63.18H239.056ZM240.115 64.0017C236.991 63.818 232.478 63.727 226.588 63.727V65.727C232.467 65.727 236.933 65.818 239.997 65.9983L240.115 64.0017ZM226.588 63.727C220.215 63.727 215.488 63.8179 212.423 64.0018L212.543 65.9982C215.545 65.8181 220.221 65.727 226.588 65.727V63.727ZM213.483 65V63.18H211.483V65H213.483ZM212.542 64.1783C214.62 64.056 216.244 63.8082 217.313 63.3805L216.571 61.5235C215.82 61.8238 214.471 62.0613 212.424 62.1817L212.542 64.1783ZM217.313 63.3805C218.538 62.8905 219.341 61.9341 219.721 60.6412L217.803 60.0768C217.576 60.8466 217.166 61.2855 216.571 61.5235L217.313 63.3805ZM219.705 60.6918C220.129 59.4897 220.308 57.6756 220.308 55.354H218.308C218.308 57.6431 218.123 59.1657 217.819 60.0262L219.705 60.6918ZM220.308 55.354V19.318H218.308V55.354H220.308ZM220.308 19.318C220.308 16.9964 220.129 15.1823 219.705 13.9802L217.819 14.6458C218.123 15.5063 218.308 17.0289 218.308 19.318H220.308ZM219.721 14.0308C219.333 12.7111 218.48 11.7627 217.202 11.2837L216.5 13.1563C217.164 13.4053 217.584 13.8523 217.803 14.5952L219.721 14.0308ZM217.222 11.2915C216.156 10.8648 214.565 10.6163 212.544 10.4938L212.423 12.4902C214.405 12.6103 215.726 12.8472 216.48 13.1485L217.222 11.2915ZM213.483 11.492V9.672H211.483V11.492H213.483ZM212.422 10.6701C215.427 10.8541 220.155 10.945 226.588 10.945V8.945C220.16 8.945 215.484 8.85387 212.544 8.67387L212.422 10.6701ZM226.588 10.945C232.478 10.945 236.991 10.854 240.115 10.6703L239.997 8.67372C236.933 8.85397 232.467 8.945 226.588 8.945V10.945ZM239.056 9.672V11.492H241.056V9.672H239.056ZM299.852 65L299.805 65.9989L300.957 66.0521L300.847 64.9045L299.852 65ZM251.713 65H250.713V66.0293L251.741 65.9996L251.713 65ZM251.713 63.18L251.654 62.1817L250.713 62.2371V63.18H251.713ZM256.172 62.452L256.543 63.3805L256.543 63.3805L256.172 62.452ZM257.992 60.359L257.049 60.0262L257.04 60.0513L257.032 60.0768L257.992 60.359ZM257.992 14.313L257.032 14.5952L257.04 14.6207L257.049 14.6458L257.992 14.313ZM256.081 12.22L255.709 13.1485L255.719 13.1525L255.729 13.1563L256.081 12.22ZM251.713 11.492H250.713V12.4332L251.652 12.4902L251.713 11.492ZM251.713 9.672L251.741 8.67241L250.713 8.64273V9.672H251.713ZM298.032 9.672L299.026 9.77591L299.148 8.61396L297.981 8.67329L298.032 9.672ZM297.668 26.234V27.234H298.807L298.659 26.1047L297.668 26.234ZM295.575 26.234L294.589 26.4058L294.734 27.234H295.575V26.234ZM290.843 15.132L290.135 15.8392L290.145 15.8487L290.843 15.132ZM274.645 12.22L274.939 13.1758L274.972 13.1657L275.004 13.1533L274.645 12.22ZM272.916 13.858L271.996 13.4641L271.989 13.4814L271.982 13.499L272.916 13.858ZM272.461 36.244H271.461V37.244H272.461V36.244ZM283.017 33.332L282.208 32.7438L282.205 32.7484L283.017 33.332ZM285.929 26.416V25.416H285.097L284.945 26.2331L285.929 26.416ZM288.022 26.416L289.018 26.5039L289.114 25.416H288.022V26.416ZM288.295 47.892V48.892H289.38L289.291 47.8101L288.295 47.892ZM286.202 47.892L285.213 48.0393L285.339 48.892H286.202V47.892ZM283.29 40.885L282.499 41.4972L282.51 41.5114L282.521 41.5252L283.29 40.885ZM272.461 38.064V37.064H271.461V38.064H272.461ZM272.916 60.905L271.974 61.2413L271.989 61.2835L272.008 61.3241L272.916 60.905ZM274.645 62.543L274.286 63.4763L274.318 63.4887L274.351 63.4988L274.645 62.543ZM292.208 59.176L291.5 58.4688L291.492 58.4777L292.208 59.176ZM297.395 46.618V45.618H296.546L296.408 46.4553L297.395 46.618ZM299.488 46.618L300.482 46.7245L300.6 45.618H299.488V46.618ZM298.215 53.17C298.215 56.6674 298.429 60.6435 298.856 65.0955L300.847 64.9045C300.425 60.4991 300.215 56.5886 300.215 53.17H298.215ZM299.898 64.0011C295.929 63.8179 289.266 63.727 279.923 63.727V65.727C289.265 65.727 295.887 65.8181 299.805 65.9989L299.898 64.0011ZM279.923 63.727C267.423 63.727 258.008 63.818 251.684 64.0004L251.741 65.9996C258.036 65.818 267.428 65.727 279.923 65.727V63.727ZM252.713 65V63.18H250.713V65H252.713ZM251.771 64.1783C253.85 64.056 255.474 63.8082 256.543 63.3805L255.8 61.5235C255.05 61.8238 253.701 62.0613 251.654 62.1817L251.771 64.1783ZM256.543 63.3805C257.768 62.8905 258.571 61.9341 258.951 60.6412L257.032 60.0768C256.806 60.8466 256.395 61.2855 255.8 61.5235L256.543 63.3805ZM258.935 60.6918C259.359 59.4897 259.538 57.6756 259.538 55.354H257.538C257.538 57.6431 257.352 59.1657 257.049 60.0262L258.935 60.6918ZM259.538 55.354V19.318H257.538V55.354H259.538ZM259.538 19.318C259.538 16.9964 259.359 15.1823 258.935 13.9802L257.049 14.6458C257.352 15.5063 257.538 17.0289 257.538 19.318H259.538ZM258.951 14.0308C258.563 12.7111 257.709 11.7627 256.432 11.2837L255.729 13.1563C256.393 13.4053 256.814 13.8523 257.032 14.5952L258.951 14.0308ZM256.452 11.2915C255.385 10.8648 253.794 10.6163 251.773 10.4938L251.652 12.4902C253.635 12.6103 254.956 12.8472 255.709 13.1485L256.452 11.2915ZM252.713 11.492V9.672H250.713V11.492H252.713ZM251.684 10.6716C258.008 10.854 267.423 10.945 279.923 10.945V8.945C267.428 8.945 258.036 8.85398 251.741 8.67241L251.684 10.6716ZM279.923 10.945C288.416 10.945 294.475 10.8541 298.082 10.6707L297.981 8.67329C294.429 8.85387 288.416 8.945 279.923 8.945V10.945ZM297.037 9.56808C296.61 13.6585 296.395 17.3342 296.395 20.592H298.395C298.395 17.4192 298.604 13.8148 299.026 9.77591L297.037 9.56808ZM296.395 20.592C296.395 22.9764 296.486 24.906 296.676 26.3633L298.659 26.1047C298.485 24.7713 298.395 22.9396 298.395 20.592H296.395ZM297.668 25.234H295.575V27.234H297.668V25.234ZM296.56 26.0622C295.636 20.7665 294.008 16.8167 291.54 14.4153L290.145 15.8487C292.166 17.8153 293.693 21.2668 294.589 26.4058L296.56 26.0622ZM291.55 14.4249C289.074 11.9495 285.701 10.765 281.561 10.765V12.765C285.307 12.765 288.122 13.8251 290.135 15.8391L291.55 14.4249ZM281.561 10.765H278.194V12.765H281.561V10.765ZM278.194 10.765C276.581 10.765 275.249 10.9161 274.286 11.2867L275.004 13.1533C275.617 12.9172 276.652 12.765 278.194 12.765V10.765ZM274.351 11.2642C273.245 11.6043 272.461 12.3811 271.996 13.4641L273.835 14.2519C274.099 13.6362 274.466 13.3211 274.939 13.1758L274.351 11.2642ZM271.982 13.499C271.609 14.4701 271.461 15.9016 271.461 17.68H273.461C273.461 15.9397 273.616 14.8232 273.849 14.217L271.982 13.499ZM271.461 17.68V36.244H273.461V17.68H271.461ZM272.461 37.244H276.738V35.244H272.461V37.244ZM276.738 37.244C279.789 37.244 282.212 36.1646 283.829 33.9156L282.205 32.7484C281.03 34.382 279.268 35.244 276.738 35.244V37.244ZM283.825 33.9202C285.375 31.7892 286.401 29.3432 286.912 26.5989L284.945 26.2331C284.485 28.7061 283.57 30.8708 282.208 32.7438L283.825 33.9202ZM285.929 27.416H288.022V25.416H285.929V27.416ZM287.025 26.3281C286.84 28.4269 286.749 30.8232 286.749 33.514H288.749C288.749 30.8661 288.839 28.5304 289.018 26.5039L287.025 26.3281ZM286.749 33.514V37.154H288.749V33.514H286.749ZM286.749 37.154C286.749 39.9229 286.933 43.5326 287.298 47.9739L289.291 47.8101C288.928 43.3941 288.749 39.8451 288.749 37.154H286.749ZM288.295 46.892H286.202V48.892H288.295V46.892ZM287.191 47.7447C286.745 44.7513 285.715 42.2335 284.058 40.2448L282.521 41.5252C283.897 43.1765 284.809 45.33 285.213 48.0393L287.191 47.7447ZM284.08 40.2728C282.392 38.0924 279.882 37.064 276.738 37.064V39.064C279.417 39.064 281.275 39.9162 282.499 41.4972L284.08 40.2728ZM276.738 37.064H272.461V39.064H276.738V37.064ZM271.461 38.064V56.992H273.461V38.064H271.461ZM271.461 56.992C271.461 58.7784 271.611 60.2245 271.974 61.2413L273.857 60.5687C273.614 59.8869 273.461 58.7243 273.461 56.992H271.461ZM272.008 61.3241C272.477 62.3417 273.247 63.0767 274.286 63.4763L275.004 61.6097C274.465 61.4026 274.082 61.0456 273.824 60.4859L272.008 61.3241ZM274.351 63.4988C275.286 63.7865 276.59 63.907 278.194 63.907V61.907C276.643 61.907 275.581 61.7848 274.939 61.5872L274.351 63.4988ZM278.194 63.907H282.107V61.907H278.194V63.907ZM282.107 63.907C286.615 63.907 290.265 62.5987 292.923 59.8743L291.492 58.4777C289.296 60.728 286.213 61.907 282.107 61.907V63.907ZM292.915 59.8831C295.621 57.1767 297.398 52.7427 298.381 46.7807L296.408 46.4553C295.45 52.2626 293.769 56.2006 291.5 58.4689L292.915 59.8831ZM297.395 47.618H299.488V45.618H297.395V47.618ZM298.493 46.5115C298.306 48.2594 298.215 50.4825 298.215 53.17H300.215C300.215 50.5189 300.305 48.374 300.482 46.7245L298.493 46.5115ZM366.781 9.672H367.781V8.56321L366.678 8.6773L366.781 9.672ZM366.781 11.492L367.14 12.4253L367.781 12.1788V11.492H366.781ZM362.413 15.041L363.2 15.6588L363.205 15.6521L363.21 15.6454L362.413 15.041ZM358.227 22.685L357.308 22.2911L357.305 22.298L358.227 22.685ZM340.391 65.182L340.267 66.1743L341.02 66.2684L341.313 65.569L340.391 65.182ZM336.205 65.182L335.3 65.6071L335.609 66.2643L336.329 66.1743L336.205 65.182ZM313.728 17.316L312.823 17.7397L312.823 17.741L313.728 17.316ZM307.995 11.492H306.995V12.4349L307.937 12.4903L307.995 11.492ZM307.995 9.672L308.059 8.67403L306.995 8.60613V9.672H307.995ZM334.294 9.672H335.294V8.61144L334.236 8.67372L334.294 9.672ZM334.294 11.492L334.355 12.4902L335.294 12.4332V11.492H334.294ZM329.835 12.493L330.283 13.3874L330.304 13.3765L330.326 13.3646L329.835 12.493ZM329.562 19.136L330.471 18.7181L330.467 18.7101L330.463 18.7022L329.562 19.136ZM344.213 50.986L343.305 51.4039L344.244 53.4463L345.132 51.3809L344.213 50.986ZM353.404 29.601L354.323 29.9959L354.328 29.9848L353.404 29.601ZM348.945 11.492H347.945V12.4556L348.908 12.4913L348.945 11.492ZM348.945 9.672L348.998 8.67338L347.945 8.61798V9.672H348.945ZM360.138 10.945C362.827 10.945 365.078 10.8535 366.884 10.6667L366.678 8.6773C364.966 8.85448 362.789 8.945 360.138 8.945V10.945ZM365.781 9.672V11.492H367.781V9.672H365.781ZM366.422 10.5587C364.626 11.2497 363.03 12.5736 361.617 14.4366L363.21 15.6454C364.466 13.9897 365.782 12.9476 367.14 12.4253L366.422 10.5587ZM361.627 14.4232C360.214 16.222 358.778 18.8617 357.308 22.2911L359.147 23.0789C360.589 19.7136 361.944 17.2573 363.2 15.6588L361.627 14.4232ZM357.305 22.298L339.469 64.795L341.313 65.569L359.149 23.072L357.305 22.298ZM340.515 64.1897C339.968 64.1213 339.221 64.091 338.298 64.091V66.091C339.196 66.091 339.844 66.1214 340.267 66.1743L340.515 64.1897ZM338.298 64.091C337.376 64.091 336.629 64.1213 336.081 64.1897L336.329 66.1743C336.753 66.1214 337.401 66.091 338.298 66.091V64.091ZM337.111 64.7569L314.634 16.8909L312.823 17.741L335.3 65.6071L337.111 64.7569ZM314.634 16.8923C313.729 14.9569 312.754 13.4199 311.688 12.3375C310.616 11.2477 309.403 10.5731 308.054 10.4937L307.937 12.4903C308.651 12.5323 309.425 12.8889 310.263 13.7405C311.108 14.5994 311.968 15.9137 312.823 17.7397L314.634 16.8923ZM308.995 11.492V9.672H306.995V11.492H308.995ZM307.932 10.67C310.814 10.854 314.813 10.945 319.916 10.945V8.945C314.828 8.945 310.879 8.85402 308.059 8.67403L307.932 10.67ZM319.916 10.945C326.411 10.945 331.228 10.8541 334.353 10.6703L334.236 8.67372C331.173 8.8539 326.404 8.945 319.916 8.945V10.945ZM333.294 9.672V11.492H335.294V9.672H333.294ZM334.234 10.4938C332.183 10.6181 330.515 10.9636 329.345 11.6214L330.326 13.3646C331.097 12.9304 332.401 12.6086 334.355 12.4902L334.234 10.4938ZM329.388 11.5986C328.756 11.9148 328.237 12.3645 327.883 12.9614C327.531 13.5549 327.379 14.2321 327.379 14.95H329.379C329.379 14.5152 329.47 14.2066 329.604 13.9811C329.735 13.759 329.944 13.5566 330.283 13.3874L329.388 11.5986ZM327.379 14.95C327.379 16.3149 327.841 17.8664 328.661 19.5698L330.463 18.7022C329.706 17.1296 329.379 15.8905 329.379 14.95H327.379ZM328.654 19.5539L343.305 51.4039L345.122 50.5681L330.471 18.7181L328.654 19.5539ZM345.132 51.3809L354.323 29.9959L352.486 29.2061L343.295 50.5911L345.132 51.3809ZM354.328 29.9848C356.285 25.2745 357.316 21.3973 357.316 18.408H355.316C355.316 21 354.406 24.5848 352.481 29.2172L354.328 29.9848ZM357.316 18.408C357.316 16.0085 356.646 14.0244 355.158 12.6282C353.688 11.2487 351.572 10.5886 348.982 10.4927L348.908 12.4913C351.233 12.5774 352.803 13.1609 353.789 14.0868C354.758 14.996 355.316 16.3788 355.316 18.408H357.316ZM349.945 11.492V9.672H347.945V11.492H349.945ZM348.893 10.6706C352.371 10.8537 356.119 10.945 360.138 10.945V8.945C356.149 8.945 352.436 8.85433 348.998 8.67338L348.893 10.6706ZM422.833 65L422.787 65.9989L423.939 66.0521L423.829 64.9045L422.833 65ZM374.694 65H373.694V66.0293L374.723 65.9996L374.694 65ZM374.694 63.18L374.635 62.1817L373.694 62.2371V63.18H374.694ZM379.153 62.452L379.525 63.3805L379.525 63.3805L379.153 62.452ZM380.973 60.359L380.03 60.0262L380.021 60.0513L380.014 60.0768L380.973 60.359ZM380.973 14.313L380.014 14.5952L380.021 14.6207L380.03 14.6458L380.973 14.313ZM379.062 12.22L378.691 13.1485L378.701 13.1525L378.711 13.1563L379.062 12.22ZM374.694 11.492H373.694V12.4332L374.634 12.4902L374.694 11.492ZM374.694 9.672L374.723 8.67241L373.694 8.64273V9.672H374.694ZM421.013 9.672L422.008 9.77591L422.129 8.61396L420.962 8.67329L421.013 9.672ZM420.649 26.234V27.234H421.788L421.641 26.1047L420.649 26.234ZM418.556 26.234L417.571 26.4058L417.715 27.234H418.556V26.234ZM413.824 15.132L413.117 15.8392L413.127 15.8487L413.824 15.132ZM397.626 12.22L397.92 13.1758L397.953 13.1657L397.985 13.1533L397.626 12.22ZM395.897 13.858L394.978 13.4641L394.971 13.4814L394.964 13.499L395.897 13.858ZM395.442 36.244H394.442V37.244H395.442V36.244ZM405.998 33.332L405.189 32.7438L405.186 32.7484L405.998 33.332ZM408.91 26.416V25.416H408.079L407.927 26.2331L408.91 26.416ZM411.003 26.416L411.999 26.5039L412.095 25.416H411.003V26.416ZM411.276 47.892V48.892H412.362L412.273 47.8101L411.276 47.892ZM409.183 47.892L408.194 48.0393L408.321 48.892H409.183V47.892ZM406.271 40.885L405.48 41.4972L405.491 41.5114L405.503 41.5252L406.271 40.885ZM395.442 38.064V37.064H394.442V38.064H395.442ZM395.897 60.905L394.955 61.2413L394.97 61.2835L394.989 61.3241L395.897 60.905ZM397.626 62.543L397.267 63.4763L397.299 63.4887L397.332 63.4988L397.626 62.543ZM415.189 59.176L414.482 58.4688L414.473 58.4777L415.189 59.176ZM420.376 46.618V45.618H419.528L419.389 46.4553L420.376 46.618ZM422.469 46.618L423.463 46.7245L423.582 45.618H422.469V46.618ZM421.196 53.17C421.196 56.6674 421.411 60.6435 421.838 65.0955L423.829 64.9045C423.406 60.4991 423.196 56.5886 423.196 53.17H421.196ZM422.879 64.0011C418.911 63.8179 412.247 63.727 402.904 63.727V65.727C412.246 65.727 418.869 65.8181 422.787 65.9989L422.879 64.0011ZM402.904 63.727C390.405 63.727 380.99 63.818 374.665 64.0004L374.723 65.9996C381.017 65.818 390.409 65.727 402.904 65.727V63.727ZM375.694 65V63.18H373.694V65H375.694ZM374.753 64.1783C376.831 64.056 378.455 63.8082 379.525 63.3805L378.782 61.5235C378.031 61.8238 376.683 62.0613 374.635 62.1817L374.753 64.1783ZM379.525 63.3805C380.749 62.8905 381.552 61.9341 381.932 60.6412L380.014 60.0768C379.787 60.8466 379.377 61.2855 378.782 61.5235L379.525 63.3805ZM381.916 60.6918C382.34 59.4897 382.519 57.6756 382.519 55.354H380.519C380.519 57.6431 380.334 59.1657 380.03 60.0262L381.916 60.6918ZM382.519 55.354V19.318H380.519V55.354H382.519ZM382.519 19.318C382.519 16.9964 382.34 15.1823 381.916 13.9802L380.03 14.6458C380.334 15.5063 380.519 17.0289 380.519 19.318H382.519ZM381.932 14.0308C381.544 12.7111 380.691 11.7627 379.413 11.2837L378.711 13.1563C379.375 13.4053 379.795 13.8523 380.014 14.5952L381.932 14.0308ZM379.434 11.2915C378.367 10.8648 376.776 10.6163 374.755 10.4938L374.634 12.4902C376.616 12.6103 377.937 12.8472 378.691 13.1485L379.434 11.2915ZM375.694 11.492V9.672H373.694V11.492H375.694ZM374.665 10.6716C380.99 10.854 390.405 10.945 402.904 10.945V8.945C390.409 8.945 381.017 8.85398 374.723 8.67241L374.665 10.6716ZM402.904 10.945C411.398 10.945 417.457 10.8541 421.064 10.6707L420.962 8.67329C417.411 8.85387 411.397 8.945 402.904 8.945V10.945ZM420.019 9.56808C419.591 13.6585 419.376 17.3342 419.376 20.592H421.376C421.376 17.4192 421.586 13.8148 422.008 9.77591L420.019 9.56808ZM419.376 20.592C419.376 22.9764 419.467 24.906 419.658 26.3633L421.641 26.1047C421.467 24.7713 421.376 22.9396 421.376 20.592H419.376ZM420.649 25.234H418.556V27.234H420.649V25.234ZM419.541 26.0622C418.618 20.7665 416.99 16.8167 414.521 14.4153L413.127 15.8487C415.148 17.8153 416.675 21.2668 417.571 26.4058L419.541 26.0622ZM414.531 14.4249C412.056 11.9495 408.683 10.765 404.542 10.765V12.765C408.288 12.765 411.103 13.8251 413.117 15.8391L414.531 14.4249ZM404.542 10.765H401.175V12.765H404.542V10.765ZM401.175 10.765C399.563 10.765 398.231 10.9161 397.267 11.2867L397.985 13.1533C398.599 12.9172 399.633 12.765 401.175 12.765V10.765ZM397.332 11.2642C396.227 11.6043 395.442 12.3811 394.978 13.4641L396.816 14.2519C397.08 13.6362 397.448 13.3211 397.92 13.1758L397.332 11.2642ZM394.964 13.499C394.59 14.4701 394.442 15.9016 394.442 17.68H396.442C396.442 15.9397 396.597 14.8232 396.83 14.217L394.964 13.499ZM394.442 17.68V36.244H396.442V17.68H394.442ZM395.442 37.244H399.719V35.244H395.442V37.244ZM399.719 37.244C402.77 37.244 405.194 36.1646 406.81 33.9156L405.186 32.7484C404.012 34.382 402.249 35.244 399.719 35.244V37.244ZM406.807 33.9202C408.357 31.7892 409.383 29.3432 409.893 26.5989L407.927 26.2331C407.467 28.7061 406.552 30.8708 405.189 32.7438L406.807 33.9202ZM408.91 27.416H411.003V25.416H408.91V27.416ZM410.007 26.3281C409.822 28.4269 409.73 30.8232 409.73 33.514H411.73C411.73 30.8661 411.82 28.5304 411.999 26.5039L410.007 26.3281ZM409.73 33.514V37.154H411.73V33.514H409.73ZM409.73 37.154C409.73 39.9229 409.914 43.5326 410.279 47.9739L412.273 47.8101C411.91 43.3941 411.73 39.8451 411.73 37.154H409.73ZM411.276 46.892H409.183V48.892H411.276V46.892ZM410.172 47.7447C409.726 44.7513 408.697 42.2335 407.039 40.2448L405.503 41.5252C406.879 43.1765 407.791 45.33 408.194 48.0393L410.172 47.7447ZM407.062 40.2728C405.374 38.0924 402.863 37.064 399.719 37.064V39.064C402.399 39.064 404.256 39.9162 405.48 41.4972L407.062 40.2728ZM399.719 37.064H395.442V39.064H399.719V37.064ZM394.442 38.064V56.992H396.442V38.064H394.442ZM394.442 56.992C394.442 58.7784 394.592 60.2245 394.955 61.2413L396.839 60.5687C396.595 59.8869 396.442 58.7243 396.442 56.992H394.442ZM394.989 61.3241C395.459 62.3417 396.228 63.0767 397.267 63.4763L397.985 61.6097C397.447 61.4026 397.063 61.0456 396.805 60.4859L394.989 61.3241ZM397.332 63.4988C398.267 63.7865 399.571 63.907 401.175 63.907V61.907C399.624 61.907 398.562 61.7848 397.92 61.5872L397.332 63.4988ZM401.175 63.907H405.088V61.907H401.175V63.907ZM405.088 63.907C409.596 63.907 413.247 62.5987 415.905 59.8743L414.473 58.4777C412.278 60.728 409.195 61.907 405.088 61.907V63.907ZM415.896 59.8831C418.603 57.1767 420.379 52.7427 421.363 46.7807L419.389 46.4553C418.432 52.2626 416.75 56.2006 414.482 58.4689L415.896 59.8831ZM420.376 47.618H422.469V45.618H420.376V47.618ZM421.475 46.5115C421.288 48.2594 421.196 50.4825 421.196 53.17H423.196C423.196 50.5189 423.287 48.374 423.463 46.7245L421.475 46.5115ZM509.954 11.492L510.01 12.4905L510.954 12.438V11.492H509.954ZM505.131 12.22L504.798 11.277L504.789 11.2802L504.78 11.2837L505.131 12.22ZM503.129 14.313L502.186 13.9802L502.186 13.9802L503.129 14.313ZM503.129 60.359L502.186 60.6918L502.186 60.6918L503.129 60.359ZM505.131 62.452L504.78 63.3883L504.789 63.3917L504.798 63.395L505.131 62.452ZM509.954 63.18H510.954V62.234L510.01 62.1815L509.954 63.18ZM509.954 65L509.899 65.9985L510.954 66.0571V65H509.954ZM480.743 65H479.743V66.0571L480.799 65.9985L480.743 65ZM480.743 63.18L480.688 62.1815L479.743 62.234V63.18H480.743ZM485.475 62.452L485.142 61.509L485.133 61.5123L485.124 61.5157L485.475 62.452ZM487.568 60.359L486.625 60.0262L487.568 60.359ZM488.114 15.405H489.114L487.191 15.0206L488.114 15.405ZM467.275 65.455V66.455H467.942L468.198 65.8394L467.275 65.455ZM465.819 65.455L464.898 65.8443L465.156 66.455H465.819V65.455ZM444.707 15.496L445.628 15.1067L443.707 15.496H444.707ZM445.435 58.903L444.491 59.2316L444.495 59.2447L445.435 58.903ZM448.074 61.815L447.644 62.7179L447.652 62.7217L447.66 62.7254L448.074 61.815ZM454.08 63.18H455.08V62.2872L454.193 62.1864L454.08 63.18ZM454.08 65L454.011 65.9976L455.08 66.0722V65H454.08ZM435.789 65H434.789V66.0981L435.883 65.9956L435.789 65ZM435.789 63.18L435.639 62.1913L434.789 62.3201V63.18H435.789ZM440.157 61.815L439.627 60.967L439.615 60.9748L439.603 60.9829L440.157 61.815ZM442.068 58.903L441.103 58.6399L441.098 58.6605L441.093 58.6814L442.068 58.903ZM442.068 14.313L443.011 13.9802L443.011 13.9802L442.068 14.313ZM439.975 12.22L439.624 13.1563L439.633 13.1597L439.642 13.163L439.975 12.22ZM435.243 11.492H434.243V12.438L435.188 12.4905L435.243 11.492ZM435.243 9.672L435.301 8.67366L434.243 8.61264V9.672H435.243ZM457.811 9.672L458.735 9.28787L458.455 8.6165L457.73 8.67527L457.811 9.672ZM472.917 45.981L471.994 46.3651L472.911 48.5693L473.839 46.3696L472.917 45.981ZM488.114 9.945V8.945H487.451L487.193 9.55642L488.114 9.945ZM509.954 9.672H510.954V8.6149L509.899 8.67354L509.954 9.672ZM509.899 10.4935C507.695 10.616 505.969 10.8637 504.798 11.277L505.464 13.163C506.356 12.8483 507.846 12.6107 510.01 12.4905L509.899 10.4935ZM504.78 11.2837C503.516 11.7578 502.642 12.6876 502.186 13.9802L504.072 14.6458C504.344 13.8757 504.805 13.4102 505.482 13.1563L504.78 11.2837ZM502.186 13.9802C501.762 15.1823 501.583 16.9964 501.583 19.318H503.583C503.583 17.0289 503.769 15.5063 504.072 14.6458L502.186 13.9802ZM501.583 19.318V55.354H503.583V19.318H501.583ZM501.583 55.354C501.583 57.6756 501.762 59.4897 502.186 60.6918L504.072 60.0262C503.769 59.1657 503.583 57.6431 503.583 55.354H501.583ZM502.186 60.6918C502.642 61.9844 503.516 62.9142 504.78 63.3883L505.482 61.5157C504.805 61.2618 504.344 60.7963 504.072 60.0262L502.186 60.6918ZM504.798 63.395C505.969 63.8083 507.695 64.056 509.899 64.1785L510.01 62.1815C507.846 62.0613 506.356 61.8237 505.464 61.509L504.798 63.395ZM508.954 63.18V65H510.954V63.18H508.954ZM510.01 64.0015C506.706 63.818 502.104 63.727 496.213 63.727V65.727C502.091 65.727 506.65 65.818 509.899 65.9985L510.01 64.0015ZM496.213 63.727C489.173 63.727 483.993 63.8179 480.688 64.0015L480.799 65.9985C484.045 65.8181 489.178 65.727 496.213 65.727V63.727ZM481.743 65V63.18H479.743V65H481.743ZM480.799 64.1785C482.997 64.0563 484.704 63.8091 485.826 63.3883L485.124 61.5157C484.305 61.8229 482.857 62.061 480.688 62.1815L480.799 64.1785ZM485.808 63.395C487.125 62.9303 488.047 62.0083 488.511 60.6918L486.625 60.0262C486.362 60.7723 485.889 61.2457 485.142 61.509L485.808 63.395ZM488.511 60.6918C488.936 59.4897 489.114 57.6756 489.114 55.354H487.114C487.114 57.6431 486.929 59.1657 486.625 60.0262L488.511 60.6918ZM489.114 55.354V15.405H487.114V55.354H489.114ZM487.191 15.0206L466.352 65.0706L468.198 65.8394L489.037 15.7894L487.191 15.0206ZM467.275 64.455H465.819V66.455H467.275V64.455ZM466.74 65.0657L445.628 15.1067L443.786 15.8853L464.898 65.8443L466.74 65.0657ZM443.707 15.496V52.806H445.707V15.496H443.707ZM443.707 52.806C443.707 55.5122 443.95 57.6775 444.491 59.2315L446.38 58.5745C445.95 57.3378 445.707 55.4385 445.707 52.806H443.707ZM444.495 59.2447C445.07 60.8243 446.132 61.9975 447.644 62.7179L448.504 60.9121C447.469 60.4192 446.771 59.651 446.375 58.5613L444.495 59.2447ZM447.66 62.7254C449.139 63.3975 451.265 63.8666 453.967 64.1736L454.193 62.1864C451.556 61.8868 449.679 61.4459 448.488 60.9046L447.66 62.7254ZM453.08 63.18V65H455.08V63.18H453.08ZM454.15 64.0024C451.508 63.8181 448.024 63.727 443.706 63.727V65.727C448.003 65.727 451.435 65.8179 454.011 65.9976L454.15 64.0024ZM443.706 63.727C440.357 63.727 437.682 63.8181 435.696 64.0044L435.883 65.9956C437.779 65.8179 440.382 65.727 443.706 65.727V63.727ZM436.789 65V63.18H434.789V65H436.789ZM435.939 64.1687C437.983 63.859 439.616 63.3777 440.712 62.6471L439.603 60.9829C438.878 61.4657 437.599 61.8943 435.639 62.1913L435.939 64.1687ZM440.687 62.663C441.927 61.888 442.693 60.6645 443.043 59.1246L441.093 58.6814C440.836 59.8108 440.329 60.5286 439.627 60.967L440.687 62.663ZM443.033 59.1661C443.433 57.6982 443.614 55.5563 443.614 52.806H441.614C441.614 55.5157 441.431 57.4385 441.103 58.6399L443.033 59.1661ZM443.614 52.806V19.318H441.614V52.806H443.614ZM443.614 19.318C443.614 16.9964 443.436 15.1823 443.011 13.9802L441.125 14.6458C441.429 15.5063 441.614 17.0289 441.614 19.318H443.614ZM443.011 13.9802C442.547 12.6637 441.625 11.7417 440.308 11.277L439.642 13.163C440.389 13.4263 440.862 13.8997 441.125 14.6458L443.011 13.9802ZM440.326 11.2837C439.204 10.8629 437.497 10.6157 435.299 10.4935L435.188 12.4905C437.357 12.611 438.805 12.8491 439.624 13.1563L440.326 11.2837ZM436.243 11.492V9.672H434.243V11.492H436.243ZM435.186 10.6703C438.37 10.8541 443.217 10.945 449.712 10.945V8.945C443.225 8.945 438.425 8.85392 435.301 8.67366L435.186 10.6703ZM449.712 10.945C452.884 10.945 455.612 10.8536 457.892 10.6687L457.73 8.67527C455.521 8.85442 452.85 8.945 449.712 8.945V10.945ZM456.888 10.0561L471.994 46.3651L473.841 45.5969L458.735 9.28787L456.888 10.0561ZM473.839 46.3696L489.036 10.3336L487.193 9.55642L471.996 45.5924L473.839 46.3696ZM488.114 10.945H496.213V8.945H488.114V10.945ZM496.213 10.945C502.104 10.945 506.706 10.854 510.01 10.6705L509.899 8.67354C506.65 8.85401 502.091 8.945 496.213 8.945V10.945ZM508.954 9.672V11.492H510.954V9.672H508.954ZM569.453 65L569.407 65.9989L570.559 66.0521L570.449 64.9045L569.453 65ZM521.314 65H520.314V66.0293L521.343 65.9996L521.314 65ZM521.314 63.18L521.256 62.1817L520.314 62.2371V63.18H521.314ZM525.773 62.452L526.145 63.3805L526.145 63.3805L525.773 62.452ZM527.593 60.359L526.65 60.0262L526.641 60.0513L526.634 60.0768L527.593 60.359ZM527.593 14.313L526.634 14.5952L526.641 14.6207L526.65 14.6458L527.593 14.313ZM525.682 12.22L525.311 13.1485L525.321 13.1525L525.331 13.1563L525.682 12.22ZM521.314 11.492H520.314V12.4332L521.254 12.4902L521.314 11.492ZM521.314 9.672L521.343 8.67241L520.314 8.64273V9.672H521.314ZM567.633 9.672L568.628 9.77591L568.749 8.61396L567.583 8.67329L567.633 9.672ZM567.269 26.234V27.234H568.408L568.261 26.1047L567.269 26.234ZM565.176 26.234L564.191 26.4058L564.336 27.234H565.176V26.234ZM560.444 15.132L559.737 15.8392L559.747 15.8487L560.444 15.132ZM544.246 12.22L544.54 13.1758L544.573 13.1657L544.605 13.1533L544.246 12.22ZM542.517 13.858L541.598 13.4641L541.591 13.4814L541.584 13.499L542.517 13.858ZM542.062 36.244H541.062V37.244H542.062V36.244ZM552.618 33.332L551.81 32.7438L551.806 32.7484L552.618 33.332ZM555.53 26.416V25.416H554.699L554.547 26.2331L555.53 26.416ZM557.623 26.416L558.619 26.5039L558.715 25.416H557.623V26.416ZM557.896 47.892V48.892H558.982L558.893 47.8101L557.896 47.892ZM555.803 47.892L554.814 48.0393L554.941 48.892H555.803V47.892ZM552.891 40.885L552.101 41.4972L552.112 41.5114L552.123 41.5252L552.891 40.885ZM542.062 38.064V37.064H541.062V38.064H542.062ZM542.517 60.905L541.576 61.2413L541.591 61.2835L541.609 61.3241L542.517 60.905ZM544.246 62.543L543.887 63.4763L543.919 63.4887L543.952 63.4988L544.246 62.543ZM561.809 59.176L561.102 58.4688L561.094 58.4777L561.809 59.176ZM566.996 46.618V45.618H566.148L566.01 46.4553L566.996 46.618ZM569.089 46.618L570.084 46.7245L570.202 45.618H569.089V46.618ZM567.816 53.17C567.816 56.6674 568.031 60.6435 568.458 65.0955L570.449 64.9045C570.026 60.4991 569.816 56.5886 569.816 53.17H567.816ZM569.499 64.0011C565.531 63.8179 558.867 63.727 549.524 63.727V65.727C558.867 65.727 565.489 65.8181 569.407 65.9989L569.499 64.0011ZM549.524 63.727C537.025 63.727 527.61 63.818 521.286 64.0004L521.343 65.9996C527.638 65.818 537.029 65.727 549.524 65.727V63.727ZM522.314 65V63.18H520.314V65H522.314ZM521.373 64.1783C523.451 64.056 525.075 63.8082 526.145 63.3805L525.402 61.5235C524.651 61.8238 523.303 62.0613 521.256 62.1817L521.373 64.1783ZM526.145 63.3805C527.37 62.8905 528.172 61.9341 528.553 60.6412L526.634 60.0768C526.408 60.8466 525.997 61.2855 525.402 61.5235L526.145 63.3805ZM528.536 60.6918C528.961 59.4897 529.139 57.6756 529.139 55.354H527.139C527.139 57.6431 526.954 59.1657 526.65 60.0262L528.536 60.6918ZM529.139 55.354V19.318H527.139V55.354H529.139ZM529.139 19.318C529.139 16.9964 528.961 15.1823 528.536 13.9802L526.65 14.6458C526.954 15.5063 527.139 17.0289 527.139 19.318H529.139ZM528.553 14.0308C528.165 12.7111 527.311 11.7627 526.033 11.2837L525.331 13.1563C525.995 13.4053 526.415 13.8523 526.634 14.5952L528.553 14.0308ZM526.054 11.2915C524.987 10.8648 523.396 10.6163 521.375 10.4938L521.254 12.4902C523.237 12.6103 524.558 12.8472 525.311 13.1485L526.054 11.2915ZM522.314 11.492V9.672H520.314V11.492H522.314ZM521.286 10.6716C527.61 10.854 537.025 10.945 549.524 10.945V8.945C537.029 8.945 527.638 8.85398 521.343 8.67241L521.286 10.6716ZM549.524 10.945C558.018 10.945 564.077 10.8541 567.684 10.6707L567.583 8.67329C564.031 8.85387 558.017 8.945 549.524 8.945V10.945ZM566.639 9.56808C566.211 13.6585 565.996 17.3342 565.996 20.592H567.996C567.996 17.4192 568.206 13.8148 568.628 9.77591L566.639 9.56808ZM565.996 20.592C565.996 22.9764 566.088 24.906 566.278 26.3633L568.261 26.1047C568.087 24.7713 567.996 22.9396 567.996 20.592H565.996ZM567.269 25.234H565.176V27.234H567.269V25.234ZM566.161 26.0622C565.238 20.7665 563.61 16.8167 561.142 14.4153L559.747 15.8487C561.768 17.8153 563.295 21.2668 564.191 26.4058L566.161 26.0622ZM561.151 14.4249C558.676 11.9495 555.303 10.765 551.162 10.765V12.765C554.908 12.765 557.723 13.8251 559.737 15.8391L561.151 14.4249ZM551.162 10.765H547.795V12.765H551.162V10.765ZM547.795 10.765C546.183 10.765 544.851 10.9161 543.887 11.2867L544.605 13.1533C545.219 12.9172 546.253 12.765 547.795 12.765V10.765ZM543.952 11.2642C542.847 11.6043 542.062 12.3811 541.598 13.4641L543.436 14.2519C543.7 13.6362 544.068 13.3211 544.54 13.1758L543.952 11.2642ZM541.584 13.499C541.21 14.4701 541.062 15.9016 541.062 17.68H543.062C543.062 15.9397 543.218 14.8232 543.451 14.217L541.584 13.499ZM541.062 17.68V36.244H543.062V17.68H541.062ZM542.062 37.244H546.339V35.244H542.062V37.244ZM546.339 37.244C549.39 37.244 551.814 36.1646 553.43 33.9156L551.806 32.7484C550.632 34.382 548.87 35.244 546.339 35.244V37.244ZM553.427 33.9202C554.977 31.7892 556.003 29.3432 556.513 26.5989L554.547 26.2331C554.087 28.7061 553.172 30.8708 551.81 32.7438L553.427 33.9202ZM555.53 27.416H557.623V25.416H555.53V27.416ZM556.627 26.3281C556.442 28.4269 556.35 30.8232 556.35 33.514H558.35C558.35 30.8661 558.441 28.5304 558.619 26.5039L556.627 26.3281ZM556.35 33.514V37.154H558.35V33.514H556.35ZM556.35 37.154C556.35 39.9229 556.535 43.5326 556.9 47.9739L558.893 47.8101C558.53 43.3941 558.35 39.8451 558.35 37.154H556.35ZM557.896 46.892H555.803V48.892H557.896V46.892ZM556.792 47.7447C556.347 44.7513 555.317 42.2335 553.66 40.2448L552.123 41.5252C553.499 43.1765 554.411 45.33 554.814 48.0393L556.792 47.7447ZM553.682 40.2728C551.994 38.0924 549.484 37.064 546.339 37.064V39.064C549.019 39.064 550.877 39.9162 552.101 41.4972L553.682 40.2728ZM546.339 37.064H542.062V39.064H546.339V37.064ZM541.062 38.064V56.992H543.062V38.064H541.062ZM541.062 56.992C541.062 58.7784 541.212 60.2245 541.576 61.2413L543.459 60.5687C543.216 59.8869 543.062 58.7243 543.062 56.992H541.062ZM541.609 61.3241C542.079 62.3417 542.848 63.0767 543.887 63.4763L544.605 61.6097C544.067 61.4026 543.684 61.0456 543.425 60.4859L541.609 61.3241ZM543.952 63.4988C544.887 63.7865 546.192 63.907 547.795 63.907V61.907C546.244 61.907 545.183 61.7848 544.54 61.5872L543.952 63.4988ZM547.795 63.907H551.708V61.907H547.795V63.907ZM551.708 63.907C556.217 63.907 559.867 62.5987 562.525 59.8743L561.094 58.4777C558.898 60.728 555.815 61.907 551.708 61.907V63.907ZM562.516 59.8831C565.223 57.1767 567 52.7427 567.983 46.7807L566.01 46.4553C565.052 52.2626 563.37 56.2006 561.102 58.4689L562.516 59.8831ZM566.996 47.618H569.089V45.618H566.996V47.618ZM568.095 46.5115C567.908 48.2594 567.816 50.4825 567.816 53.17H569.816C569.816 50.5189 569.907 48.374 570.084 46.7245L568.095 46.5115ZM639.284 11.492L639.434 12.4807L640.284 12.3519V11.492H639.284ZM634.825 12.857L634.295 12.009L634.283 12.0168L634.271 12.0249L634.825 12.857ZM632.914 15.769L631.95 15.5059L631.944 15.5265L631.939 15.5474L632.914 15.769ZM632.459 65.182L632.422 66.1813L633.459 66.2197V65.182H632.459ZM630.002 65.091L630.039 64.0917L630.002 64.0903L629.964 64.0917L630.002 65.091ZM627.636 65.182L626.857 65.809L627.173 66.2006L627.675 66.1813L627.636 65.182ZM591.236 19.955L592.015 19.328L590.236 17.1176V19.955H591.236ZM591.964 58.903L591.02 59.2316L591.025 59.2447L591.964 58.903ZM594.603 61.815L594.173 62.7179L594.173 62.7179L594.603 61.815ZM600.609 63.18H601.609V62.285L600.72 62.1861L600.609 63.18ZM600.609 65L600.543 65.9978L601.609 66.0689V65H600.609ZM582.318 65H581.318V66.0981L582.412 65.9956L582.318 65ZM582.318 63.18L582.169 62.1913L581.318 62.3201V63.18H582.318ZM586.686 61.815L586.156 60.967L586.144 60.9748L586.132 60.9829L586.686 61.815ZM588.597 58.903L587.633 58.6399L587.627 58.6605L587.622 58.6814L588.597 58.903ZM588.597 14.313L587.638 14.5952L587.646 14.6207L587.654 14.6458L588.597 14.313ZM586.686 12.22L586.315 13.1485L586.325 13.1525L586.335 13.1563L586.686 12.22ZM582.318 11.492H581.318V12.4332L582.258 12.4902L582.318 11.492ZM582.318 9.672L582.412 8.67636L581.318 8.57386V9.672H582.318ZM601.337 9.672L602.116 9.04467L601.793 8.64347L601.279 8.67372L601.337 9.672ZM630.366 45.708L629.588 46.3353L631.366 48.5434V45.708H630.366ZM629.638 15.86L628.694 16.1885L628.699 16.2017L629.638 15.86ZM626.908 12.857L626.478 13.7599L626.487 13.7637L626.495 13.7674L626.908 12.857ZM620.993 11.492H619.993V12.3848L620.881 12.4856L620.993 11.492ZM620.993 9.672L621.061 8.67431L619.993 8.60149V9.672H620.993ZM639.284 9.672H640.284V8.57055L639.188 8.67665L639.284 9.672ZM639.135 10.5033C637.086 10.8137 635.439 11.2943 634.295 12.009L635.355 13.705C636.153 13.2064 637.479 12.7769 639.434 12.4807L639.135 10.5033ZM634.271 12.0249C633.111 12.7981 632.36 14.0019 631.95 15.5059L633.879 16.0321C634.197 14.8668 634.72 14.1293 635.38 13.6891L634.271 12.0249ZM631.939 15.5474C631.61 16.9954 631.459 19.1197 631.459 21.866H633.459C633.459 19.1523 633.612 17.2119 633.89 15.9906L631.939 15.5474ZM631.459 21.866V65.182H633.459V21.866H631.459ZM632.496 64.1827L630.039 64.0917L629.965 66.0903L632.422 66.1813L632.496 64.1827ZM629.964 64.0917L627.598 64.1827L627.675 66.1813L630.041 66.0903L629.964 64.0917ZM628.415 64.555L592.015 19.328L590.457 20.582L626.857 65.809L628.415 64.555ZM590.236 19.955V52.806H592.236V19.955H590.236ZM590.236 52.806C590.236 55.5122 590.479 57.6775 591.02 59.2315L592.909 58.5745C592.479 57.3378 592.236 55.4385 592.236 52.806H590.236ZM591.025 59.2447C591.599 60.8243 592.661 61.9975 594.173 62.7179L595.033 60.9121C593.998 60.4192 593.3 59.651 592.904 58.5613L591.025 59.2447ZM594.173 62.7179C595.604 63.3988 597.742 63.8676 600.499 64.1739L600.72 62.1861C598.016 61.8857 596.151 61.4445 595.033 60.9121L594.173 62.7179ZM599.609 63.18V65H601.609V63.18H599.609ZM600.676 64.0022C597.915 63.8182 594.433 63.727 590.235 63.727V65.727C594.41 65.727 597.843 65.8178 600.543 65.9978L600.676 64.0022ZM590.235 63.727C586.886 63.727 584.212 63.8181 582.225 64.0044L582.412 65.9956C584.308 65.8179 586.911 65.727 590.235 65.727V63.727ZM583.318 65V63.18H581.318V65H583.318ZM582.468 64.1687C584.512 63.859 586.145 63.3777 587.241 62.6471L586.132 60.9829C585.408 61.4657 584.129 61.8943 582.169 62.1913L582.468 64.1687ZM587.216 62.663C588.456 61.888 589.223 60.6645 589.573 59.1246L587.622 58.6814C587.366 59.8108 586.858 60.5286 586.156 60.967L587.216 62.663ZM589.562 59.1661C589.963 57.6982 590.143 55.5563 590.143 52.806H588.143C588.143 55.5157 587.96 57.4385 587.633 58.6399L589.562 59.1661ZM590.143 52.806V19.318H588.143V52.806H590.143ZM590.143 19.318C590.143 16.9964 589.965 15.1823 589.54 13.9802L587.654 14.6458C587.958 15.5063 588.143 17.0289 588.143 19.318H590.143ZM589.557 14.0308C589.169 12.7111 588.315 11.7627 587.038 11.2837L586.335 13.1563C586.999 13.4053 587.42 13.8523 587.638 14.5952L589.557 14.0308ZM587.058 11.2915C585.991 10.8648 584.4 10.6163 582.379 10.4938L582.258 12.4902C584.241 12.6103 585.562 12.8472 586.315 13.1485L587.058 11.2915ZM583.318 11.492V9.672H581.318V11.492H583.318ZM582.225 10.6676C584.212 10.8539 586.886 10.945 590.235 10.945V8.945C586.911 8.945 584.308 8.85413 582.412 8.67636L582.225 10.6676ZM590.235 10.945C594.555 10.945 598.277 10.8538 601.396 10.6703L601.279 8.67372C598.21 8.85423 594.53 8.945 590.235 8.945V10.945ZM600.559 10.2993L629.588 46.3353L631.145 45.0807L602.116 9.04467L600.559 10.2993ZM631.366 45.708V21.866H629.366V45.708H631.366ZM631.366 21.866C631.366 19.164 631.124 17.0204 630.578 15.5183L628.699 16.2017C629.123 17.3689 629.366 19.2294 629.366 21.866H631.366ZM630.583 15.5315C630.009 13.88 628.908 12.6675 627.322 11.9466L626.495 13.7674C627.578 14.2599 628.298 15.0493 628.694 16.1885L630.583 15.5315ZM627.338 11.9541C625.911 11.2744 623.805 10.8051 621.106 10.4984L620.881 12.4856C623.521 12.7856 625.358 13.2263 626.478 13.7599L627.338 11.9541ZM621.993 11.492V9.672H619.993V11.492H621.993ZM620.925 10.6697C623.626 10.8538 627.11 10.945 631.367 10.945V8.945C627.132 8.945 623.699 8.85415 621.061 8.67431L620.925 10.6697ZM631.367 10.945C634.776 10.945 637.452 10.854 639.381 10.6673L639.188 8.67665C637.355 8.85403 634.754 8.945 631.367 8.945V10.945ZM638.284 9.672V11.492H640.284V9.672H638.284ZM703.933 9.672L704.929 9.76371L705.033 8.63392L703.899 8.67258L703.933 9.672ZM703.569 30.056V31.056H704.668L704.565 29.9627L703.569 30.056ZM701.476 30.056L700.493 30.2372L700.644 31.056H701.476V30.056ZM698.382 19.227L697.468 19.6312L697.472 19.64L697.476 19.6487L698.382 19.227ZM693.832 13.585L693.278 14.4171L693.294 14.4276L693.31 14.4376L693.832 13.585ZM683.913 11.765V10.765H682.913V11.765H683.913ZM684.641 59.995L683.72 60.3831L683.72 60.3831L684.641 59.995ZM687.189 62.361L686.859 63.3049L686.859 63.3049L687.189 62.361ZM693.104 63.18H694.104V62.2235L693.149 62.181L693.104 63.18ZM693.104 65L693.049 65.9985L694.104 66.0571V65H693.104ZM660.799 65H659.799V66.0645L660.862 65.9981L660.799 65ZM660.799 63.18L660.755 62.181L659.799 62.2235V63.18H660.799ZM666.714 62.361L667.045 63.3049L667.045 63.3049L666.714 62.361ZM669.262 59.995L668.341 59.6069L668.341 59.6069L669.262 59.995ZM669.99 11.765H670.99V10.765H669.99V11.765ZM659.98 13.585L660.516 14.4298L660.523 14.4253L659.98 13.585ZM655.43 19.227L654.524 18.8053L654.52 18.814L654.516 18.8228L655.43 19.227ZM652.427 30.056V31.056H653.26L653.411 30.2372L652.427 30.056ZM650.334 30.056L649.339 29.9627L649.236 31.056H650.334V30.056ZM649.97 9.672L650.005 8.67259L648.871 8.63347L648.975 9.76371L649.97 9.672ZM702.938 9.58028C702.511 14.2137 702.296 18.3705 702.296 22.048H704.296C704.296 18.4455 704.507 14.3516 704.929 9.76371L702.938 9.58028ZM702.296 22.048C702.296 25.4573 702.388 28.1624 702.574 30.1493L704.565 29.9627C704.387 28.0669 704.296 25.4334 704.296 22.048H702.296ZM703.569 29.056H701.476V31.056H703.569V29.056ZM702.46 29.8748C701.604 25.2261 700.553 21.5232 699.289 18.8053L697.476 19.6487C698.638 22.1481 699.651 25.6645 700.493 30.2372L702.46 29.8748ZM699.297 18.8228C698.086 16.0825 696.453 14.0185 694.355 12.7324L693.31 14.4376C694.973 15.4569 696.373 17.1542 697.468 19.6312L699.297 18.8228ZM694.387 12.753C692.357 11.3992 689.78 10.765 686.734 10.765V12.765C689.513 12.765 691.668 13.3441 693.278 14.4171L694.387 12.753ZM686.734 10.765H683.913V12.765H686.734V10.765ZM682.913 11.765V54.444H684.913V11.765H682.913ZM682.913 54.444C682.913 57.0157 683.153 59.036 683.72 60.3831L685.563 59.6069C685.16 58.6487 684.913 56.9683 684.913 54.444H682.913ZM683.72 60.3831C684.318 61.8044 685.387 62.7898 686.859 63.3049L687.52 61.4171C686.565 61.0829 685.935 60.491 685.563 59.6069L683.72 60.3831ZM686.859 63.3049C688.22 63.7811 690.317 64.0571 693.06 64.179L693.149 62.181C690.432 62.0602 688.586 61.7902 687.52 61.4171L686.859 63.3049ZM692.104 63.18V65H694.104V63.18H692.104ZM693.16 64.0015C689.854 63.8179 684.369 63.727 676.724 63.727V65.727C684.368 65.727 689.803 65.8181 693.049 65.9985L693.16 64.0015ZM676.724 63.727C669.022 63.727 663.684 63.8177 660.737 64.0019L660.862 65.9981C663.739 65.8183 669.018 65.727 676.724 65.727V63.727ZM661.799 65V63.18H659.799V65H661.799ZM660.844 64.179C663.587 64.0571 665.684 63.7811 667.045 63.3049L666.384 61.4171C665.318 61.7902 663.472 62.0602 660.755 62.181L660.844 64.179ZM667.045 63.3049C668.517 62.7898 669.586 61.8044 670.184 60.3831L668.341 59.6069C667.969 60.491 667.339 61.0829 666.384 61.4171L667.045 63.3049ZM670.184 60.3831C670.751 59.036 670.99 57.0157 670.99 54.444H668.99C668.99 56.9683 668.744 58.6487 668.341 59.6069L670.184 60.3831ZM670.99 54.444V11.765H668.99V54.444H670.99ZM669.99 10.765H667.169V12.765H669.99V10.765ZM667.169 10.765C664.122 10.765 661.523 11.4 659.438 12.7447L660.523 14.4253C662.2 13.3433 664.393 12.765 667.169 12.765V10.765ZM659.445 12.7402C657.418 14.0244 655.791 16.0798 654.524 18.8053L656.337 19.6487C657.496 17.1569 658.903 15.4509 660.516 14.4298L659.445 12.7402ZM654.516 18.8228C653.318 21.5337 652.3 25.2298 651.444 29.8748L653.411 30.2372C654.254 25.6609 655.238 22.1376 656.345 19.6312L654.516 18.8228ZM652.427 29.056H650.334V31.056H652.427V29.056ZM651.33 30.1493C651.516 28.1624 651.607 25.4573 651.607 22.048H649.607C649.607 25.4334 649.517 28.0669 649.339 29.9627L651.33 30.1493ZM651.607 22.048C651.607 18.3705 651.393 14.2137 650.966 9.58028L648.975 9.76371C649.397 14.3516 649.607 18.4455 649.607 22.048H651.607ZM649.936 10.6714C655.233 10.8541 664.166 10.945 676.724 10.945V8.945C664.167 8.945 655.264 8.85394 650.005 8.67259L649.936 10.6714ZM676.724 10.945C689.525 10.945 698.61 10.8541 703.968 10.6714L703.899 8.67258C698.58 8.85394 689.525 8.945 676.724 8.945V10.945ZM745.376 9.308L745.078 10.2625L745.086 10.265L745.376 9.308ZM751.018 11.765L750.513 12.6277L750.526 12.6355L750.539 12.6429L751.018 11.765ZM752.747 12.675L752.3 13.5694L752.32 13.5796L752.341 13.5888L752.747 12.675ZM755.386 12.129L756.281 12.5762L756.289 12.5597L756.297 12.5428L755.386 12.129ZM756.114 9.035V8.035H755.236L755.123 8.90566L756.114 9.035ZM758.207 9.035L759.204 9.11804L759.294 8.035H758.207V9.035ZM757.752 27.963V28.963H758.752V27.963H757.752ZM755.659 27.963L754.667 28.0843L754.774 28.963H755.659V27.963ZM750.381 15.132L749.639 15.8026L749.646 15.8097L750.381 15.132ZM731.817 12.402L731.239 11.5865L731.232 11.591L731.226 11.5956L731.817 12.402ZM730.543 22.139L729.722 22.7101L729.737 22.7306L729.752 22.7504L730.543 22.139ZM734.547 25.87L733.972 26.6878L733.972 26.6878L734.547 25.87ZM741.736 30.42L741.224 31.279L741.228 31.2809L741.736 30.42ZM743.738 31.603L743.23 32.4639L743.237 32.4685L743.245 32.473L743.738 31.603ZM752.656 37.245L752.063 38.0501L752.07 38.0552L752.077 38.0602L752.656 37.245ZM758.389 43.16L757.554 43.7097L757.561 43.7199L758.389 43.16ZM754.476 62.27L753.933 61.4304L753.933 61.4304L754.476 62.27ZM730.634 65.273L730.934 64.319L730.922 64.3151L730.909 64.3115L730.634 65.273ZM724.173 62.725L724.62 61.8306L724.613 61.827L724.606 61.8235L724.173 62.725ZM719.714 62.634L720.609 63.0812L720.617 63.0647L720.625 63.0478L719.714 62.634ZM718.986 65.637V66.637H719.864L719.978 65.7663L718.986 65.637ZM716.893 65.637L715.896 65.5658L715.819 66.637H716.893V65.637ZM717.257 43.433V42.433H716.257V43.433H717.257ZM719.35 43.433L720.348 43.3671L720.286 42.433H719.35V43.433ZM724.537 58.63L723.764 59.264L723.77 59.2714L724.537 58.63ZM744.648 62.088L745.22 62.9084L745.22 62.9084L744.648 62.088ZM744.83 49.621L745.513 48.8907L745.513 48.8907L744.83 49.621ZM735.184 42.978L735.69 42.1154L735.678 42.1086L735.184 42.978ZM721.898 33.605L721.198 34.3192L721.205 34.3261L721.898 33.605ZM723.172 12.22L722.63 11.3801L722.624 11.3839L723.172 12.22ZM738.278 9.398C741.003 9.398 743.262 9.69485 745.078 10.2625L745.675 8.35352C743.608 7.70781 741.135 7.398 738.278 7.398V9.398ZM745.086 10.265C747.015 10.8494 748.823 11.6372 750.513 12.6277L751.524 10.9023C749.695 9.83012 747.742 8.97988 745.666 8.35097L745.086 10.265ZM750.539 12.6429C751.213 13.0105 751.801 13.3198 752.3 13.5694L753.194 11.7806C752.723 11.5449 752.158 11.2475 751.497 10.8871L750.539 12.6429ZM752.341 13.5888C752.943 13.8564 753.547 14.039 754.112 14.039V12.039C753.95 12.039 753.643 11.979 753.153 11.7612L752.341 13.5888ZM754.112 14.039C755.136 14.039 755.857 13.4232 756.281 12.5762L754.492 11.6818C754.309 12.0481 754.181 12.039 754.112 12.039V14.039ZM756.297 12.5428C756.663 11.7365 756.921 10.5852 757.106 9.16434L755.123 8.90566C754.944 10.2755 754.716 11.1868 754.476 11.7152L756.297 12.5428ZM756.114 10.035H758.207V8.035H756.114V10.035ZM757.211 8.95195C756.904 12.638 756.752 18.9849 756.752 27.963H758.752C758.752 18.9837 758.904 12.712 759.204 9.11804L757.211 8.95195ZM757.752 26.963H755.659V28.963H757.752V26.963ZM756.652 27.8417C755.967 22.2374 754.148 17.7435 751.117 14.4543L749.646 15.8097C752.317 18.7085 754.017 22.7686 754.667 28.0843L756.652 27.8417ZM751.123 14.4615C748.065 11.078 744.055 9.4 739.188 9.4V11.4C743.543 11.4 746.995 12.8767 749.639 15.8025L751.123 14.4615ZM739.188 9.4C736.012 9.4 733.334 10.0991 731.239 11.5865L732.396 13.2175C734.061 12.0356 736.297 11.4 739.188 11.4V9.4ZM731.226 11.5956C729.168 13.1048 728.087 15.1244 728.087 17.589H730.087C730.087 15.807 730.827 14.3686 732.409 13.2084L731.226 11.5956ZM728.087 17.589C728.087 19.4392 728.64 21.1538 729.722 22.7101L731.364 21.5679C730.505 20.3335 730.087 19.0148 730.087 17.589H728.087ZM729.752 22.7504C730.855 24.1775 732.267 25.488 733.972 26.6878L735.123 25.0522C733.552 23.9467 732.294 22.7698 731.335 21.5276L729.752 22.7504ZM733.972 26.6878C735.641 27.8623 738.062 29.3941 741.224 31.2789L742.248 29.5611C739.101 27.6846 736.73 26.1831 735.123 25.0522L733.972 26.6878ZM741.228 31.2809L743.23 32.4639L744.247 30.7421L742.245 29.5591L741.228 31.2809ZM743.245 32.473C746.865 34.5241 749.801 36.3831 752.063 38.0501L753.249 36.4399C750.901 34.7096 747.892 32.8072 744.231 30.733L743.245 32.473ZM752.077 38.0602C754.284 39.6281 756.107 41.5105 757.554 43.7096L759.225 42.6104C757.638 40.1988 755.639 38.1379 753.235 36.4298L752.077 38.0602ZM757.561 43.7199C758.96 45.7902 759.664 48.1411 759.664 50.804H761.664C761.664 47.7642 760.852 45.0191 759.218 42.6001L757.561 43.7199ZM759.664 50.804C759.664 55.4446 757.769 58.9481 753.933 61.4304L755.019 63.1096C759.434 60.2532 761.664 56.1128 761.664 50.804H759.664ZM753.933 61.4304C750.019 63.9629 744.798 65.274 738.187 65.274V67.274C745.045 67.274 750.683 65.9157 755.02 63.1096L753.933 61.4304ZM738.187 65.274C735.347 65.274 732.936 64.9481 730.934 64.319L730.334 66.227C732.579 66.9326 735.203 67.274 738.187 67.274V65.274ZM730.909 64.3115C728.851 63.7235 726.755 62.8978 724.62 61.8306L723.726 63.6194C725.96 64.7362 728.171 65.6092 730.36 66.2345L730.909 64.3115ZM724.606 61.8235C723.828 61.45 723.145 61.1593 722.564 60.9601C722.002 60.7673 721.459 60.633 720.988 60.633V62.633C721.124 62.633 721.416 62.6807 721.915 62.8519C722.396 63.0167 723.002 63.272 723.741 63.6265L724.606 61.8235ZM720.988 60.633C719.912 60.633 719.203 61.3411 718.804 62.2202L720.625 63.0478C720.733 62.8103 720.829 62.7085 720.878 62.6696C720.912 62.6428 720.937 62.633 720.988 62.633V60.633ZM718.82 62.1868C718.437 62.9519 718.179 64.0943 717.995 65.5077L719.978 65.7663C720.157 64.389 720.385 63.5294 720.609 63.0812L718.82 62.1868ZM718.986 64.637H716.893V66.637H718.986V64.637ZM717.891 65.7082C718.136 62.2685 718.257 54.8295 718.257 43.433H716.257C716.257 54.8472 716.135 62.2108 715.896 65.5658L717.891 65.7082ZM717.257 44.433H719.35V42.433H717.257V44.433ZM718.352 43.4989C718.786 50.0666 720.559 55.3545 723.764 59.2639L725.311 57.9961C722.448 54.5042 720.764 49.6607 720.348 43.3671L718.352 43.4989ZM723.77 59.2714C727.085 63.2364 731.725 65.181 737.55 65.181V63.181C732.213 63.181 728.177 61.425 725.304 57.9886L723.77 59.2714ZM737.55 65.181C740.459 65.181 743.031 64.4343 745.22 62.9084L744.076 61.2676C742.262 62.5323 740.101 63.181 737.55 63.181V65.181ZM745.22 62.9084C747.525 61.3016 748.651 58.9118 748.651 55.9H746.651C746.651 58.3482 745.775 60.0837 744.076 61.2676L745.22 62.9084ZM748.651 55.9C748.651 53.1781 747.582 50.8262 745.513 48.8907L744.147 50.3513C745.84 51.9345 746.651 53.7686 746.651 55.9H748.651ZM745.513 48.8907C743.548 47.0519 740.252 44.7918 735.69 42.1155L734.678 43.8405C739.216 46.5029 742.351 48.6714 744.147 50.3513L745.513 48.8907ZM735.678 42.1086C729.953 38.854 725.602 35.7769 722.591 32.8839L721.205 34.3261C724.382 37.3785 728.889 40.55 734.69 43.8474L735.678 42.1086ZM722.598 32.8908C719.744 30.0935 718.348 26.8576 718.348 23.14H716.348C716.348 27.4304 717.986 31.1712 721.198 34.3192L722.598 32.8908ZM718.348 23.14C718.348 18.7372 720.126 15.415 723.721 13.056L722.624 11.3839C718.453 14.121 716.348 18.0788 716.348 23.14H718.348ZM723.715 13.0599C727.454 10.6439 732.286 9.398 738.278 9.398V7.398C732.016 7.398 726.777 8.7001 722.63 11.3801L723.715 13.0599Z" fill="black"/>
</svg>
