<svg width="597" height="67" viewBox="0 0 597 67" fill="none" xmlns="http://www.w3.org/2000/svg">
<path d="M50.3041 51.168C50.3041 56.7493 50.5164 61.36 50.9411 65C46.8158 64.818 39.8694 64.727 30.1021 64.727C16.8768 64.727 6.9881 64.818 0.436102 65V63.18C2.4381 63.0587 3.8941 62.816 4.8041 62.452C5.77477 62.088 6.41177 61.3903 6.7151 60.359C7.0791 59.3277 7.2611 57.6593 7.2611 55.354V10.218C7.2611 7.91266 7.0791 6.24433 6.7151 5.213C6.41177 4.18167 5.77477 3.484 4.8041 3.12C3.8941 2.756 2.4381 2.51333 0.436102 2.392V0.572C6.9881 0.753997 16.8768 0.844996 30.1021 0.844996C39.0201 0.844996 45.3598 0.753997 49.1211 0.572C48.6964 5.60733 48.4841 10.0967 48.4841 14.04C48.4841 16.7093 48.5751 18.772 48.7571 20.228H46.6641C45.7541 13.7367 44.1161 9.18666 41.7501 6.578C39.3841 3.96933 36.0474 2.66499 31.7401 2.66499H28.0091C26.1284 2.66499 24.7634 2.81666 23.9141 3.12C23.0648 3.42333 22.4884 4.03 22.1851 4.94C21.8818 5.78933 21.7301 7.18466 21.7301 9.126V31.694H24.6421C27.8574 31.694 30.2841 30.511 31.9221 28.145C33.6208 25.779 34.8038 22.958 35.4711 19.682H37.5641C37.3821 22.23 37.2911 25.0813 37.2911 28.236V32.604C37.2911 35.698 37.4731 40.0053 37.8371 45.526H35.7441C34.4701 37.518 30.7694 33.514 24.6421 33.514H21.7301V56.446C21.7301 58.3873 21.8818 59.813 22.1851 60.723C22.4884 61.5723 23.0648 62.1487 23.9141 62.452C24.7634 62.7553 26.1284 62.907 28.0091 62.907H32.4681C36.7754 62.907 40.2334 61.451 42.8421 58.539C45.5114 55.5663 47.3921 50.5613 48.4841 43.524H50.5771C50.3951 45.526 50.3041 48.074 50.3041 51.168ZM113.803 58.539C115.016 60.2377 115.987 61.3903 116.715 61.997C117.443 62.6037 118.353 62.9677 119.445 63.089V65C113.621 64.7573 109.708 64.636 107.706 64.636C105.765 64.636 101.609 64.727 95.2389 64.909C94.7536 64.9697 94.0862 65 93.2369 65V63.089C95.2389 63.089 96.6949 62.998 97.6049 62.816C98.5149 62.5733 98.9699 62.179 98.9699 61.633C98.9699 61.2083 98.7272 60.6623 98.2419 59.995L85.4109 41.977L78.1309 51.077C76.0682 53.6857 75.0369 55.9 75.0369 57.72C75.0369 59.358 75.7042 60.6623 77.0389 61.633C78.4342 62.543 80.3149 63.0587 82.6809 63.18V65C79.2229 64.818 74.7032 64.727 69.1219 64.727C66.1492 64.727 63.5709 64.818 61.3869 65V63.18C63.2069 62.452 65.2089 61.2387 67.3929 59.54C69.5769 57.7807 71.3969 55.991 72.8529 54.171L84.1369 40.248L66.8469 16.042C65.5729 14.2827 64.6022 13.0997 63.9349 12.493C63.2676 11.8863 62.3576 11.5527 61.2049 11.492V9.581C67.2716 9.82366 71.1846 9.945 72.9439 9.945C75.3099 9.945 79.4959 9.854 85.5019 9.672C85.9872 9.61133 86.6242 9.581 87.4129 9.581V11.492C85.4109 11.492 83.9549 11.6133 83.0449 11.856C82.1956 12.0987 81.7709 12.493 81.7709 13.039C81.7709 13.4637 81.9832 13.9793 82.4079 14.586L94.0559 30.875L99.7889 23.777C102.034 21.1077 103.156 18.6507 103.156 16.406C103.156 14.95 102.64 13.7973 101.609 12.948C100.638 12.038 99.1822 11.5527 97.2409 11.492V9.672C100.699 9.854 104.491 9.945 108.616 9.945C112.074 9.945 114.652 9.854 116.351 9.672V11.492C114.774 11.9773 113.105 12.8873 111.346 14.222C109.587 15.5567 107.949 17.134 106.432 18.954L95.2389 32.604L113.803 58.539ZM148.342 42.614V55.354C148.342 57.6593 148.524 59.3277 148.888 60.359C149.252 61.3903 149.92 62.088 150.89 62.452C151.922 62.816 153.529 63.0587 155.713 63.18V65C152.195 64.818 147.068 64.727 140.334 64.727C134.692 64.727 130.446 64.818 127.594 65V63.18C129.657 63.0587 131.143 62.816 132.053 62.452C132.963 62.088 133.57 61.3903 133.873 60.359C134.237 59.3277 134.419 57.6593 134.419 55.354V19.318C134.419 17.0127 134.237 15.3443 133.873 14.313C133.57 13.2817 132.933 12.584 131.962 12.22C131.052 11.856 129.596 11.6133 127.594 11.492V9.672C130.446 9.854 134.51 9.945 139.788 9.945L150.799 9.854C152.073 9.79333 153.529 9.763 155.167 9.763C163.054 9.763 168.908 11.0977 172.73 13.767C176.613 16.3757 178.554 20.1067 178.554 24.96C178.554 29.874 176.522 34.06 172.457 37.518C168.453 40.9153 161.719 42.614 152.255 42.614H148.342ZM153.984 11.492C152.407 11.492 151.224 11.7043 150.435 12.129C149.647 12.5537 149.101 13.312 148.797 14.404C148.494 15.496 148.342 17.134 148.342 19.318V40.794H151.345C156.138 40.794 159.444 39.4593 161.264 36.79C163.084 34.1207 163.994 30.511 163.994 25.961C163.994 21.047 163.206 17.407 161.628 15.041C160.112 12.675 157.564 11.492 153.984 11.492ZM236.098 53.17C236.098 56.628 236.311 60.5713 236.735 65C232.792 64.818 226.149 64.727 216.806 64.727C204.309 64.727 194.906 64.818 188.596 65V63.18C190.659 63.0587 192.145 62.816 193.055 62.452C193.965 62.088 194.572 61.3903 194.875 60.359C195.239 59.3277 195.421 57.6593 195.421 55.354V19.318C195.421 17.0127 195.239 15.3443 194.875 14.313C194.572 13.2817 193.935 12.584 192.964 12.22C192.054 11.856 190.598 11.6133 188.596 11.492V9.672C194.906 9.854 204.309 9.945 216.806 9.945C225.3 9.945 231.336 9.854 234.915 9.672C234.491 13.7367 234.278 17.3767 234.278 20.592C234.278 22.958 234.369 24.8387 234.551 26.234H232.458C231.548 21.0167 229.971 17.316 227.726 15.132C225.482 12.8873 222.388 11.765 218.444 11.765H215.077C213.5 11.765 212.317 11.9167 211.528 12.22C210.74 12.4627 210.163 13.0087 209.799 13.858C209.496 14.6467 209.344 15.9207 209.344 17.68V36.244H213.621C216.412 36.244 218.505 35.2733 219.9 33.332C221.356 31.33 222.327 29.0247 222.812 26.416H224.905C224.723 28.4787 224.632 30.8447 224.632 33.514V37.154C224.632 39.884 224.814 43.4633 225.178 47.892H223.085C222.661 45.0407 221.69 42.705 220.173 40.885C218.717 39.0043 216.533 38.064 213.621 38.064H209.344V56.992C209.344 58.7513 209.496 60.0557 209.799 60.905C210.163 61.6937 210.74 62.2397 211.528 62.543C212.317 62.7857 213.5 62.907 215.077 62.907H218.99C223.298 62.907 226.665 61.6633 229.091 59.176C231.579 56.6887 233.308 52.5027 234.278 46.618H236.371C236.189 48.3167 236.098 50.5007 236.098 53.17ZM308.387 61.178C306.93 62.8767 305.292 64.1507 303.472 65C301.652 65.8493 299.377 66.274 296.648 66.274C293.19 66.274 290.52 65.6067 288.639 64.272C286.759 62.9373 285.545 61.1477 284.999 58.903L282.36 48.165C281.693 44.7677 280.662 42.523 279.266 41.431C277.932 40.2783 275.93 39.702 273.26 39.702H270.257V55.354C270.257 57.6593 270.409 59.3277 270.712 60.359C271.076 61.3903 271.713 62.088 272.623 62.452C273.594 62.816 275.08 63.0587 277.082 63.18V65C273.624 64.818 268.68 64.727 262.249 64.727C256.607 64.727 252.361 64.818 249.509 65V63.18C251.572 63.0587 253.058 62.816 253.968 62.452C254.878 62.088 255.485 61.3903 255.788 60.359C256.152 59.3277 256.334 57.6593 256.334 55.354V19.318C256.334 17.0127 256.152 15.3443 255.788 14.313C255.485 13.2817 254.878 12.584 253.968 12.22C253.058 11.856 251.572 11.6133 249.509 11.492V9.672C252.361 9.854 256.425 9.945 261.703 9.945L272.077 9.854C273.291 9.79333 274.656 9.763 276.172 9.763C284.302 9.763 290.368 11.0067 294.372 13.494C298.437 15.9207 300.47 19.318 300.47 23.686C300.47 27.4473 298.862 30.7537 295.646 33.605C292.431 36.4563 287.062 38.2763 279.539 39.065C280.389 39.065 281.268 39.156 282.178 39.338C286.546 39.8233 289.974 40.794 292.462 42.25C295.01 43.706 296.678 46.0113 297.467 49.166L299.377 57.265C299.802 58.9637 300.318 60.177 300.925 60.905C301.531 61.633 302.289 61.997 303.199 61.997C304.473 61.997 305.778 61.3297 307.113 59.995L308.387 61.178ZM274.989 11.492C273.655 11.492 272.654 11.7043 271.986 12.129C271.319 12.5537 270.864 13.312 270.621 14.404C270.379 15.496 270.257 17.134 270.257 19.318V37.882H274.17C278.66 37.882 281.723 36.7293 283.361 34.424C285.06 32.1187 285.909 28.873 285.909 24.687C285.909 20.2583 285.06 16.952 283.361 14.768C281.723 12.584 278.933 11.492 274.989 11.492ZM343.15 11.492C341.087 11.6133 339.601 11.856 338.691 12.22C337.781 12.584 337.144 13.2817 336.78 14.313C336.477 15.3443 336.325 17.0127 336.325 19.318V55.354C336.325 57.6593 336.477 59.3277 336.78 60.359C337.144 61.3903 337.781 62.088 338.691 62.452C339.601 62.816 341.087 63.0587 343.15 63.18V65C340.056 64.818 335.567 64.727 329.682 64.727C323.312 64.727 318.61 64.818 315.577 65V63.18C317.64 63.0587 319.126 62.816 320.036 62.452C320.946 62.088 321.553 61.3903 321.856 60.359C322.22 59.3277 322.402 57.6593 322.402 55.354V19.318C322.402 17.0127 322.22 15.3443 321.856 14.313C321.553 13.2817 320.916 12.584 319.945 12.22C319.035 11.856 317.579 11.6133 315.577 11.492V9.672C318.55 9.854 323.251 9.945 329.682 9.945C335.567 9.945 340.056 9.854 343.15 9.672V11.492ZM402.308 53.17C402.308 56.628 402.521 60.5713 402.945 65C399.002 64.818 392.359 64.727 383.016 64.727C370.519 64.727 361.116 64.818 354.806 65V63.18C356.869 63.0587 358.355 62.816 359.265 62.452C360.175 62.088 360.782 61.3903 361.085 60.359C361.449 59.3277 361.631 57.6593 361.631 55.354V19.318C361.631 17.0127 361.449 15.3443 361.085 14.313C360.782 13.2817 360.145 12.584 359.174 12.22C358.264 11.856 356.808 11.6133 354.806 11.492V9.672C361.116 9.854 370.519 9.945 383.016 9.945C391.51 9.945 397.546 9.854 401.125 9.672C400.701 13.7367 400.488 17.3767 400.488 20.592C400.488 22.958 400.579 24.8387 400.761 26.234H398.668C397.758 21.0167 396.181 17.316 393.936 15.132C391.692 12.8873 388.598 11.765 384.654 11.765H381.287C379.71 11.765 378.527 11.9167 377.738 12.22C376.95 12.4627 376.373 13.0087 376.009 13.858C375.706 14.6467 375.554 15.9207 375.554 17.68V36.244H379.831C382.622 36.244 384.715 35.2733 386.11 33.332C387.566 31.33 388.537 29.0247 389.022 26.416H391.115C390.933 28.4787 390.842 30.8447 390.842 33.514V37.154C390.842 39.884 391.024 43.4633 391.388 47.892H389.295C388.871 45.0407 387.9 42.705 386.383 40.885C384.927 39.0043 382.743 38.064 379.831 38.064H375.554V56.992C375.554 58.7513 375.706 60.0557 376.009 60.905C376.373 61.6937 376.95 62.2397 377.738 62.543C378.527 62.7857 379.71 62.907 381.287 62.907H385.2C389.508 62.907 392.875 61.6633 395.301 59.176C397.789 56.6887 399.518 52.5027 400.488 46.618H402.581C402.399 48.3167 402.308 50.5007 402.308 53.17ZM472.777 11.492C470.775 11.7953 469.288 12.2503 468.318 12.857C467.408 13.4637 466.771 14.4343 466.407 15.769C466.103 17.1037 465.952 19.136 465.952 21.866V65.182L463.495 65.091L461.129 65.182L424.729 19.955V52.806C424.729 55.4753 424.971 57.5077 425.457 58.903C425.942 60.2377 426.822 61.2083 428.096 61.815C429.37 62.4217 431.372 62.8767 434.102 63.18V65C431.372 64.818 427.914 64.727 423.728 64.727C420.391 64.727 417.752 64.818 415.811 65V63.18C417.813 62.8767 419.269 62.4217 420.179 61.815C421.149 61.2083 421.786 60.2377 422.09 58.903C422.454 57.5683 422.636 55.536 422.636 52.806V19.318C422.636 17.0127 422.454 15.3443 422.09 14.313C421.786 13.2817 421.149 12.584 420.179 12.22C419.269 11.856 417.813 11.6133 415.811 11.492V9.672C417.752 9.854 420.391 9.945 423.728 9.945C428.035 9.945 431.736 9.854 434.83 9.672L463.859 45.708V21.866C463.859 19.1967 463.616 17.1947 463.131 15.86C462.645 14.4647 461.735 13.4637 460.401 12.857C459.127 12.2503 457.155 11.7953 454.486 11.492V9.672C457.155 9.854 460.613 9.945 464.86 9.945C468.257 9.945 470.896 9.854 472.777 9.672V11.492ZM512.97 8.398C516.489 8.398 519.34 8.91366 521.524 9.945C523.708 10.9157 525.953 12.3717 528.258 14.313C528.925 14.859 529.502 15.132 529.987 15.132C531.2 15.132 531.989 13.312 532.353 9.672H534.446C534.203 13.312 534.082 19.682 534.082 28.782H531.989C531.382 25.506 530.776 23.14 530.169 21.684C529.562 20.1673 528.652 18.6507 527.439 17.134C525.74 15.132 523.799 13.585 521.615 12.493C519.492 11.3403 517.277 10.764 514.972 10.764C511.635 10.764 508.723 11.856 506.236 14.04C503.749 16.1633 501.807 19.227 500.412 23.231C499.077 27.235 498.41 31.9973 498.41 37.518C498.41 43.0993 499.138 47.892 500.594 51.896C502.111 55.8393 504.173 58.8423 506.782 60.905C509.391 62.907 512.333 63.908 515.609 63.908C517.975 63.908 520.28 63.362 522.525 62.27C524.83 61.1173 526.802 59.54 528.44 57.538C529.653 56.0213 530.533 54.3833 531.079 52.624C531.625 50.8647 532.141 48.3167 532.626 44.98H534.719C534.719 54.5047 534.84 61.178 535.083 65H532.99C532.808 63.1193 532.535 61.7543 532.171 60.905C531.807 59.995 531.322 59.54 530.715 59.54C530.23 59.54 529.623 59.813 528.895 60.359C526.65 62.2397 524.315 63.6957 521.888 64.727C519.461 65.7583 516.549 66.274 513.152 66.274C507.389 66.274 502.293 65.1517 497.864 62.907C493.435 60.6623 489.977 57.4167 487.49 53.17C485.063 48.9233 483.85 43.8273 483.85 37.882C483.85 32.1187 485.124 26.9923 487.672 22.503C490.22 18.0137 493.678 14.5557 498.046 12.129C502.475 9.64166 507.449 8.398 512.97 8.398ZM595.801 53.17C595.801 56.628 596.013 60.5713 596.438 65C592.494 64.818 585.851 64.727 576.509 64.727C564.011 64.727 554.608 64.818 548.299 65V63.18C550.361 63.0587 551.848 62.816 552.758 62.452C553.668 62.088 554.274 61.3903 554.578 60.359C554.942 59.3277 555.124 57.6593 555.124 55.354V19.318C555.124 17.0127 554.942 15.3443 554.578 14.313C554.274 13.2817 553.637 12.584 552.667 12.22C551.757 11.856 550.301 11.6133 548.299 11.492V9.672C554.608 9.854 564.011 9.945 576.509 9.945C585.002 9.945 591.038 9.854 594.618 9.672C594.193 13.7367 593.981 17.3767 593.981 20.592C593.981 22.958 594.072 24.8387 594.254 26.234H592.161C591.251 21.0167 589.673 17.316 587.429 15.132C585.184 12.8873 582.09 11.765 578.147 11.765H574.78C573.202 11.765 572.019 11.9167 571.231 12.22C570.442 12.4627 569.866 13.0087 569.502 13.858C569.198 14.6467 569.047 15.9207 569.047 17.68V36.244H573.324C576.114 36.244 578.207 35.2733 579.603 33.332C581.059 31.33 582.029 29.0247 582.515 26.416H584.608C584.426 28.4787 584.335 30.8447 584.335 33.514V37.154C584.335 39.884 584.517 43.4633 584.881 47.892H582.788C582.363 45.0407 581.392 42.705 579.876 40.885C578.42 39.0043 576.236 38.064 573.324 38.064H569.047V56.992C569.047 58.7513 569.198 60.0557 569.502 60.905C569.866 61.6937 570.442 62.2397 571.231 62.543C572.019 62.7857 573.202 62.907 574.78 62.907H578.693C583 62.907 586.367 61.6633 588.794 59.176C591.281 56.6887 593.01 52.5027 593.981 46.618H596.074C595.892 48.3167 595.801 50.5007 595.801 53.17Z" fill="white"/>
<path d="M50.9411 65L50.897 65.999L52.0705 66.0508L51.9344 64.8841L50.9411 65ZM0.436102 65H-0.563898V66.0282L0.463869 65.9996L0.436102 65ZM0.436102 63.18L0.375607 62.1818L-0.563898 62.2388V63.18H0.436102ZM4.8041 62.452L4.45298 61.5157L4.4428 61.5195L4.43271 61.5235L4.8041 62.452ZM6.7151 60.359L5.77211 60.0262L5.76325 60.0513L5.75574 60.0768L6.7151 60.359ZM6.7151 5.213L5.75574 5.49517L5.76325 5.52071L5.77211 5.54582L6.7151 5.213ZM4.8041 3.12L4.43271 4.04847L4.4428 4.05251L4.45298 4.05633L4.8041 3.12ZM0.436102 2.392H-0.563898V3.33323L0.375608 3.39017L0.436102 2.392ZM0.436102 0.571999L0.463869 -0.427616L-0.563898 -0.456165V0.571999H0.436102ZM49.1211 0.571999L50.1176 0.656036L50.2135 -0.482029L49.0728 -0.42683L49.1211 0.571999ZM48.7571 20.228V21.228H49.8899L49.7494 20.104L48.7571 20.228ZM46.6641 20.228L45.6738 20.3668L45.7945 21.228H46.6641V20.228ZM41.7501 6.578L41.0094 7.24981H41.0094L41.7501 6.578ZM23.9141 3.12L24.2504 4.06174H24.2504L23.9141 3.12ZM22.1851 4.94L23.1268 5.27633L23.1304 5.26632L23.1338 5.25623L22.1851 4.94ZM21.7301 31.694H20.7301V32.694H21.7301V31.694ZM31.9221 28.145L31.1098 27.5618L31.1048 27.5687L31.0999 27.5758L31.9221 28.145ZM35.4711 19.682V18.682H34.6543L34.4912 19.4824L35.4711 19.682ZM37.5641 19.682L38.5616 19.7532L38.6381 18.682H37.5641V19.682ZM37.8371 45.526V46.526H38.9052L38.8349 45.4602L37.8371 45.526ZM35.7441 45.526L34.7565 45.6831L34.8906 46.526H35.7441V45.526ZM21.7301 33.514V32.514H20.7301V33.514H21.7301ZM22.1851 60.723L21.2364 61.0392L21.2398 61.0493L21.2434 61.0593L22.1851 60.723ZM42.8421 58.539L42.0981 57.8709L42.0973 57.8717L42.8421 58.539ZM48.4841 43.524V42.524H47.6273L47.4959 43.3707L48.4841 43.524ZM50.5771 43.524L51.573 43.6145L51.6721 42.524H50.5771V43.524ZM49.3041 51.168C49.3041 56.7703 49.517 61.4231 49.9478 65.1159L51.9344 64.8841C51.5159 61.2969 51.3041 56.7284 51.3041 51.168H49.3041ZM50.9852 64.001C46.8357 63.8179 39.8698 63.727 30.1021 63.727V65.727C39.8691 65.727 46.7959 65.8181 50.897 65.999L50.9852 64.001ZM30.1021 63.727C16.8748 63.727 6.97478 63.818 0.408335 64.0004L0.463869 65.9996C7.00143 65.818 16.8787 65.727 30.1021 65.727V63.727ZM1.4361 65V63.18H-0.563898V65H1.4361ZM0.496597 64.1782C2.51788 64.0557 4.10876 63.8072 5.17549 63.3805L4.43271 61.5235C3.67944 61.8248 2.35833 62.0617 0.375607 62.1818L0.496597 64.1782ZM5.15523 63.3883C6.43271 62.9093 7.2863 61.9609 7.67447 60.6412L5.75574 60.0768C5.53724 60.8197 5.11683 61.2667 4.45298 61.5157L5.15523 63.3883ZM7.65809 60.6918C8.08238 59.4897 8.2611 57.6756 8.2611 55.354H6.2611C6.2611 57.6431 6.07583 59.1657 5.77211 60.0262L7.65809 60.6918ZM8.2611 55.354V10.218H6.2611V55.354H8.2611ZM8.2611 10.218C8.2611 7.89642 8.08238 6.08232 7.65809 4.88018L5.77211 5.54582C6.07583 6.40634 6.2611 7.92891 6.2611 10.218H8.2611ZM7.67447 4.93083C7.2863 3.61105 6.43271 2.66272 5.15522 2.18367L4.45298 4.05633C5.11683 4.30527 5.53724 4.75228 5.75574 5.49517L7.67447 4.93083ZM5.1755 2.19152C4.10876 1.76483 2.51788 1.51633 0.496597 1.39383L0.375608 3.39017C2.35833 3.51033 3.67944 3.74717 4.43271 4.04847L5.1755 2.19152ZM1.4361 2.392V0.571999H-0.563898V2.392H1.4361ZM0.408335 1.57161C6.97478 1.75401 16.8748 1.845 30.1021 1.845V-0.155003C16.8787 -0.155003 7.00143 -0.246017 0.463869 -0.427616L0.408335 1.57161ZM30.1021 1.845C39.0205 1.845 45.3816 1.75411 49.1694 1.57083L49.0728 -0.42683C45.338 -0.246117 39.0197 -0.155003 30.1021 -0.155003V1.845ZM48.1246 0.487961C47.6982 5.54391 47.4841 10.0621 47.4841 14.04H49.4841C49.4841 10.1312 49.6946 5.67075 50.1176 0.656036L48.1246 0.487961ZM47.4841 14.04C47.4841 16.7231 47.5751 18.8344 47.7648 20.352L49.7494 20.104C49.5751 18.7096 49.4841 16.6955 49.4841 14.04H47.4841ZM48.7571 19.228H46.6641V21.228H48.7571V19.228ZM47.6544 20.0892C46.7371 13.5458 45.0651 8.74449 42.4908 5.90619L41.0094 7.24981C43.1671 9.62884 44.7711 13.9275 45.6738 20.3668L47.6544 20.0892ZM42.4908 5.90619C39.8939 3.04295 36.2616 1.66499 31.7401 1.66499V3.66499C35.8333 3.66499 38.8743 4.8957 41.0094 7.24981L42.4908 5.90619ZM31.7401 1.66499H28.0091V3.66499H31.7401V1.66499ZM28.0091 1.66499C26.1106 1.66499 24.5989 1.81355 23.5778 2.17826L24.2504 4.06174C24.9279 3.81977 26.1463 3.66499 28.0091 3.66499V1.66499ZM23.5778 2.17826C22.4184 2.5923 21.6298 3.44368 21.2364 4.62377L23.1338 5.25623C23.3471 4.61631 23.7111 4.25436 24.2504 4.06174L23.5778 2.17826ZM21.2434 4.60366C20.878 5.62677 20.7301 7.17118 20.7301 9.126H22.7301C22.7301 7.19815 22.8856 5.95189 23.1268 5.27633L21.2434 4.60366ZM20.7301 9.126V31.694H22.7301V9.126H20.7301ZM21.7301 32.694H24.6421V30.694H21.7301V32.694ZM24.6421 32.694C28.1407 32.694 30.8953 31.3849 32.7443 28.7142L31.0999 27.5758C29.6729 29.6371 27.5742 30.694 24.6421 30.694V32.694ZM32.7344 28.7282C34.5267 26.2318 35.7596 23.2755 36.451 19.8816L34.4912 19.4824C33.8479 22.6405 32.7148 25.3262 31.1098 27.5618L32.7344 28.7282ZM35.4711 20.682H37.5641V18.682H35.4711V20.682ZM36.5666 19.6107C36.3826 22.1872 36.2911 25.0628 36.2911 28.236H38.2911C38.2911 25.0998 38.3816 22.2728 38.5616 19.7532L36.5666 19.6107ZM36.2911 28.236V32.604H38.2911V28.236H36.2911ZM36.2911 32.604C36.2911 35.7306 36.4748 40.0634 36.8393 45.5918L38.8349 45.4602C38.4714 39.9473 38.2911 35.6654 38.2911 32.604H36.2911ZM37.8371 44.526H35.7441V46.526H37.8371V44.526ZM36.7317 45.3689C36.0779 41.2593 34.7824 38.04 32.7475 35.8383C30.6834 33.605 27.9465 32.514 24.6421 32.514V34.514C27.4651 34.514 29.6421 35.425 31.2787 37.1957C32.9445 38.998 34.1363 41.7847 34.7565 45.6831L36.7317 45.3689ZM24.6421 32.514H21.7301V34.514H24.6421V32.514ZM20.7301 33.514V56.446H22.7301V33.514H20.7301ZM20.7301 56.446C20.7301 58.4082 20.8796 59.9688 21.2364 61.0392L23.1338 60.4068C22.8839 59.6572 22.7301 58.3665 22.7301 56.446H20.7301ZM21.2434 61.0593C21.6475 62.191 22.4461 62.9896 23.5778 63.3937L24.2504 61.5103C23.6835 61.3078 23.3293 60.9536 23.1268 60.3867L21.2434 61.0593ZM23.5778 63.3937C24.5989 63.7584 26.1106 63.907 28.0091 63.907V61.907C26.1463 61.907 24.9279 61.7522 24.2504 61.5103L23.5778 63.3937ZM28.0091 63.907H32.4681V61.907H28.0091V63.907ZM32.4681 63.907C37.0274 63.907 40.768 62.3529 43.5869 59.2062L42.0973 57.8717C39.6988 60.5491 36.5235 61.907 32.4681 61.907V63.907ZM43.5862 59.2071C46.4516 56.0161 48.3708 50.7758 49.4723 43.6773L47.4959 43.3707C46.4134 50.3469 44.5713 55.1166 42.0981 57.8709L43.5862 59.2071ZM48.4841 44.524H50.5771V42.524H48.4841V44.524ZM49.5812 43.4335C49.3954 45.477 49.3041 48.058 49.3041 51.168H51.3041C51.3041 48.09 51.3948 45.575 51.573 43.6145L49.5812 43.4335ZM113.803 58.539L114.617 57.9578L114.616 57.957L113.803 58.539ZM116.715 61.997L116.075 62.7652L116.715 61.997ZM119.445 63.089H120.445V62.194L119.555 62.0951L119.445 63.089ZM119.445 65L119.403 65.9991L120.445 66.0425V65H119.445ZM95.2389 64.909L95.2104 63.9094L95.1624 63.9108L95.1149 63.9167L95.2389 64.909ZM93.2369 65H92.2369V66H93.2369V65ZM93.2369 63.089V62.089H92.2369V63.089H93.2369ZM97.6049 62.816L97.801 63.7966L97.832 63.7904L97.8626 63.7822L97.6049 62.816ZM98.2419 59.995L97.4273 60.5751L97.4332 60.5832L98.2419 59.995ZM85.4109 41.977L86.2255 41.3969L85.4573 40.3182L84.63 41.3523L85.4109 41.977ZM78.1309 51.077L77.35 50.4523L77.3465 50.4568L78.1309 51.077ZM77.0389 61.633L76.4507 62.4417L76.4713 62.4567L76.4926 62.4706L77.0389 61.633ZM82.6809 63.18H83.6809V62.23L82.7321 62.1813L82.6809 63.18ZM82.6809 65L82.6283 65.9986L83.6809 66.054V65H82.6809ZM61.3869 65H60.3869V66.0868L61.4699 65.9965L61.3869 65ZM61.3869 63.18L61.0155 62.2515L60.3869 62.503V63.18H61.3869ZM67.3929 59.54L68.0068 60.3294L68.0136 60.3241L68.0202 60.3188L67.3929 59.54ZM72.8529 54.171L72.076 53.5414L72.072 53.5463L72.8529 54.171ZM84.1369 40.248L84.9138 40.8776L85.3931 40.2862L84.9506 39.6668L84.1369 40.248ZM66.8469 16.042L67.6607 15.4607L67.6568 15.4555L66.8469 16.042ZM63.9349 12.493L64.6076 11.7531L63.9349 12.493ZM61.2049 11.492H60.2049V12.4408L61.1524 12.4906L61.2049 11.492ZM61.2049 9.581L61.2449 8.58179L60.2049 8.5402V9.581H61.2049ZM85.5019 9.672L85.5322 10.6715L85.5792 10.6701L85.6259 10.6643L85.5019 9.672ZM87.4129 9.581H88.4129V8.581H87.4129V9.581ZM87.4129 11.492V12.492H88.4129V11.492H87.4129ZM83.0449 11.856L82.7872 10.8898L82.7787 10.892L82.7702 10.8945L83.0449 11.856ZM82.4079 14.586L81.5886 15.1595L81.5945 15.1677L82.4079 14.586ZM94.0559 30.875L93.2425 31.4567L94.0075 32.5265L94.8338 31.5033L94.0559 30.875ZM99.7889 23.777L99.0235 23.1334L99.0172 23.141L99.011 23.1487L99.7889 23.777ZM101.609 12.948L100.925 13.6775L100.948 13.6995L100.973 13.7199L101.609 12.948ZM97.2409 11.492H96.2409V12.4612L97.2097 12.4915L97.2409 11.492ZM97.2409 9.672L97.2935 8.67338L96.2409 8.61798V9.672H97.2409ZM116.351 9.672H117.351V8.55913L116.244 8.67769L116.351 9.672ZM116.351 11.492L116.645 12.4478L117.351 12.2306V11.492H116.351ZM106.432 18.954L105.664 18.3138L105.659 18.3199L106.432 18.954ZM95.2389 32.604L94.4656 31.9699L93.9796 32.5627L94.4258 33.1861L95.2389 32.604ZM112.989 59.1202C114.207 60.8257 115.241 62.0702 116.075 62.7652L117.355 61.2288C116.733 60.7105 115.825 59.6496 114.617 57.9578L112.989 59.1202ZM116.075 62.7652C116.976 63.5165 118.079 63.9434 119.334 64.0829L119.555 62.0951C118.626 61.9919 117.91 61.6909 117.355 61.2288L116.075 62.7652ZM118.445 63.089V65H120.445V63.089H118.445ZM119.487 64.0009C113.666 63.7583 109.732 63.636 107.706 63.636V65.636C109.684 65.636 113.576 65.7563 119.403 65.9991L119.487 64.0009ZM107.706 63.636C105.748 63.636 101.577 63.7275 95.2104 63.9094L95.2675 65.9086C101.641 65.7265 105.782 65.636 107.706 65.636V63.636ZM95.1149 63.9167C94.6899 63.9698 94.0702 64 93.2369 64V66C94.1023 66 94.8172 65.9695 95.3629 65.9013L95.1149 63.9167ZM94.2369 65V63.089H92.2369V65H94.2369ZM93.2369 64.089C95.2473 64.089 96.7875 63.9993 97.801 63.7966L97.4088 61.8354C96.6023 61.9967 95.2306 62.089 93.2369 62.089V64.089ZM97.8626 63.7822C98.3899 63.6416 98.8947 63.431 99.2836 63.0939C99.7049 62.7288 99.9699 62.2279 99.9699 61.633H97.9699C97.9699 61.6257 97.9726 61.6029 97.9844 61.5785C97.9951 61.5565 98.0004 61.5594 97.9737 61.5826C97.9076 61.6399 97.73 61.7477 97.3472 61.8498L97.8626 63.7822ZM99.9699 61.633C99.9699 60.8749 99.5612 60.1088 99.0506 59.4068L97.4332 60.5832C97.8933 61.2159 97.9699 61.5418 97.9699 61.633H99.9699ZM99.0565 59.4149L86.2255 41.3969L84.5963 42.5571L97.4273 60.5751L99.0565 59.4149ZM84.63 41.3523L77.35 50.4523L78.9118 51.7017L86.1918 42.6017L84.63 41.3523ZM77.3465 50.4568C75.2457 53.1136 74.0369 55.5529 74.0369 57.72H76.0369C76.0369 56.2471 76.8908 54.2577 78.9153 51.6972L77.3465 50.4568ZM74.0369 57.72C74.0369 59.6808 74.8596 61.2846 76.4507 62.4417L77.6271 60.8243C76.5488 60.0401 76.0369 59.0352 76.0369 57.72H74.0369ZM76.4926 62.4706C78.0854 63.5094 80.1577 64.0519 82.6297 64.1787L82.7321 62.1813C80.4721 62.0654 78.783 61.5766 77.5852 60.7954L76.4926 62.4706ZM81.6809 63.18V65H83.6809V63.18H81.6809ZM82.7335 64.0014C79.2507 63.8181 74.7116 63.727 69.1219 63.727V65.727C74.6949 65.727 79.1951 65.8179 82.6283 65.9986L82.7335 64.0014ZM69.1219 63.727C66.1306 63.727 63.5232 63.8185 61.3039 64.0035L61.4699 65.9965C63.6186 65.8175 66.1679 65.727 69.1219 65.727V63.727ZM62.3869 65V63.18H60.3869V65H62.3869ZM61.7583 64.1085C63.6928 63.3347 65.7767 62.0639 68.0068 60.3294L66.779 58.7506C64.6411 60.4134 62.721 61.5693 61.0155 62.2515L61.7583 64.1085ZM68.0202 60.3188C70.2498 58.5227 72.1243 56.6826 73.6338 54.7957L72.072 53.5463C70.6695 55.2994 68.904 57.0387 66.7656 58.7612L68.0202 60.3188ZM73.6298 54.8006L84.9138 40.8776L83.36 39.6184L72.076 53.5414L73.6298 54.8006ZM84.9506 39.6668L67.6606 15.4608L66.0332 16.6232L83.3232 40.8292L84.9506 39.6668ZM67.6568 15.4555C66.383 13.6964 65.3595 12.4366 64.6076 11.7531L63.2622 13.2329C63.845 13.7628 64.7628 14.8689 66.037 16.6285L67.6568 15.4555ZM64.6076 11.7531C63.7266 10.9521 62.5749 10.5627 61.2575 10.4934L61.1524 12.4906C62.1403 12.5426 62.8086 12.8205 63.2622 13.2329L64.6076 11.7531ZM62.2049 11.492V9.581H60.2049V11.492H62.2049ZM61.1649 10.5802C67.2262 10.8227 71.1606 10.945 72.9439 10.945V8.945C71.2085 8.945 67.3169 8.82468 61.2449 8.58179L61.1649 10.5802ZM72.9439 10.945C75.3269 10.945 79.5268 10.8535 85.5322 10.6715L85.4716 8.67245C79.465 8.85447 75.2929 8.945 72.9439 8.945V10.945ZM85.6259 10.6643C86.0531 10.6109 86.6439 10.581 87.4129 10.581V8.581C86.6046 8.581 85.9214 8.61177 85.3779 8.67972L85.6259 10.6643ZM86.4129 9.581V11.492H88.4129V9.581H86.4129ZM87.4129 10.492C85.3987 10.492 83.8315 10.6113 82.7872 10.8898L83.3026 12.8222C84.0783 12.6154 85.4231 12.492 87.4129 12.492V10.492ZM82.7702 10.8945C82.2664 11.0384 81.7814 11.2551 81.409 11.601C81.0069 11.9743 80.7709 12.4693 80.7709 13.039H82.7709C82.7709 13.036 82.7706 13.0502 82.7619 13.0695C82.7538 13.0875 82.7493 13.0857 82.7699 13.0665C82.8221 13.018 82.974 12.9163 83.3196 12.8175L82.7702 10.8945ZM80.7709 13.039C80.7709 13.7718 81.1238 14.4954 81.5887 15.1595L83.2271 14.0125C82.8426 13.4632 82.7709 13.1556 82.7709 13.039H80.7709ZM81.5945 15.1677L93.2425 31.4567L94.8693 30.2933L83.2213 14.0043L81.5945 15.1677ZM94.8338 31.5033L100.567 24.4053L99.011 23.1487L93.278 30.2467L94.8338 31.5033ZM100.554 24.4206C102.871 21.6659 104.156 18.9859 104.156 16.406H102.156C102.156 18.3155 101.196 20.5494 99.0235 23.1334L100.554 24.4206ZM104.156 16.406C104.156 14.6817 103.529 13.234 102.245 12.1761L100.973 13.7199C101.751 14.3607 102.156 15.2183 102.156 16.406H104.156ZM102.293 12.2185C101.078 11.0799 99.347 10.5573 97.2721 10.4925L97.2097 12.4915C99.0175 12.548 100.198 12.9961 100.925 13.6775L102.293 12.2185ZM98.2409 11.492V9.672H96.2409V11.492H98.2409ZM97.1883 10.6706C100.667 10.8537 104.476 10.945 108.616 10.945V8.945C104.505 8.945 100.731 8.85431 97.2935 8.67338L97.1883 10.6706ZM108.616 10.945C112.081 10.945 114.703 10.8542 116.457 10.6663L116.244 8.67769C114.601 8.85376 112.067 8.945 108.616 8.945V10.945ZM115.351 9.672V11.492H117.351V9.672H115.351ZM116.057 10.5362C114.337 11.0655 112.565 12.0423 110.742 13.4253L111.95 15.0187C113.646 13.7324 115.21 12.8892 116.645 12.4478L116.057 10.5362ZM110.742 13.4253C108.918 14.809 107.225 16.4398 105.664 18.3138L107.2 19.5942C108.672 17.8282 110.256 16.3044 111.95 15.0187L110.742 13.4253ZM105.659 18.3199L94.4656 31.9699L96.0122 33.2381L107.205 19.5881L105.659 18.3199ZM94.4258 33.1861L112.99 59.121L114.616 57.957L96.0521 32.0219L94.4258 33.1861ZM148.342 42.614V41.614H147.342V42.614H148.342ZM148.888 60.359L147.945 60.6918L148.888 60.359ZM150.89 62.452L150.539 63.3883L150.548 63.3917L150.558 63.395L150.89 62.452ZM155.713 63.18H156.713V62.234L155.769 62.1815L155.713 63.18ZM155.713 65L155.662 65.9987L156.713 66.0531V65H155.713ZM127.594 65H126.594V66.0659L127.658 65.998L127.594 65ZM127.594 63.18L127.536 62.1817L126.594 62.2371V63.18H127.594ZM132.053 62.452L132.425 63.3805L132.053 62.452ZM133.873 60.359L132.93 60.0262L132.922 60.0513L132.914 60.0768L133.873 60.359ZM133.873 14.313L132.914 14.5952L132.922 14.6207L132.93 14.6458L133.873 14.313ZM131.962 12.22L131.591 13.1485L131.601 13.1525L131.611 13.1563L131.962 12.22ZM127.594 11.492H126.594V12.4332L127.534 12.4902L127.594 11.492ZM127.594 9.672L127.658 8.67403L126.594 8.60613V9.672H127.594ZM139.788 9.945V10.945L139.797 10.945L139.788 9.945ZM150.799 9.854L150.808 10.854L150.827 10.8538L150.847 10.8529L150.799 9.854ZM172.73 13.767L172.158 14.5868L172.165 14.592L172.173 14.597L172.73 13.767ZM172.457 37.518L173.104 38.2805L173.105 38.2797L172.457 37.518ZM150.435 12.129L149.961 11.2485V11.2485L150.435 12.129ZM148.797 14.404L147.834 14.1364L148.797 14.404ZM148.342 40.794H147.342V41.794H148.342V40.794ZM161.628 15.041L160.786 15.5807L160.791 15.5882L160.796 15.5957L161.628 15.041ZM147.342 42.614V55.354H149.342V42.614H147.342ZM147.342 55.354C147.342 57.6756 147.521 59.4897 147.945 60.6918L149.831 60.0262C149.528 59.1657 149.342 57.6431 149.342 55.354H147.342ZM147.945 60.6918C148.402 61.9844 149.275 62.9142 150.539 63.3883L151.242 61.5157C150.565 61.2618 150.103 60.7963 149.831 60.0262L147.945 60.6918ZM150.558 63.395C151.729 63.8083 153.454 64.056 155.658 64.1785L155.769 62.1815C153.605 62.0613 152.115 61.8237 151.223 61.509L150.558 63.395ZM154.713 63.18V65H156.713V63.18H154.713ZM155.765 64.0013C152.22 63.818 147.073 63.727 140.334 63.727V65.727C147.064 65.727 152.169 65.818 155.662 65.9987L155.765 64.0013ZM140.334 63.727C134.687 63.727 130.415 63.8179 127.531 64.002L127.658 65.998C130.477 65.8181 134.697 65.727 140.334 65.727V63.727ZM128.594 65V63.18H126.594V65H128.594ZM127.653 64.1783C129.731 64.056 131.355 63.8082 132.425 63.3805L131.682 61.5235C130.931 61.8238 129.583 62.0613 127.536 62.1817L127.653 64.1783ZM132.425 63.3805C133.65 62.8905 134.452 61.9341 134.833 60.6412L132.914 60.0768C132.688 60.8466 132.277 61.2855 131.682 61.5235L132.425 63.3805ZM134.816 60.6918C135.241 59.4897 135.419 57.6756 135.419 55.354H133.419C133.419 57.6431 133.234 59.1657 132.93 60.0262L134.816 60.6918ZM135.419 55.354V19.318H133.419V55.354H135.419ZM135.419 19.318C135.419 16.9964 135.241 15.1823 134.816 13.9802L132.93 14.6458C133.234 15.5063 133.419 17.0289 133.419 19.318H135.419ZM134.833 14.0308C134.445 12.7111 133.591 11.7627 132.314 11.2837L131.611 13.1563C132.275 13.4053 132.696 13.8523 132.914 14.5952L134.833 14.0308ZM132.334 11.2915C131.267 10.8648 129.676 10.6163 127.655 10.4938L127.534 12.4902C129.517 12.6103 130.838 12.8472 131.591 13.1485L132.334 11.2915ZM128.594 11.492V9.672H126.594V11.492H128.594ZM127.531 10.67C130.414 10.854 134.504 10.945 139.788 10.945V8.945C134.517 8.945 130.477 8.85399 127.658 8.67403L127.531 10.67ZM139.797 10.945L150.808 10.854L150.791 8.85403L139.78 8.94503L139.797 10.945ZM150.847 10.8529C152.101 10.7931 153.541 10.763 155.167 10.763V8.763C153.518 8.763 152.045 8.79353 150.752 8.85513L150.847 10.8529ZM155.167 10.763C162.976 10.763 168.584 12.091 172.158 14.5868L173.303 12.9472C169.233 10.1043 163.132 8.763 155.167 8.763V10.763ZM172.173 14.597C175.767 17.0118 177.554 20.4248 177.554 24.96H179.554C179.554 19.7886 177.459 15.7396 173.288 12.9369L172.173 14.597ZM177.554 24.96C177.554 29.5534 175.673 33.4698 171.809 36.7563L173.105 38.2797C177.372 34.6502 179.554 30.1946 179.554 24.96H177.554ZM171.81 36.7555C168.084 39.9172 161.652 41.614 152.255 41.614V43.614C161.787 43.614 168.823 41.9135 173.104 38.2805L171.81 36.7555ZM152.255 41.614H148.342V43.614H152.255V41.614ZM153.984 10.492C152.35 10.492 150.968 10.7064 149.961 11.2485L150.909 13.0095C151.48 12.7022 152.464 12.492 153.984 12.492V10.492ZM149.961 11.2485C148.873 11.8346 148.19 12.8557 147.834 14.1364L149.761 14.6716C150.012 13.7683 150.421 13.2728 150.909 13.0095L149.961 11.2485ZM147.834 14.1364C147.493 15.3626 147.342 17.1108 147.342 19.318H149.342C149.342 17.1572 149.495 15.6294 149.761 14.6716L147.834 14.1364ZM147.342 19.318V40.794H149.342V19.318H147.342ZM148.342 41.794H151.345V39.794H148.342V41.794ZM151.345 41.794C156.299 41.794 160.006 40.411 162.091 37.3533L160.438 36.2267C158.883 38.5077 155.977 39.794 151.345 39.794V41.794ZM162.091 37.3533C164.061 34.4628 164.994 30.6329 164.994 25.961H162.994C162.994 30.3891 162.107 33.7785 160.438 36.2267L162.091 37.3533ZM164.994 25.961C164.994 20.9767 164.201 17.0975 162.46 14.4863L160.796 15.5957C162.21 17.7165 162.994 21.1173 162.994 25.961H164.994ZM162.47 14.5013C160.719 11.7695 157.799 10.492 153.984 10.492V12.492C157.329 12.492 159.504 13.5805 160.786 15.5807L162.47 14.5013ZM236.735 65L236.689 65.9989L237.841 66.0521L237.731 64.9045L236.735 65ZM188.596 65H187.596V66.0293L188.625 65.9996L188.596 65ZM188.596 63.18L188.538 62.1817L187.596 62.2371V63.18H188.596ZM193.055 62.452L193.427 63.3805L193.055 62.452ZM194.875 60.359L193.932 60.0262L193.924 60.0513L193.916 60.0768L194.875 60.359ZM194.875 14.313L193.916 14.5952L193.924 14.6207L193.932 14.6458L194.875 14.313ZM192.964 12.22L192.593 13.1485L192.603 13.1525L192.613 13.1563L192.964 12.22ZM188.596 11.492H187.596V12.4332L188.536 12.4902L188.596 11.492ZM188.596 9.672L188.625 8.67241L187.596 8.64273V9.672H188.596ZM234.915 9.672L235.91 9.77591L236.031 8.61396L234.865 8.67329L234.915 9.672ZM234.551 26.234V27.234H235.69L235.543 26.1047L234.551 26.234ZM232.458 26.234L231.473 26.4058L231.618 27.234H232.458V26.234ZM227.726 15.132L227.019 15.8392L227.029 15.8487L227.726 15.132ZM211.528 12.22L211.822 13.1758L211.855 13.1657L211.887 13.1533L211.528 12.22ZM209.799 13.858L208.88 13.4641L208.873 13.4814L208.866 13.499L209.799 13.858ZM209.344 36.244H208.344V37.244H209.344V36.244ZM219.9 33.332L219.092 32.7438L219.088 32.7484L219.9 33.332ZM222.812 26.416V25.416H221.981L221.829 26.2331L222.812 26.416ZM224.905 26.416L225.902 26.5039L225.997 25.416H224.905V26.416ZM225.178 47.892V48.892H226.264L226.175 47.8101L225.178 47.892ZM223.085 47.892L222.096 48.0393L222.223 48.892H223.085V47.892ZM220.173 40.885L219.383 41.4972L219.394 41.5114L219.405 41.5252L220.173 40.885ZM209.344 38.064V37.064H208.344V38.064H209.344ZM209.799 60.905L208.858 61.2413L208.873 61.2835L208.891 61.3241L209.799 60.905ZM211.528 62.543L211.169 63.4763L211.201 63.4887L211.234 63.4988L211.528 62.543ZM229.091 59.176L228.384 58.4688L228.376 58.4777L229.091 59.176ZM234.278 46.618V45.618H233.43L233.292 46.4553L234.278 46.618ZM236.371 46.618L237.366 46.7245L237.484 45.618H236.371V46.618ZM235.098 53.17C235.098 56.6674 235.313 60.6435 235.74 65.0955L237.731 64.9045C237.308 60.4991 237.098 56.5886 237.098 53.17H235.098ZM236.781 64.0011C232.813 63.8179 226.149 63.727 216.806 63.727V65.727C226.149 65.727 232.771 65.8181 236.689 65.9989L236.781 64.0011ZM216.806 63.727C204.307 63.727 194.892 63.818 188.568 64.0004L188.625 65.9996C194.92 65.818 204.311 65.727 216.806 65.727V63.727ZM189.596 65V63.18H187.596V65H189.596ZM188.655 64.1783C190.733 64.056 192.357 63.8082 193.427 63.3805L192.684 61.5235C191.933 61.8238 190.585 62.0613 188.538 62.1817L188.655 64.1783ZM193.427 63.3805C194.652 62.8905 195.454 61.9341 195.835 60.6412L193.916 60.0768C193.69 60.8466 193.279 61.2855 192.684 61.5235L193.427 63.3805ZM195.818 60.6918C196.243 59.4897 196.421 57.6756 196.421 55.354H194.421C194.421 57.6431 194.236 59.1657 193.932 60.0262L195.818 60.6918ZM196.421 55.354V19.318H194.421V55.354H196.421ZM196.421 19.318C196.421 16.9964 196.243 15.1823 195.818 13.9802L193.932 14.6458C194.236 15.5063 194.421 17.0289 194.421 19.318H196.421ZM195.835 14.0308C195.447 12.7111 194.593 11.7627 193.316 11.2837L192.613 13.1563C193.277 13.4053 193.698 13.8523 193.916 14.5952L195.835 14.0308ZM193.336 11.2915C192.269 10.8648 190.678 10.6163 188.657 10.4938L188.536 12.4902C190.519 12.6103 191.84 12.8472 192.593 13.1485L193.336 11.2915ZM189.596 11.492V9.672H187.596V11.492H189.596ZM188.568 10.6716C194.892 10.854 204.307 10.945 216.806 10.945V8.945C204.311 8.945 194.92 8.85398 188.625 8.67241L188.568 10.6716ZM216.806 10.945C225.3 10.945 231.359 10.8541 234.966 10.6707L234.865 8.67329C231.313 8.85387 225.299 8.945 216.806 8.945V10.945ZM233.921 9.56808C233.493 13.6585 233.278 17.3342 233.278 20.592H235.278C235.278 17.4192 235.488 13.8148 235.91 9.77591L233.921 9.56808ZM233.278 20.592C233.278 22.9764 233.37 24.906 233.56 26.3633L235.543 26.1047C235.369 24.7713 235.278 22.9396 235.278 20.592H233.278ZM234.551 25.234H232.458V27.234H234.551V25.234ZM233.444 26.0622C232.52 20.7665 230.892 16.8167 228.424 14.4153L227.029 15.8487C229.05 17.8153 230.577 21.2668 231.473 26.4058L233.444 26.0622ZM228.433 14.4249C225.958 11.9495 222.585 10.765 218.444 10.765V12.765C222.19 12.765 225.005 13.8251 227.019 15.8391L228.433 14.4249ZM218.444 10.765H215.077V12.765H218.444V10.765ZM215.077 10.765C213.465 10.765 212.133 10.9161 211.169 11.2867L211.887 13.1533C212.501 12.9172 213.535 12.765 215.077 12.765V10.765ZM211.234 11.2642C210.129 11.6043 209.344 12.3811 208.88 13.4641L210.719 14.2519C210.982 13.6362 211.35 13.3211 211.822 13.1758L211.234 11.2642ZM208.866 13.499C208.493 14.4701 208.344 15.9016 208.344 17.68H210.344C210.344 15.9397 210.5 14.8232 210.733 14.217L208.866 13.499ZM208.344 17.68V36.244H210.344V17.68H208.344ZM209.344 37.244H213.621V35.244H209.344V37.244ZM213.621 37.244C216.672 37.244 219.096 36.1646 220.712 33.9156L219.088 32.7484C217.914 34.382 216.152 35.244 213.621 35.244V37.244ZM220.709 33.9202C222.259 31.7892 223.285 29.3432 223.796 26.5989L221.829 26.2331C221.369 28.7061 220.454 30.8708 219.092 32.7438L220.709 33.9202ZM222.812 27.416H224.905V25.416H222.812V27.416ZM223.909 26.3281C223.724 28.4269 223.632 30.8232 223.632 33.514H225.632C225.632 30.8661 225.723 28.5304 225.902 26.5039L223.909 26.3281ZM223.632 33.514V37.154H225.632V33.514H223.632ZM223.632 37.154C223.632 39.9229 223.817 43.5326 224.182 47.9739L226.175 47.8101C225.812 43.3941 225.632 39.8451 225.632 37.154H223.632ZM225.178 46.892H223.085V48.892H225.178V46.892ZM224.074 47.7447C223.629 44.7513 222.599 42.2335 220.942 40.2448L219.405 41.5252C220.781 43.1765 221.693 45.33 222.096 48.0393L224.074 47.7447ZM220.964 40.2728C219.276 38.0924 216.766 37.064 213.621 37.064V39.064C216.301 39.064 218.159 39.9162 219.383 41.4972L220.964 40.2728ZM213.621 37.064H209.344V39.064H213.621V37.064ZM208.344 38.064V56.992H210.344V38.064H208.344ZM208.344 56.992C208.344 58.7784 208.494 60.2245 208.858 61.2413L210.741 60.5687C210.498 59.8869 210.344 58.7243 210.344 56.992H208.344ZM208.891 61.3241C209.361 62.3417 210.13 63.0767 211.169 63.4763L211.887 61.6097C211.349 61.4026 210.966 61.0456 210.707 60.4859L208.891 61.3241ZM211.234 63.4988C212.169 63.7865 213.474 63.907 215.077 63.907V61.907C213.526 61.907 212.465 61.7848 211.822 61.5872L211.234 63.4988ZM215.077 63.907H218.99V61.907H215.077V63.907ZM218.99 63.907C223.499 63.907 227.149 62.5987 229.807 59.8743L228.376 58.4777C226.18 60.728 223.097 61.907 218.99 61.907V63.907ZM229.798 59.8831C232.505 57.1767 234.282 52.7427 235.265 46.7807L233.292 46.4553C232.334 52.2626 230.653 56.2006 228.384 58.4689L229.798 59.8831ZM234.278 47.618H236.371V45.618H234.278V47.618ZM235.377 46.5115C235.19 48.2594 235.098 50.4825 235.098 53.17H237.098C237.098 50.5189 237.189 48.374 237.366 46.7245L235.377 46.5115ZM308.387 61.178L309.146 61.8288L309.771 61.0991L309.067 60.4452L308.387 61.178ZM303.473 65L303.895 65.9062L303.473 65ZM288.639 64.272L288.061 65.0875L288.639 64.272ZM285 58.903L285.971 58.6666L285.971 58.6643L285 58.903ZM282.361 48.165L281.379 48.3577L281.384 48.3808L281.389 48.4037L282.361 48.165ZM279.267 41.431L278.613 42.1878L278.631 42.2036L278.65 42.2185L279.267 41.431ZM270.258 39.702V38.702H269.258V39.702H270.258ZM270.712 60.359L269.753 60.6412L269.761 60.6667L269.77 60.6918L270.712 60.359ZM272.624 62.452L272.252 63.3805L272.262 63.3845L272.272 63.3883L272.624 62.452ZM277.082 63.18H278.082V62.2388L277.143 62.1818L277.082 63.18ZM277.082 65L277.03 65.9986L278.082 66.054V65H277.082ZM249.509 65H248.509V66.0659L249.573 65.998L249.509 65ZM249.509 63.18L249.451 62.1817L248.509 62.2371V63.18H249.509ZM253.969 62.452L254.34 63.3805L253.969 62.452ZM255.788 60.359L254.846 60.0262L254.837 60.0513L254.829 60.0768L255.788 60.359ZM255.788 14.313L254.829 14.5952L254.837 14.6207L254.846 14.6458L255.788 14.313ZM253.969 12.22L254.34 11.2915H254.34L253.969 12.22ZM249.509 11.492H248.509V12.4349L249.451 12.4903L249.509 11.492ZM249.509 9.672L249.573 8.67403L248.509 8.60613V9.672H249.509ZM261.703 9.945V10.945L261.712 10.945L261.703 9.945ZM272.077 9.854L272.086 10.854L272.107 10.8538L272.127 10.8528L272.077 9.854ZM294.372 13.494L293.845 14.3434L293.852 14.3481L293.86 14.3526L294.372 13.494ZM295.646 33.605L294.983 32.8568L295.646 33.605ZM279.539 39.065L279.435 38.0704L279.539 40.065V39.065ZM282.178 39.338L281.982 40.3186L282.025 40.3271L282.068 40.3319L282.178 39.338ZM292.461 42.25L291.956 43.1131L291.965 43.1182L292.461 42.25ZM297.466 49.166L298.44 48.9363L298.437 48.9235L297.466 49.166ZM299.378 57.265L298.404 57.4947L298.407 57.5075L299.378 57.265ZM307.112 59.995L307.793 59.2622L307.087 58.6065L306.405 59.2879L307.112 59.995ZM271.987 12.129L271.45 11.2853L271.987 12.129ZM270.621 14.404L269.645 14.1871L270.621 14.404ZM270.258 37.882H269.258V38.882H270.258V37.882ZM283.362 34.424L282.556 33.8308L282.551 33.8378L282.546 33.8448L283.362 34.424ZM283.362 14.768L282.561 15.368L282.567 15.375L282.572 15.3819L283.362 14.768ZM307.627 60.5272C306.253 62.1301 304.727 63.3112 303.05 64.0938L303.895 65.9062C305.858 64.9901 307.608 63.6232 309.146 61.8288L307.627 60.5272ZM303.05 64.0938C301.401 64.8633 299.281 65.274 296.647 65.274V67.274C299.474 67.274 301.904 66.8353 303.895 65.9062L303.05 64.0938ZM296.647 65.274C293.299 65.274 290.864 64.6248 289.218 63.4565L288.061 65.0875C290.176 66.5885 293.08 67.274 296.647 67.274V65.274ZM289.218 63.4565C287.534 62.2615 286.46 60.6777 285.971 58.6666L284.028 59.1394C284.631 61.6177 285.983 63.6132 288.061 65.0875L289.218 63.4565ZM285.971 58.6643L283.332 47.9263L281.389 48.4037L284.028 59.1417L285.971 58.6643ZM283.342 47.9723C282.666 44.5328 281.579 41.9713 279.883 40.6435L278.65 42.2185C279.744 43.0747 280.72 45.0026 281.379 48.3577L283.342 47.9723ZM279.92 40.6742C278.331 39.3013 276.051 38.702 273.26 38.702V40.702C275.809 40.702 277.533 41.2553 278.613 42.1878L279.92 40.6742ZM273.26 38.702H270.258V40.702H273.26V38.702ZM269.258 39.702V55.354H271.258V39.702H269.258ZM269.258 55.354C269.258 57.6715 269.407 59.4629 269.753 60.6412L271.672 60.0768C271.412 59.1925 271.258 57.6471 271.258 55.354H269.258ZM269.77 60.6918C270.217 61.9596 271.042 62.8964 272.252 63.3805L272.995 61.5235C272.385 61.2796 271.936 60.8211 271.655 60.0262L269.77 60.6918ZM272.272 63.3883C273.387 63.8063 274.995 64.0553 277.022 64.1782L277.143 62.1818C275.166 62.062 273.801 61.8257 272.975 61.5157L272.272 63.3883ZM276.082 63.18V65H278.082V63.18H276.082ZM277.135 64.0014C273.651 63.818 268.686 63.727 262.25 63.727V65.727C268.675 65.727 273.598 65.818 277.03 65.9986L277.135 64.0014ZM262.25 63.727C256.602 63.727 252.33 63.8179 249.446 64.002L249.573 65.998C252.392 65.8181 256.613 65.727 262.25 65.727V63.727ZM250.509 65V63.18H248.509V65H250.509ZM249.568 64.1783C251.646 64.056 253.271 63.8082 254.34 63.3805L253.597 61.5235C252.846 61.8238 251.498 62.0613 249.451 62.1817L249.568 64.1783ZM254.34 63.3805C255.565 62.8905 256.368 61.9341 256.748 60.6412L254.829 60.0768C254.603 60.8466 254.192 61.2855 253.597 61.5235L254.34 63.3805ZM256.731 60.6918C257.156 59.4897 257.335 57.6756 257.335 55.354H255.335C255.335 57.6431 255.149 59.1657 254.846 60.0262L256.731 60.6918ZM257.335 55.354V19.318H255.335V55.354H257.335ZM257.335 19.318C257.335 16.9964 257.156 15.1823 256.731 13.9802L254.846 14.6458C255.149 15.5063 255.335 17.0289 255.335 19.318H257.335ZM256.748 14.0308C256.368 12.7379 255.565 11.7815 254.34 11.2915L253.597 13.1485C254.192 13.3865 254.603 13.8254 254.829 14.5952L256.748 14.0308ZM254.34 11.2915C253.271 10.8638 251.646 10.616 249.568 10.4937L249.451 12.4903C251.498 12.6107 252.846 12.8482 253.597 13.1485L254.34 11.2915ZM250.509 11.492V9.672H248.509V11.492H250.509ZM249.446 10.67C252.329 10.854 256.419 10.945 261.703 10.945V8.945C256.432 8.945 252.393 8.85399 249.573 8.67403L249.446 10.67ZM261.712 10.945L272.086 10.854L272.069 8.85404L261.695 8.94504L261.712 10.945ZM272.127 10.8528C273.321 10.7931 274.669 10.763 276.172 10.763V8.763C274.643 8.763 273.261 8.79357 272.028 8.85525L272.127 10.8528ZM276.172 10.763C284.234 10.763 290.077 12.0025 293.845 14.3434L294.9 12.6446C290.66 10.0108 284.369 8.763 276.172 8.763V10.763ZM293.86 14.3526C297.653 16.6171 299.47 19.7043 299.47 23.686H301.47C301.47 18.9317 299.221 15.2242 294.885 12.6354L293.86 14.3526ZM299.47 23.686C299.47 27.119 298.018 30.1653 294.983 32.8568L296.31 34.3532C299.706 31.342 301.47 27.7757 301.47 23.686H299.47ZM294.983 32.8568C292.003 35.4991 286.89 37.2889 279.435 38.0704L279.644 40.0595C287.235 39.2637 292.859 37.4135 296.31 34.3532L294.983 32.8568ZM279.539 40.065C280.317 40.065 281.131 40.1483 281.982 40.3186L282.375 38.3574C281.406 38.1637 280.46 38.065 279.539 38.065V40.065ZM282.068 40.3319C286.363 40.8091 289.636 41.7551 291.956 43.113L292.967 41.387C290.312 39.8329 286.73 38.8376 282.289 38.3441L282.068 40.3319ZM291.965 43.1182C294.25 44.4237 295.766 46.4868 296.496 49.4085L298.437 48.9235C297.59 45.5359 295.769 42.9883 292.958 41.3818L291.965 43.1182ZM296.493 49.3956L298.404 57.4947L300.351 57.0354L298.44 48.9363L296.493 49.3956ZM298.407 57.5075C298.843 59.2487 299.403 60.6408 300.156 61.5452L301.693 60.2648C301.233 59.7132 300.762 58.6786 300.348 57.0225L298.407 57.5075ZM300.156 61.5452C300.944 62.4903 301.979 62.997 303.199 62.997V60.997C302.6 60.997 302.118 60.7757 301.693 60.2648L300.156 61.5452ZM303.199 62.997C304.843 62.997 306.387 62.1346 307.82 60.7021L306.405 59.2879C305.169 60.5247 304.104 60.997 303.199 60.997V62.997ZM306.432 60.7278L307.706 61.9108L309.067 60.4452L307.793 59.2622L306.432 60.7278ZM274.99 10.492C273.581 10.492 272.353 10.7103 271.45 11.2853L272.523 12.9727C272.954 12.6984 273.729 12.492 274.99 12.492V10.492ZM271.45 11.2853C270.48 11.9026 269.921 12.9446 269.645 14.1871L271.598 14.6209C271.807 13.6794 272.159 13.2047 272.523 12.9727L271.45 11.2853ZM269.645 14.1871C269.378 15.3892 269.258 17.1162 269.258 19.318H271.258C271.258 17.1518 271.379 15.6028 271.598 14.6209L269.645 14.1871ZM269.258 19.318V37.882H271.258V19.318H269.258ZM270.258 38.882H274.171V36.882H270.258V38.882ZM274.171 38.882C278.789 38.882 282.261 37.6988 284.177 35.0032L282.546 33.8448C281.186 35.7599 278.53 36.882 274.171 36.882V38.882ZM284.167 35.0172C286.038 32.477 286.909 28.992 286.909 24.687H284.909C284.909 28.754 284.082 31.7603 282.556 33.8308L284.167 35.0172ZM286.909 24.687C286.909 20.1601 286.047 16.5914 284.151 14.1541L282.572 15.3819C284.074 17.3126 284.909 20.3565 284.909 24.687H286.909ZM284.161 14.168C282.261 11.634 279.1 10.492 274.99 10.492V12.492C278.765 12.492 281.186 13.534 282.561 15.368L284.161 14.168ZM343.15 11.492L343.209 12.4903L344.15 12.4349V11.492H343.15ZM338.691 12.22L338.32 11.2915L338.691 12.22ZM336.78 14.313L335.837 13.9802L335.828 14.0053L335.821 14.0308L336.78 14.313ZM336.78 60.359L335.821 60.6412L335.828 60.6667L335.837 60.6918L336.78 60.359ZM338.691 62.452L339.062 61.5235L338.691 62.452ZM343.15 63.18H344.15V62.2371L343.209 62.1817L343.15 63.18ZM343.15 65L343.091 65.9983L344.15 66.0606V65H343.15ZM315.577 65H314.577V66.0618L315.637 65.9982L315.577 65ZM315.577 63.18L315.518 62.1817L314.577 62.2371V63.18H315.577ZM320.036 62.452L320.407 63.3805L320.036 62.452ZM321.856 60.359L320.913 60.0262L320.904 60.0513L320.897 60.0768L321.856 60.359ZM321.856 14.313L320.897 14.5952L320.904 14.6207L320.913 14.6458L321.856 14.313ZM319.945 12.22L319.574 13.1485L319.584 13.1525L319.594 13.1563L319.945 12.22ZM315.577 11.492H314.577V12.4332L315.516 12.4902L315.577 11.492ZM315.577 9.672L315.638 8.67387L314.577 8.6089V9.672H315.577ZM343.15 9.672H344.15V8.61144L343.091 8.67372L343.15 9.672ZM343.091 10.4937C341.013 10.616 339.389 10.8638 338.32 11.2915L339.062 13.1485C339.813 12.8482 341.161 12.6107 343.209 12.4903L343.091 10.4937ZM338.32 11.2915C337.109 11.7756 336.284 12.7124 335.837 13.9802L337.723 14.6458C338.003 13.8509 338.453 13.3924 339.062 13.1485L338.32 11.2915ZM335.821 14.0308C335.474 15.2091 335.325 17.0005 335.325 19.318H337.325C337.325 17.0248 337.479 15.4795 337.739 14.5952L335.821 14.0308ZM335.325 19.318V55.354H337.325V19.318H335.325ZM335.325 55.354C335.325 57.6715 335.474 59.4629 335.821 60.6412L337.739 60.0768C337.479 59.1925 337.325 57.6471 337.325 55.354H335.325ZM335.837 60.6918C336.284 61.9596 337.109 62.8964 338.32 63.3805L339.062 61.5235C338.453 61.2796 338.003 60.8211 337.723 60.0262L335.837 60.6918ZM338.32 63.3805C339.389 63.8082 341.013 64.056 343.091 64.1783L343.209 62.1817C341.161 62.0613 339.813 61.8238 339.062 61.5235L338.32 63.3805ZM342.15 63.18V65H344.15V63.18H342.15ZM343.209 64.0017C340.085 63.818 335.572 63.727 329.682 63.727V65.727C335.561 65.727 340.027 65.818 343.091 65.9983L343.209 64.0017ZM329.682 63.727C323.309 63.727 318.582 63.8179 315.517 64.0018L315.637 65.9982C318.639 65.8181 323.315 65.727 329.682 65.727V63.727ZM316.577 65V63.18H314.577V65H316.577ZM315.636 64.1783C317.714 64.056 319.338 63.8082 320.407 63.3805L319.665 61.5235C318.914 61.8238 317.565 62.0613 315.518 62.1817L315.636 64.1783ZM320.407 63.3805C321.632 62.8905 322.435 61.9341 322.815 60.6412L320.897 60.0768C320.67 60.8466 320.26 61.2855 319.665 61.5235L320.407 63.3805ZM322.799 60.6918C323.223 59.4897 323.402 57.6756 323.402 55.354H321.402C321.402 57.6431 321.217 59.1657 320.913 60.0262L322.799 60.6918ZM323.402 55.354V19.318H321.402V55.354H323.402ZM323.402 19.318C323.402 16.9964 323.223 15.1823 322.799 13.9802L320.913 14.6458C321.217 15.5063 321.402 17.0289 321.402 19.318H323.402ZM322.815 14.0308C322.427 12.7111 321.574 11.7627 320.296 11.2837L319.594 13.1563C320.258 13.4053 320.678 13.8523 320.897 14.5952L322.815 14.0308ZM320.316 11.2915C319.25 10.8648 317.659 10.6163 315.637 10.4938L315.516 12.4902C317.499 12.6103 318.82 12.8472 319.574 13.1485L320.316 11.2915ZM316.577 11.492V9.672H314.577V11.492H316.577ZM315.516 10.6701C318.521 10.8541 323.249 10.945 329.682 10.945V8.945C323.254 8.945 318.578 8.85387 315.638 8.67387L315.516 10.6701ZM329.682 10.945C335.572 10.945 340.085 10.854 343.209 10.6703L343.091 8.67372C340.027 8.85397 335.561 8.945 329.682 8.945V10.945ZM342.15 9.672V11.492H344.15V9.672H342.15ZM402.945 65L402.899 65.9989L404.051 66.0521L403.941 64.9045L402.945 65ZM354.806 65H353.806V66.0293L354.835 65.9996L354.806 65ZM354.806 63.18L354.748 62.1817L353.806 62.2371V63.18H354.806ZM359.265 62.452L359.637 63.3805L359.265 62.452ZM361.085 60.359L360.142 60.0262L360.134 60.0513L360.126 60.0768L361.085 60.359ZM361.085 14.313L360.126 14.5952L360.134 14.6207L360.142 14.6458L361.085 14.313ZM359.174 12.22L358.803 13.1485L358.813 13.1525L358.823 13.1563L359.174 12.22ZM354.806 11.492H353.806V12.4332L354.746 12.4902L354.806 11.492ZM354.806 9.672L354.835 8.67241L353.806 8.64273V9.672H354.806ZM401.125 9.672L402.12 9.77591L402.241 8.61396L401.075 8.67329L401.125 9.672ZM400.761 26.234V27.234H401.9L401.753 26.1047L400.761 26.234ZM398.668 26.234L397.683 26.4058L397.828 27.234H398.668V26.234ZM393.936 15.132L393.229 15.8392L393.239 15.8487L393.936 15.132ZM377.738 12.22L378.033 13.1758L378.065 13.1657L378.097 13.1533L377.738 12.22ZM376.009 13.858L375.09 13.4641L375.083 13.4814L375.076 13.499L376.009 13.858ZM375.554 36.244H374.554V37.244H375.554V36.244ZM386.11 33.332L385.302 32.7438L385.298 32.7484L386.11 33.332ZM389.022 26.416V25.416H388.191L388.039 26.2331L389.022 26.416ZM391.115 26.416L392.112 26.5039L392.208 25.416H391.115V26.416ZM391.388 47.892V48.892H392.474L392.385 47.8101L391.388 47.892ZM389.295 47.892L388.306 48.0393L388.433 48.892H389.295V47.892ZM386.383 40.885L385.593 41.4972L385.604 41.5114L385.615 41.5252L386.383 40.885ZM375.554 38.064V37.064H374.554V38.064H375.554ZM376.009 60.905L375.068 61.2413L375.083 61.2835L375.102 61.3241L376.009 60.905ZM377.738 62.543L377.379 63.4763L377.412 63.4887L377.444 63.4988L377.738 62.543ZM395.301 59.176L394.594 58.4688L394.586 58.4777L395.301 59.176ZM400.488 46.618V45.618H399.64L399.502 46.4553L400.488 46.618ZM402.581 46.618L403.576 46.7245L403.694 45.618H402.581V46.618ZM401.308 53.17C401.308 56.6674 401.523 60.6435 401.95 65.0955L403.941 64.9045C403.518 60.4991 403.308 56.5886 403.308 53.17H401.308ZM402.992 64.0011C399.023 63.8179 392.359 63.727 383.016 63.727V65.727C392.359 65.727 398.981 65.8181 402.899 65.9989L402.992 64.0011ZM383.016 63.727C370.517 63.727 361.102 63.818 354.778 64.0004L354.835 65.9996C361.13 65.818 370.521 65.727 383.016 65.727V63.727ZM355.806 65V63.18H353.806V65H355.806ZM354.865 64.1783C356.943 64.056 358.568 63.8082 359.637 63.3805L358.894 61.5235C358.143 61.8238 356.795 62.0613 354.748 62.1817L354.865 64.1783ZM359.637 63.3805C360.862 62.8905 361.665 61.9341 362.045 60.6412L360.126 60.0768C359.9 60.8466 359.489 61.2855 358.894 61.5235L359.637 63.3805ZM362.028 60.6918C362.453 59.4897 362.631 57.6756 362.631 55.354H360.631C360.631 57.6431 360.446 59.1657 360.142 60.0262L362.028 60.6918ZM362.631 55.354V19.318H360.631V55.354H362.631ZM362.631 19.318C362.631 16.9964 362.453 15.1823 362.028 13.9802L360.142 14.6458C360.446 15.5063 360.631 17.0289 360.631 19.318H362.631ZM362.045 14.0308C361.657 12.7111 360.803 11.7627 359.526 11.2837L358.823 13.1563C359.487 13.4053 359.908 13.8523 360.126 14.5952L362.045 14.0308ZM359.546 11.2915C358.479 10.8648 356.888 10.6163 354.867 10.4938L354.746 12.4902C356.729 12.6103 358.05 12.8472 358.803 13.1485L359.546 11.2915ZM355.806 11.492V9.672H353.806V11.492H355.806ZM354.778 10.6716C361.102 10.854 370.517 10.945 383.016 10.945V8.945C370.521 8.945 361.13 8.85398 354.835 8.67241L354.778 10.6716ZM383.016 10.945C391.51 10.945 397.569 10.8541 401.176 10.6707L401.075 8.67329C397.523 8.85387 391.509 8.945 383.016 8.945V10.945ZM400.131 9.56808C399.704 13.6585 399.488 17.3342 399.488 20.592H401.488C401.488 17.4192 401.698 13.8148 402.12 9.77591L400.131 9.56808ZM399.488 20.592C399.488 22.9764 399.58 24.906 399.77 26.3633L401.753 26.1047C401.579 24.7713 401.488 22.9396 401.488 20.592H399.488ZM400.761 25.234H398.668V27.234H400.761V25.234ZM399.654 26.0622C398.73 20.7665 397.102 16.8167 394.634 14.4153L393.239 15.8487C395.26 17.8153 396.787 21.2668 397.683 26.4058L399.654 26.0622ZM394.644 14.4249C392.168 11.9495 388.795 10.765 384.654 10.765V12.765C388.401 12.765 391.215 13.8251 393.229 15.8391L394.644 14.4249ZM384.654 10.765H381.287V12.765H384.654V10.765ZM381.287 10.765C379.675 10.765 378.343 10.9161 377.379 11.2867L378.097 13.1533C378.711 12.9172 379.745 12.765 381.287 12.765V10.765ZM377.444 11.2642C376.339 11.6043 375.554 12.3811 375.09 13.4641L376.929 14.2519C377.192 13.6362 377.56 13.3211 378.033 13.1758L377.444 11.2642ZM375.076 13.499C374.703 14.4701 374.554 15.9016 374.554 17.68H376.554C376.554 15.9397 376.71 14.8232 376.943 14.217L375.076 13.499ZM374.554 17.68V36.244H376.554V17.68H374.554ZM375.554 37.244H379.831V35.244H375.554V37.244ZM379.831 37.244C382.883 37.244 385.306 36.1646 386.922 33.9156L385.298 32.7484C384.124 34.382 382.362 35.244 379.831 35.244V37.244ZM386.919 33.9202C388.469 31.7892 389.495 29.3432 390.006 26.5989L388.039 26.2331C387.579 28.7061 386.664 30.8708 385.302 32.7438L386.919 33.9202ZM389.022 27.416H391.115V25.416H389.022V27.416ZM390.119 26.3281C389.934 28.4269 389.842 30.8232 389.842 33.514H391.842C391.842 30.8661 391.933 28.5304 392.112 26.5039L390.119 26.3281ZM389.842 33.514V37.154H391.842V33.514H389.842ZM389.842 37.154C389.842 39.9229 390.027 43.5326 390.392 47.9739L392.385 47.8101C392.022 43.3941 391.842 39.8451 391.842 37.154H389.842ZM391.388 46.892H389.295V48.892H391.388V46.892ZM390.285 47.7447C389.839 44.7513 388.809 42.2335 387.152 40.2448L385.615 41.5252C386.991 43.1765 387.903 45.33 388.306 48.0393L390.285 47.7447ZM387.174 40.2728C385.486 38.0924 382.976 37.064 379.831 37.064V39.064C382.511 39.064 384.369 39.9162 385.593 41.4972L387.174 40.2728ZM379.831 37.064H375.554V39.064H379.831V37.064ZM374.554 38.064V56.992H376.554V38.064H374.554ZM374.554 56.992C374.554 58.7784 374.705 60.2245 375.068 61.2413L376.951 60.5687C376.708 59.8869 376.554 58.7243 376.554 56.992H374.554ZM375.102 61.3241C375.571 62.3417 376.34 63.0767 377.379 63.4763L378.097 61.6097C377.559 61.4026 377.176 61.0456 376.917 60.4859L375.102 61.3241ZM377.444 63.4988C378.379 63.7865 379.684 63.907 381.287 63.907V61.907C379.736 61.907 378.675 61.7848 378.033 61.5872L377.444 63.4988ZM381.287 63.907H385.2V61.907H381.287V63.907ZM385.2 63.907C389.709 63.907 393.359 62.5987 396.017 59.8743L394.586 58.4777C392.39 60.728 389.307 61.907 385.2 61.907V63.907ZM396.009 59.8831C398.715 57.1767 400.492 52.7427 401.475 46.7807L399.502 46.4553C398.544 52.2626 396.863 56.2006 394.594 58.4689L396.009 59.8831ZM400.488 47.618H402.581V45.618H400.488V47.618ZM401.587 46.5115C401.4 48.2594 401.308 50.4825 401.308 53.17H403.308C403.308 50.5189 403.399 48.374 403.576 46.7245L401.587 46.5115ZM472.777 11.492L472.926 12.4807L473.777 12.3519V11.492H472.777ZM468.318 12.857L467.788 12.009L467.775 12.0168L467.763 12.0249L468.318 12.857ZM466.407 15.769L465.442 15.5059L465.436 15.5265L465.431 15.5474L466.407 15.769ZM465.952 65.182L465.915 66.1813L466.952 66.2197V65.182H465.952ZM463.495 65.091L463.532 64.0917L463.494 64.0903L463.456 64.0917L463.495 65.091ZM461.129 65.182L460.35 65.809L460.665 66.2006L461.167 66.1813L461.129 65.182ZM424.729 19.955L425.508 19.328L423.729 17.1176V19.955H424.729ZM425.457 58.903L424.512 59.2316L424.517 59.2447L425.457 58.903ZM428.096 61.815L427.666 62.7179L428.096 61.815ZM434.102 63.18H435.102V62.285L434.212 62.1861L434.102 63.18ZM434.102 65L434.035 65.9978L435.102 66.0689V65H434.102ZM415.811 65H414.811V66.0981L415.904 65.9956L415.811 65ZM415.811 63.18L415.661 62.1913L414.811 62.3201V63.18H415.811ZM420.179 61.815L419.649 60.967L419.636 60.9748L419.624 60.9829L420.179 61.815ZM422.09 58.903L421.125 58.6399L421.119 58.6605L421.114 58.6814L422.09 58.903ZM422.09 14.313L421.13 14.5952L421.138 14.6207L421.147 14.6458L422.09 14.313ZM420.179 12.22L419.807 13.1485L419.817 13.1525L419.827 13.1563L420.179 12.22ZM415.811 11.492H414.811V12.4332L415.75 12.4902L415.811 11.492ZM415.811 9.672L415.904 8.67636L414.811 8.57386V9.672H415.811ZM434.83 9.672L435.608 9.04467L435.285 8.64347L434.771 8.67372L434.83 9.672ZM463.859 45.708L463.08 46.3353L464.859 48.5434V45.708H463.859ZM463.131 15.86L462.186 16.1885L462.191 16.2017L463.131 15.86ZM460.401 12.857L459.971 13.7599L459.979 13.7637L459.987 13.7674L460.401 12.857ZM454.486 11.492H453.486V12.3848L454.373 12.4856L454.486 11.492ZM454.486 9.672L454.554 8.67431L453.486 8.60149V9.672H454.486ZM472.777 9.672H473.777V8.57055L472.68 8.67665L472.777 9.672ZM472.627 10.5033C470.578 10.8137 468.931 11.2943 467.788 12.009L468.848 13.705C469.645 13.2064 470.971 12.7769 472.926 12.4807L472.627 10.5033ZM467.763 12.0249C466.603 12.7981 465.852 14.0019 465.442 15.5059L467.371 16.0321C467.689 14.8668 468.212 14.1293 468.872 13.689L467.763 12.0249ZM465.431 15.5474C465.102 16.9954 464.952 19.1197 464.952 21.866H466.952C466.952 19.1523 467.104 17.2119 467.382 15.9906L465.431 15.5474ZM464.952 21.866V65.182H466.952V21.866H464.952ZM465.989 64.1827L463.532 64.0917L463.458 66.0903L465.915 66.1813L465.989 64.1827ZM463.456 64.0917L461.09 64.1827L461.167 66.1813L463.533 66.0903L463.456 64.0917ZM461.908 64.555L425.508 19.328L423.95 20.582L460.35 65.809L461.908 64.555ZM423.729 19.955V52.806H425.729V19.955H423.729ZM423.729 52.806C423.729 55.5122 423.972 57.6775 424.512 59.2315L426.401 58.5745C425.971 57.3378 425.729 55.4385 425.729 52.806H423.729ZM424.517 59.2447C425.091 60.8243 426.153 61.9975 427.666 62.7179L428.526 60.9121C427.49 60.4192 426.793 59.651 426.396 58.5613L424.517 59.2447ZM427.666 62.7179C429.096 63.3988 431.235 63.8676 433.991 64.1739L434.212 62.1861C431.509 61.8857 429.643 61.4445 428.526 60.9121L427.666 62.7179ZM433.102 63.18V65H435.102V63.18H433.102ZM434.168 64.0022C431.408 63.8182 427.926 63.727 423.728 63.727V65.727C427.902 65.727 431.336 65.8178 434.035 65.9978L434.168 64.0022ZM423.728 63.727C420.378 63.727 417.704 63.8181 415.717 64.0044L415.904 65.9956C417.8 65.8179 420.404 65.727 423.728 65.727V63.727ZM416.811 65V63.18H414.811V65H416.811ZM415.96 64.1687C418.004 63.859 419.637 63.3777 420.733 62.647L419.624 60.9829C418.9 61.4657 417.621 61.8943 415.661 62.1913L415.96 64.1687ZM420.709 62.663C421.949 61.888 422.715 60.6645 423.065 59.1246L421.114 58.6814C420.858 59.8108 420.35 60.5286 419.649 60.967L420.709 62.663ZM423.054 59.1661C423.455 57.6982 423.636 55.5563 423.636 52.806H421.636C421.636 55.5157 421.452 57.4385 421.125 58.6399L423.054 59.1661ZM423.636 52.806V19.318H421.636V52.806H423.636ZM423.636 19.318C423.636 16.9964 423.457 15.1823 423.033 13.9802L421.147 14.6458C421.45 15.5063 421.636 17.0289 421.636 19.318H423.636ZM423.049 14.0308C422.661 12.7111 421.807 11.7627 420.53 11.2837L419.827 13.1563C420.491 13.4053 420.912 13.8523 421.13 14.5952L423.049 14.0308ZM420.55 11.2915C419.483 10.8648 417.892 10.6163 415.871 10.4938L415.75 12.4902C417.733 12.6103 419.054 12.8472 419.807 13.1485L420.55 11.2915ZM416.811 11.492V9.672H414.811V11.492H416.811ZM415.717 10.6676C417.704 10.8539 420.378 10.945 423.728 10.945V8.945C420.404 8.945 417.8 8.85413 415.904 8.67636L415.717 10.6676ZM423.728 10.945C428.048 10.945 431.769 10.8538 434.888 10.6703L434.771 8.67372C431.702 8.85423 428.022 8.945 423.728 8.945V10.945ZM434.051 10.2993L463.08 46.3353L464.637 45.0807L435.608 9.04467L434.051 10.2993ZM464.859 45.708V21.866H462.859V45.708H464.859ZM464.859 21.866C464.859 19.164 464.617 17.0204 464.07 15.5183L462.191 16.2017C462.615 17.3689 462.859 19.2294 462.859 21.866H464.859ZM464.075 15.5315C463.501 13.88 462.4 12.6675 460.814 11.9466L459.987 13.7674C461.07 14.2599 461.79 15.0493 462.186 16.1885L464.075 15.5315ZM460.831 11.9541C459.403 11.2744 457.297 10.8051 454.598 10.4984L454.373 12.4856C457.013 12.7856 458.85 13.2263 459.971 13.7599L460.831 11.9541ZM455.486 11.492V9.672H453.486V11.492H455.486ZM454.418 10.6697C457.119 10.8538 460.602 10.945 464.86 10.945V8.945C460.624 8.945 457.191 8.85415 454.554 8.67431L454.418 10.6697ZM464.86 10.945C468.268 10.945 470.945 10.854 472.873 10.6673L472.68 8.67665C470.847 8.85403 468.246 8.945 464.86 8.945V10.945ZM471.777 9.672V11.492H473.777V9.672H471.777ZM521.524 9.945L521.097 10.8492L521.107 10.8541L521.118 10.8588L521.524 9.945ZM528.258 14.313L527.614 15.0779L527.619 15.0825L527.625 15.087L528.258 14.313ZM532.353 9.672V8.672H531.448L531.358 9.57249L532.353 9.672ZM534.446 9.672L535.444 9.73851L535.515 8.672H534.446V9.672ZM534.082 28.782V29.782H535.082V28.782H534.082ZM531.989 28.782L531.006 28.9641L531.157 29.782H531.989V28.782ZM530.169 21.684L529.241 22.0554L529.243 22.062L529.246 22.0686L530.169 21.684ZM527.439 17.134L528.22 16.5093L528.211 16.498L528.202 16.487L527.439 17.134ZM521.615 12.493L521.138 13.3719L521.153 13.3799L521.168 13.3874L521.615 12.493ZM506.236 14.04L506.885 14.8006L506.896 14.7914L506.236 14.04ZM500.412 23.231L499.468 22.9019L499.463 22.9148L500.412 23.231ZM500.594 51.896L499.654 52.2377L499.658 52.2464L499.661 52.255L500.594 51.896ZM506.782 60.905L506.162 61.6894L506.168 61.6939L506.173 61.6983L506.782 60.905ZM522.525 62.27L522.963 63.1693L522.972 63.1644L522.525 62.27ZM528.44 57.538L529.214 58.1713L529.221 58.1627L528.44 57.538ZM532.626 44.98V43.98H531.761L531.637 44.8361L532.626 44.98ZM534.719 44.98H535.719V43.98H534.719V44.98ZM535.083 65V66H536.149L536.081 64.9366L535.083 65ZM532.99 65L531.995 65.0963L532.082 66H532.99V65ZM532.171 60.905L531.243 61.2764L531.247 61.2877L531.252 61.2989L532.171 60.905ZM528.895 60.359L528.295 59.559L528.274 59.5752L528.253 59.5925L528.895 60.359ZM521.888 64.727L521.497 63.8067L521.888 64.727ZM497.864 62.907L498.316 62.015L497.864 62.907ZM487.49 53.17L486.622 53.6662L486.627 53.6754L487.49 53.17ZM487.672 22.503L486.802 22.0094L487.672 22.503ZM498.046 12.129L498.532 13.0032L498.536 13.0009L498.046 12.129ZM512.97 9.39799C516.403 9.39799 519.093 9.90301 521.097 10.8492L521.951 9.04075C519.587 7.92432 516.574 7.39799 512.97 7.39799V9.39799ZM521.118 10.8588C523.197 11.7828 525.363 13.1821 527.614 15.0779L528.902 13.5481C526.543 11.5612 524.219 10.0485 521.93 9.03119L521.118 10.8588ZM527.625 15.087C528.347 15.6776 529.15 16.132 529.987 16.132V14.132C529.854 14.132 529.504 14.0403 528.891 13.539L527.625 15.087ZM529.987 16.132C531.212 16.132 531.964 15.1843 532.406 14.1646C532.863 13.1111 533.163 11.623 533.348 9.7715L531.358 9.57249C531.179 11.361 530.903 12.6029 530.571 13.3694C530.406 13.7499 530.253 13.9525 530.145 14.0508C530.056 14.1317 530.013 14.132 529.987 14.132V16.132ZM532.353 10.672H534.446V8.672H532.353V10.672ZM533.448 9.60548C533.203 13.2825 533.082 19.6829 533.082 28.782H535.082C535.082 19.6811 535.204 13.3415 535.444 9.73851L533.448 9.60548ZM534.082 27.782H531.989V29.782H534.082V27.782ZM532.972 28.5999C532.364 25.3134 531.742 22.8591 531.092 21.2994L529.246 22.0686C529.81 23.4209 530.401 25.6986 531.006 28.9641L532.972 28.5999ZM531.098 21.3126C530.448 19.6894 529.483 18.0886 528.22 16.5093L526.658 17.7587C527.821 19.2127 528.677 20.6453 529.241 22.0554L531.098 21.3126ZM528.202 16.487C526.422 14.3899 524.376 12.7554 522.062 11.5986L521.168 13.3874C523.222 14.4146 525.059 15.8741 526.677 17.781L528.202 16.487ZM522.092 11.6141C519.83 10.3859 517.452 9.764 514.972 9.764V11.764C517.103 11.764 519.154 12.2947 521.138 13.3719L522.092 11.6141ZM514.972 9.764C511.395 9.764 508.248 10.9429 505.576 13.2886L506.896 14.7914C509.199 12.7691 511.876 11.764 514.972 11.764V9.764ZM505.587 13.2794C502.93 15.5472 500.905 18.779 499.468 22.9019L501.356 23.5601C502.71 19.675 504.567 16.7795 506.885 14.8006L505.587 13.2794ZM499.463 22.9148C498.086 27.0466 497.41 31.9211 497.41 37.518H499.41C499.41 32.0736 500.069 27.4234 501.361 23.5472L499.463 22.9148ZM497.41 37.518C497.41 43.1817 498.148 48.0962 499.654 52.2377L501.534 51.5543C500.128 47.6879 499.41 43.0169 499.41 37.518H497.41ZM499.661 52.255C501.225 56.3211 503.379 59.4893 506.162 61.6894L507.402 60.1206C504.968 58.1954 502.997 55.3576 501.527 51.537L499.661 52.255ZM506.173 61.6983C508.956 63.8338 512.112 64.908 515.609 64.908V62.908C512.554 62.908 509.826 61.9802 507.391 60.1117L506.173 61.6983ZM515.609 64.908C518.135 64.908 520.589 64.3238 522.963 63.1692L522.088 61.3708C519.972 62.4002 517.815 62.908 515.609 62.908V64.908ZM522.972 63.1644C525.404 61.9485 527.487 60.282 529.214 58.1712L527.666 56.9048C526.117 58.798 524.257 60.2862 522.078 61.3756L522.972 63.1644ZM529.221 58.1627C530.508 56.5538 531.449 54.8055 532.034 52.9204L530.124 52.3276C529.617 53.9612 528.799 55.4888 527.659 56.9133L529.221 58.1627ZM532.034 52.9204C532.603 51.0862 533.128 48.4773 533.616 45.1239L531.637 44.8361C531.154 48.156 530.647 50.6432 530.124 52.3276L532.034 52.9204ZM532.626 45.98H534.719V43.98H532.626V45.98ZM533.719 44.98C533.719 54.5039 533.84 61.2061 534.085 65.0634L536.081 64.9366C535.841 61.1499 535.719 54.5054 535.719 44.98H533.719ZM535.083 64H532.99V66H535.083V64ZM533.985 64.9037C533.802 63.0043 533.518 61.5098 533.09 60.5111L531.252 61.2989C531.552 61.9988 531.815 63.2344 531.995 65.0963L533.985 64.9037ZM533.1 60.5336C532.689 59.5067 531.954 58.54 530.715 58.54V60.54C530.739 60.54 530.773 60.5388 530.85 60.6108C530.948 60.7024 531.091 60.8982 531.243 61.2764L533.1 60.5336ZM530.715 58.54C529.893 58.54 529.066 58.9812 528.295 59.559L529.495 61.159C530.181 60.6448 530.566 60.54 530.715 60.54V58.54ZM528.253 59.5925C526.076 61.4167 523.823 62.8179 521.497 63.8067L522.279 65.6473C524.806 64.5734 527.225 63.0626 529.537 61.1255L528.253 59.5925ZM521.497 63.8067C519.224 64.7726 516.452 65.274 513.152 65.274V67.274C516.647 67.274 519.699 66.744 522.279 65.6473L521.497 63.8067ZM513.152 65.274C507.521 65.274 502.584 64.1781 498.316 62.015L497.412 63.799C502.002 66.1253 507.257 67.274 513.152 67.274V65.274ZM498.316 62.015C494.057 59.8563 490.742 56.7441 488.353 52.6646L486.627 53.6754C489.212 58.0892 492.814 61.4684 497.412 63.799L498.316 62.015ZM488.358 52.6739C486.035 48.6077 484.85 43.6907 484.85 37.882H482.85C482.85 43.964 484.092 49.2389 486.622 53.6661L488.358 52.6739ZM484.85 37.882C484.85 32.2711 486.089 27.3185 488.542 22.9966L486.802 22.0094C484.159 26.6662 482.85 31.9662 482.85 37.882H484.85ZM488.542 22.9966C491.002 18.6614 494.33 15.3376 498.532 13.0032L497.56 11.2548C493.026 13.7737 489.438 17.3659 486.802 22.0094L488.542 22.9966ZM498.536 13.0009C502.802 10.6047 507.606 9.39799 512.97 9.39799V7.39799C507.293 7.39799 502.147 8.67858 497.556 11.2571L498.536 13.0009ZM596.438 65L596.392 65.9989L597.543 66.0521L597.433 64.9045L596.438 65ZM548.299 65H547.299V66.0293L548.328 65.9996L548.299 65ZM548.299 63.18L548.24 62.1817L547.299 62.2371V63.18H548.299ZM552.758 62.452L553.129 63.3805L552.758 62.452ZM554.578 60.359L553.635 60.0262L553.626 60.0513L553.618 60.0768L554.578 60.359ZM554.578 14.313L553.618 14.5952L553.626 14.6207L553.635 14.6458L554.578 14.313ZM552.667 12.22L552.295 13.1485L552.305 13.1525L552.316 13.1563L552.667 12.22ZM548.299 11.492H547.299V12.4332L548.238 12.4902L548.299 11.492ZM548.299 9.672L548.328 8.67241L547.299 8.64273V9.672H548.299ZM594.618 9.672L595.612 9.77591L595.734 8.61396L594.567 8.67329L594.618 9.672ZM594.254 26.234V27.234H595.393L595.245 26.1047L594.254 26.234ZM592.161 26.234L591.176 26.4058L591.32 27.234H592.161V26.234ZM587.429 15.132L586.722 15.8392L586.731 15.8487L587.429 15.132ZM571.231 12.22L571.525 13.1758L571.558 13.1657L571.59 13.1533L571.231 12.22ZM569.502 13.858L568.583 13.4641L568.575 13.4814L568.568 13.499L569.502 13.858ZM569.047 36.244H568.047V37.244H569.047V36.244ZM579.603 33.332L578.794 32.7438L578.791 32.7484L579.603 33.332ZM582.515 26.416V25.416H581.684L581.532 26.2331L582.515 26.416ZM584.608 26.416L585.604 26.5039L585.7 25.416H584.608V26.416ZM584.881 47.892V48.892H585.966L585.877 47.8101L584.881 47.892ZM582.788 47.892L581.799 48.0393L581.926 48.892H582.788V47.892ZM579.876 40.885L579.085 41.4972L579.096 41.5114L579.108 41.5252L579.876 40.885ZM569.047 38.064V37.064H568.047V38.064H569.047ZM569.502 60.905L568.56 61.2413L568.575 61.2835L568.594 61.3241L569.502 60.905ZM571.231 62.543L570.872 63.4763L570.904 63.4887L570.937 63.4988L571.231 62.543ZM588.794 59.176L588.087 58.4688L588.078 58.4777L588.794 59.176ZM593.981 46.618V45.618H593.132L592.994 46.4553L593.981 46.618ZM596.074 46.618L597.068 46.7245L597.187 45.618H596.074V46.618ZM594.801 53.17C594.801 56.6674 595.015 60.6435 595.442 65.0955L597.433 64.9045C597.011 60.4991 596.801 56.5886 596.801 53.17H594.801ZM596.484 64.0011C592.515 63.8179 585.852 63.727 576.509 63.727V65.727C585.851 65.727 592.474 65.8181 596.392 65.9989L596.484 64.0011ZM576.509 63.727C564.009 63.727 554.594 63.818 548.27 64.0004L548.328 65.9996C554.622 65.818 564.014 65.727 576.509 65.727V63.727ZM549.299 65V63.18H547.299V65H549.299ZM548.357 64.1783C550.436 64.056 552.06 63.8082 553.129 63.3805L552.386 61.5235C551.636 61.8238 550.287 62.0613 548.24 62.1817L548.357 64.1783ZM553.129 63.3805C554.354 62.8905 555.157 61.9341 555.537 60.6412L553.618 60.0768C553.392 60.8466 552.982 61.2855 552.386 61.5235L553.129 63.3805ZM555.521 60.6918C555.945 59.4897 556.124 57.6756 556.124 55.354H554.124C554.124 57.6431 553.938 59.1657 553.635 60.0262L555.521 60.6918ZM556.124 55.354V19.318H554.124V55.354H556.124ZM556.124 19.318C556.124 16.9964 555.945 15.1823 555.521 13.9802L553.635 14.6458C553.938 15.5063 554.124 17.0289 554.124 19.318H556.124ZM555.537 14.0308C555.149 12.7111 554.295 11.7627 553.018 11.2837L552.316 13.1563C552.979 13.4053 553.4 13.8523 553.618 14.5952L555.537 14.0308ZM553.038 11.2915C551.971 10.8648 550.381 10.6163 548.359 10.4938L548.238 12.4902C550.221 12.6103 551.542 12.8472 552.295 13.1485L553.038 11.2915ZM549.299 11.492V9.672H547.299V11.492H549.299ZM548.27 10.6716C554.594 10.854 564.009 10.945 576.509 10.945V8.945C564.014 8.945 554.622 8.85398 548.328 8.67241L548.27 10.6716ZM576.509 10.945C585.002 10.945 591.061 10.8541 594.669 10.6707L594.567 8.67329C591.016 8.85387 585.002 8.945 576.509 8.945V10.945ZM593.623 9.56808C593.196 13.6585 592.981 17.3342 592.981 20.592H594.981C594.981 17.4192 595.19 13.8148 595.612 9.77591L593.623 9.56808ZM592.981 20.592C592.981 22.9764 593.072 24.906 593.262 26.3633L595.245 26.1047C595.071 24.7713 594.981 22.9396 594.981 20.592H592.981ZM594.254 25.234H592.161V27.234H594.254V25.234ZM593.146 26.0622C592.222 20.7665 590.594 16.8167 588.126 14.4153L586.731 15.8487C588.753 17.8153 590.279 21.2668 591.176 26.4058L593.146 26.0622ZM588.136 14.4249C585.661 11.9495 582.287 10.765 578.147 10.765V12.765C581.893 12.765 584.708 13.8251 586.722 15.8391L588.136 14.4249ZM578.147 10.765H574.78V12.765H578.147V10.765ZM574.78 10.765C573.167 10.765 571.835 10.9161 570.872 11.2867L571.59 13.1533C572.204 12.9172 573.238 12.765 574.78 12.765V10.765ZM570.937 11.2642C569.832 11.6043 569.047 12.3811 568.583 13.4641L570.421 14.2519C570.685 13.6362 571.053 13.3211 571.525 13.1758L570.937 11.2642ZM568.568 13.499C568.195 14.4701 568.047 15.9016 568.047 17.68H570.047C570.047 15.9397 570.202 14.8232 570.435 14.217L568.568 13.499ZM568.047 17.68V36.244H570.047V17.68H568.047ZM569.047 37.244H573.324V35.244H569.047V37.244ZM573.324 37.244C576.375 37.244 578.798 36.1646 580.415 33.9156L578.791 32.7484C577.617 34.382 575.854 35.244 573.324 35.244V37.244ZM580.411 33.9202C581.961 31.7892 582.987 29.3432 583.498 26.5989L581.532 26.2331C581.072 28.7061 580.156 30.8708 578.794 32.7438L580.411 33.9202ZM582.515 27.416H584.608V25.416H582.515V27.416ZM583.612 26.3281C583.426 28.4269 583.335 30.8232 583.335 33.514H585.335C585.335 30.8661 585.425 28.5304 585.604 26.5039L583.612 26.3281ZM583.335 33.514V37.154H585.335V33.514H583.335ZM583.335 37.154C583.335 39.9229 583.519 43.5326 583.884 47.9739L585.877 47.8101C585.514 43.3941 585.335 39.8451 585.335 37.154H583.335ZM584.881 46.892H582.788V48.892H584.881V46.892ZM583.777 47.7447C583.331 44.7513 582.301 42.2335 580.644 40.2448L579.108 41.5252C580.484 43.1765 581.395 45.33 581.799 48.0393L583.777 47.7447ZM580.667 40.2728C578.978 38.0924 576.468 37.064 573.324 37.064V39.064C576.003 39.064 577.861 39.9162 579.085 41.4972L580.667 40.2728ZM573.324 37.064H569.047V39.064H573.324V37.064ZM568.047 38.064V56.992H570.047V38.064H568.047ZM568.047 56.992C568.047 58.7784 568.197 60.2245 568.56 61.2413L570.444 60.5687C570.2 59.8869 570.047 58.7243 570.047 56.992H568.047ZM568.594 61.3241C569.063 62.3417 569.833 63.0767 570.872 63.4763L571.59 61.6097C571.052 61.4026 570.668 61.0456 570.41 60.4859L568.594 61.3241ZM570.937 63.4988C571.872 63.7865 573.176 63.907 574.78 63.907V61.907C573.229 61.907 572.167 61.7848 571.525 61.5872L570.937 63.4988ZM574.78 63.907H578.693V61.907H574.78V63.907ZM578.693 63.907C583.201 63.907 586.852 62.5987 589.51 59.8743L588.078 58.4777C585.883 60.728 582.799 61.907 578.693 61.907V63.907ZM589.501 59.8831C592.207 57.1767 593.984 52.7427 594.967 46.7807L592.994 46.4553C592.036 52.2626 590.355 56.2006 588.087 58.4689L589.501 59.8831ZM593.981 47.618H596.074V45.618H593.981V47.618ZM595.079 46.5115C594.892 48.2594 594.801 50.4825 594.801 53.17H596.801C596.801 50.5189 596.891 48.374 597.068 46.7245L595.079 46.5115Z" fill="black"/>
</svg>
