<svg width="863" height="86" viewBox="0 0 863 86" fill="none" xmlns="http://www.w3.org/2000/svg">
<path d="M73.1679 74.442C74.3479 76.2513 75.5672 77.7067 76.8259 78.808C78.0845 79.9093 79.6972 80.8533 81.6639 81.64V84C76.1572 83.764 70.0212 83.646 63.2559 83.646C58.0639 83.646 53.0685 83.764 48.2699 84V81.64C50.4725 81.4827 52.0459 81.2467 52.9899 80.932C54.0125 80.6173 54.5239 80.0667 54.5239 79.28C54.5239 78.6507 54.0912 77.6673 53.2259 76.33L36.1159 48.6C34.5425 46.0827 33.2052 44.3913 32.1039 43.526C31.0812 42.6607 29.6652 42.1493 27.8559 41.992V71.492C27.8559 74.4813 28.0525 76.6447 28.4459 77.982C28.9179 79.3193 29.7439 80.224 30.9239 80.696C32.1039 81.168 34.0312 81.4827 36.7059 81.64V84C32.4579 83.764 26.5185 83.646 18.8879 83.646C10.4705 83.646 4.25587 83.764 0.243873 84V81.64C2.83987 81.4827 4.72787 81.168 5.90787 80.696C7.16654 80.224 7.99254 79.3193 8.38587 77.982C8.85787 76.6447 9.09387 74.4813 9.09387 71.492V12.964C9.09387 9.97466 8.85787 7.81133 8.38587 6.474C7.99254 5.13666 7.16654 4.232 5.90787 3.76C4.72787 3.288 2.83987 2.97333 0.243873 2.816V0.455999C4.25587 0.691996 10.4705 0.809995 18.8879 0.809995C26.5185 0.809995 32.4579 0.691996 36.7059 0.455999V2.816C34.0312 2.97333 32.1039 3.288 30.9239 3.76C29.7439 4.232 28.9179 5.13666 28.4459 6.474C28.0525 7.81133 27.8559 9.97466 27.8559 12.964V39.514C31.0025 39.3567 33.8739 38.4127 36.4699 36.682C39.0659 34.9513 42.0159 32.198 45.3199 28.422L52.2819 20.044C55.9005 15.8747 57.7099 12.2167 57.7099 9.06999C57.7099 7.18199 56.9232 5.68733 55.3499 4.586C53.8552 3.48466 51.7312 2.85533 48.9779 2.698V0.455999C54.7205 0.691996 60.5419 0.809995 66.4419 0.809995C71.0045 0.809995 74.7019 0.691996 77.5339 0.455999V2.698C71.2405 4.19266 65.5372 7.96866 60.4239 14.026L45.6739 31.608L73.1679 74.442ZM153.156 68.66C153.156 73.144 153.432 78.2573 153.982 84C148.869 83.764 140.255 83.646 128.14 83.646C111.935 83.646 99.7415 83.764 91.5602 84V81.64C94.2349 81.4827 96.1622 81.168 97.3422 80.696C98.5222 80.224 99.3089 79.3193 99.7022 77.982C100.174 76.6447 100.41 74.4813 100.41 71.492V24.764C100.41 21.7747 100.174 19.6113 99.7022 18.274C99.3089 16.9367 98.4829 16.032 97.2242 15.56C96.0442 15.088 94.1562 14.7733 91.5602 14.616V12.256C99.7415 12.492 111.935 12.61 128.14 12.61C139.154 12.61 146.981 12.492 151.622 12.256C151.072 17.5267 150.796 22.2467 150.796 26.416C150.796 29.484 150.914 31.9227 151.15 33.732H148.436C147.256 26.9667 145.211 22.168 142.3 19.336C139.39 16.4253 135.378 14.97 130.264 14.97H125.898C123.853 14.97 122.319 15.1667 121.296 15.56C120.274 15.8747 119.526 16.5827 119.054 17.684C118.661 18.7067 118.464 20.3587 118.464 22.64V46.712H124.01C127.629 46.712 130.343 45.4533 132.152 42.936C134.04 40.34 135.299 37.3507 135.928 33.968H138.642C138.406 36.6427 138.288 39.7107 138.288 43.172V47.892C138.288 51.432 138.524 56.0733 138.996 61.816H136.282C135.732 58.1187 134.473 55.09 132.506 52.73C130.618 50.2913 127.786 49.072 124.01 49.072H118.464V73.616C118.464 75.8973 118.661 77.5887 119.054 78.69C119.526 79.7127 120.274 80.4207 121.296 80.814C122.319 81.1287 123.853 81.286 125.898 81.286H130.972C136.558 81.286 140.924 79.6733 144.07 76.448C147.296 73.2227 149.538 67.7947 150.796 60.164H153.51C153.274 62.3667 153.156 65.1987 153.156 68.66ZM239.812 12.256C239.262 18.2347 238.986 23.584 238.986 28.304C238.986 32.7093 239.104 36.1707 239.34 38.688H236.626C235.525 32.7093 234.188 28.0287 232.614 24.646C231.12 21.2633 229.153 18.8247 226.714 17.33C224.354 15.7567 221.286 14.97 217.51 14.97H213.852V70.312C213.852 73.616 214.167 76.0153 214.796 77.51C215.426 79.0047 216.527 80.0273 218.1 80.578C219.674 81.1287 222.23 81.4827 225.77 81.64V84C221.522 83.764 214.442 83.646 204.53 83.646C194.54 83.646 187.656 83.764 183.88 84V81.64C187.42 81.4827 189.977 81.1287 191.55 80.578C193.124 80.0273 194.225 79.0047 194.854 77.51C195.484 76.0153 195.798 73.616 195.798 70.312V14.97H192.14C188.364 14.97 185.257 15.7567 182.818 17.33C180.458 18.8247 178.492 21.2633 176.918 24.646C175.424 28.0287 174.126 32.7093 173.024 38.688H170.31C170.546 36.1707 170.664 32.7093 170.664 28.304C170.664 23.584 170.389 18.2347 169.838 12.256C176.682 12.492 188.246 12.61 204.53 12.61C221.129 12.61 232.89 12.492 239.812 12.256ZM310.251 74.088C312.532 78.9653 315.01 81.4827 317.685 81.64V84C313.909 83.764 308.756 83.646 302.227 83.646C293.81 83.646 287.595 83.764 283.583 84V81.64C286.179 81.4827 288.106 81.0893 289.365 80.46C290.624 79.752 291.253 78.6113 291.253 77.038C291.253 75.622 290.742 73.852 289.719 71.728L283.819 58.276H259.039L257.623 61.462C255.42 66.654 254.319 70.7053 254.319 73.616C254.319 76.2907 255.184 78.2573 256.915 79.516C258.646 80.7747 261.202 81.4827 264.585 81.64V84C260.101 83.764 255.578 83.646 251.015 83.646C246.767 83.646 243.581 83.764 241.457 84V81.64C243.345 81.2467 245.076 80.0667 246.649 78.1C248.301 76.0547 250.032 73.026 251.841 69.014L276.739 12.02C277.368 12.0987 278.273 12.138 279.453 12.138C280.712 12.138 281.616 12.0987 282.167 12.02L310.251 74.088ZM282.757 55.916L271.429 30.074L260.101 55.916H282.757ZM400.044 74.442C401.538 76.4087 402.836 77.9033 403.938 78.926C405.039 79.9487 406.416 80.8533 408.068 81.64V84C402.64 83.764 396.622 83.646 390.014 83.646C384.428 83.646 379.079 83.764 373.966 84V81.64C376.483 81.5613 378.253 81.3647 379.276 81.05C380.298 80.6567 380.81 80.106 380.81 79.398C380.81 78.69 380.377 77.6673 379.512 76.33L364.054 54.146C362.716 52.258 361.379 50.842 360.042 49.898C358.704 48.8753 356.934 48.3247 354.732 48.246V71.492C354.732 74.4813 354.928 76.6447 355.322 77.982C355.794 79.3193 356.62 80.224 357.8 80.696C358.98 81.168 360.907 81.4827 363.582 81.64V84C359.57 83.764 353.748 83.646 346.118 83.646C337.936 83.646 331.84 83.764 327.828 84V81.64C330.502 81.4827 332.43 81.168 333.61 80.696C334.79 80.224 335.576 79.3193 335.97 77.982C336.442 76.6447 336.678 74.4813 336.678 71.492V24.764C336.678 21.7747 336.442 19.6113 335.97 18.274C335.576 16.9367 334.75 16.032 333.492 15.56C332.312 15.088 330.424 14.7733 327.828 14.616V12.256C331.84 12.492 337.936 12.61 346.118 12.61C353.748 12.61 359.57 12.492 363.582 12.256V14.616C360.907 14.7733 358.98 15.088 357.8 15.56C356.62 16.032 355.794 16.9367 355.322 18.274C354.928 19.6113 354.732 21.7747 354.732 24.764V45.886C358.114 45.5713 361.222 44.706 364.054 43.29C366.886 41.874 369.914 39.632 373.14 36.564L380.338 29.248C383.406 26.2587 384.94 23.5447 384.94 21.106C384.94 19.218 384.114 17.684 382.462 16.504C380.81 15.324 378.686 14.6553 376.09 14.498V12.256C381.754 12.492 387.811 12.61 394.262 12.61C398.431 12.61 401.932 12.492 404.764 12.256V14.498C402.01 15.1273 399.375 16.2287 396.858 17.802C394.34 19.2967 391.626 21.4207 388.716 24.174L374.202 38.452L400.044 74.442ZM454.667 14.616C451.993 14.7733 450.065 15.088 448.885 15.56C447.705 16.032 446.879 16.9367 446.407 18.274C446.014 19.6113 445.817 21.7747 445.817 24.764V71.492C445.817 74.4813 446.014 76.6447 446.407 77.982C446.879 79.3193 447.705 80.224 448.885 80.696C450.065 81.168 451.993 81.4827 454.667 81.64V84C450.655 83.764 444.834 83.646 437.203 83.646C428.943 83.646 422.847 83.764 418.913 84V81.64C421.588 81.4827 423.515 81.168 424.695 80.696C425.875 80.224 426.662 79.3193 427.055 77.982C427.527 76.6447 427.763 74.4813 427.763 71.492V24.764C427.763 21.7747 427.527 19.6113 427.055 18.274C426.662 16.9367 425.836 16.032 424.577 15.56C423.397 15.088 421.509 14.7733 418.913 14.616V12.256C422.768 12.492 428.865 12.61 437.203 12.61C444.834 12.61 450.655 12.492 454.667 12.256V14.616ZM573.382 0.455999C572.831 7.92933 572.556 14.616 572.556 20.516C572.556 24.2133 572.674 27.2027 572.91 29.484H570.196C568.308 19.808 565.712 13.0033 562.408 9.06999C559.183 5.13666 554.738 3.16999 549.074 3.16999H546.36V70.548C546.36 73.852 546.675 76.2513 547.304 77.746C548.012 79.2407 549.192 80.2633 550.844 80.814C552.575 81.286 555.289 81.5613 558.986 81.64V84C549.074 83.764 541.601 83.646 536.566 83.646C531.61 83.646 524.412 83.764 514.972 84V81.64C518.669 81.5613 521.344 81.286 522.996 80.814C524.727 80.2633 525.907 79.2407 526.536 77.746C527.244 76.2513 527.598 73.852 527.598 70.548V3.16999H525.002C521.226 3.16999 518.001 3.99599 515.326 5.648C512.73 7.3 510.488 10.0533 508.6 13.908C506.712 17.684 505.099 22.876 503.762 29.484H501.048C501.284 27.2027 501.402 24.2133 501.402 20.516C501.402 14.616 501.127 7.92933 500.576 0.455999C507.735 0.691996 519.889 0.809995 537.038 0.809995C554.187 0.809995 566.302 0.691996 573.382 0.455999ZM644.339 74.088C646.62 78.9653 649.098 81.4827 651.773 81.64V84C647.997 83.764 642.844 83.646 636.315 83.646C627.897 83.646 621.683 83.764 617.671 84V81.64C620.267 81.4827 622.194 81.0893 623.453 80.46C624.711 79.752 625.341 78.6113 625.341 77.038C625.341 75.622 624.829 73.852 623.807 71.728L617.907 58.276H593.127L591.711 61.462C589.508 66.654 588.407 70.7053 588.407 73.616C588.407 76.2907 589.272 78.2573 591.003 79.516C592.733 80.7747 595.29 81.4827 598.673 81.64V84C594.189 83.764 589.665 83.646 585.103 83.646C580.855 83.646 577.669 83.764 575.545 84V81.64C577.433 81.2467 579.163 80.0667 580.737 78.1C582.389 76.0547 584.119 73.026 585.929 69.014L610.827 12.02C611.456 12.0987 612.361 12.138 613.541 12.138C614.799 12.138 615.704 12.0987 616.255 12.02L644.339 74.088ZM616.845 55.916L605.517 30.074L594.189 55.916H616.845ZM735.901 14.616C733.305 15.0093 731.378 15.5993 730.119 16.386C728.939 17.1727 728.113 18.4313 727.641 20.162C727.248 21.8927 727.051 24.528 727.051 28.068V84.236L723.865 84.118L720.797 84.236L673.597 25.59V68.188C673.597 71.6493 673.912 74.2847 674.541 76.094C675.17 77.8247 676.311 79.0833 677.963 79.87C679.615 80.6567 682.211 81.2467 685.751 81.64V84C682.211 83.764 677.727 83.646 672.299 83.646C667.972 83.646 664.55 83.764 662.033 84V81.64C664.629 81.2467 666.517 80.6567 667.697 79.87C668.956 79.0833 669.782 77.8247 670.175 76.094C670.647 74.3633 670.883 71.728 670.883 68.188V24.764C670.883 21.7747 670.647 19.6113 670.175 18.274C669.782 16.9367 668.956 16.032 667.697 15.56C666.517 15.088 664.629 14.7733 662.033 14.616V12.256C664.55 12.492 667.972 12.61 672.299 12.61C677.884 12.61 682.683 12.492 686.695 12.256L724.337 58.984V28.068C724.337 24.6067 724.022 22.0107 723.393 20.28C722.764 18.4707 721.584 17.1727 719.853 16.386C718.201 15.5993 715.644 15.0093 712.183 14.616V12.256C715.644 12.492 720.128 12.61 725.635 12.61C730.04 12.61 733.462 12.492 735.901 12.256V14.616ZM822.106 74.442C823.6 76.4087 824.898 77.9033 826 78.926C827.101 79.9487 828.478 80.8533 830.13 81.64V84C824.702 83.764 818.684 83.646 812.076 83.646C806.49 83.646 801.141 83.764 796.028 84V81.64C798.545 81.5613 800.315 81.3647 801.338 81.05C802.36 80.6567 802.872 80.106 802.872 79.398C802.872 78.69 802.439 77.6673 801.574 76.33L786.116 54.146C784.778 52.258 783.441 50.842 782.104 49.898C780.766 48.8753 778.996 48.3247 776.794 48.246V71.492C776.794 74.4813 776.99 76.6447 777.384 77.982C777.856 79.3193 778.682 80.224 779.862 80.696C781.042 81.168 782.969 81.4827 785.644 81.64V84C781.632 83.764 775.81 83.646 768.18 83.646C759.998 83.646 753.902 83.764 749.89 84V81.64C752.564 81.4827 754.492 81.168 755.672 80.696C756.852 80.224 757.638 79.3193 758.032 77.982C758.504 76.6447 758.74 74.4813 758.74 71.492V24.764C758.74 21.7747 758.504 19.6113 758.032 18.274C757.638 16.9367 756.812 16.032 755.554 15.56C754.374 15.088 752.486 14.7733 749.89 14.616V12.256C753.902 12.492 759.998 12.61 768.18 12.61C775.81 12.61 781.632 12.492 785.644 12.256V14.616C782.969 14.7733 781.042 15.088 779.862 15.56C778.682 16.032 777.856 16.9367 777.384 18.274C776.99 19.6113 776.794 21.7747 776.794 24.764V45.886C780.176 45.5713 783.284 44.706 786.116 43.29C788.948 41.874 791.976 39.632 795.202 36.564L802.4 29.248C805.468 26.2587 807.002 23.5447 807.002 21.106C807.002 19.218 806.176 17.684 804.524 16.504C802.872 15.324 800.748 14.6553 798.152 14.498V12.256C803.816 12.492 809.873 12.61 816.324 12.61C820.493 12.61 823.994 12.492 826.826 12.256V14.498C824.072 15.1273 821.437 16.2287 818.92 17.802C816.402 19.2967 813.688 21.4207 810.778 24.174L796.264 38.452L822.106 74.442ZM852.893 67.48C855.961 67.48 858.4 68.306 860.209 69.958C862.019 71.5313 862.923 73.734 862.923 76.566C862.923 79.398 862.019 81.64 860.209 83.292C858.4 84.8653 855.961 85.652 852.893 85.652C849.825 85.652 847.387 84.8653 845.577 83.292C843.768 81.64 842.863 79.398 842.863 76.566C842.863 73.734 843.768 71.5313 845.577 69.958C847.387 68.306 849.825 67.48 852.893 67.48Z" fill="white"/>
<path d="M73.1679 74.442L72.3263 74.9822L72.3303 74.9883L73.1679 74.442ZM76.8259 78.808L76.1674 79.5606L76.1674 79.5606L76.8259 78.808ZM81.6639 81.64H82.6639V80.963L82.0353 80.7115L81.6639 81.64ZM81.6639 84L81.6211 84.9991L82.6639 85.0438V84H81.6639ZM48.2699 84H47.2699V85.0504L48.319 84.9988L48.2699 84ZM48.2699 81.64L48.1986 80.6425L47.2699 80.7089V81.64H48.2699ZM52.9899 80.932L52.6958 79.9762L52.6847 79.9796L52.6736 79.9833L52.9899 80.932ZM53.2259 76.33L52.3748 76.8551L52.3805 76.8642L52.3863 76.8733L53.2259 76.33ZM36.1159 48.6L36.9669 48.0749L36.9639 48.07L36.1159 48.6ZM32.1039 43.526L31.4579 44.2894L31.4718 44.3011L31.4861 44.3123L32.1039 43.526ZM27.8559 41.992L27.9425 40.9958L26.8559 40.9013V41.992H27.8559ZM28.4459 77.982L27.4865 78.2642L27.494 78.2897L27.5029 78.3148L28.4459 77.982ZM30.9239 80.696L30.5525 81.6245L30.5525 81.6245L30.9239 80.696ZM36.7059 81.64H37.7059V80.6971L36.7646 80.6417L36.7059 81.64ZM36.7059 84L36.6504 84.9985L37.7059 85.0571V84H36.7059ZM0.243873 84H-0.756127V85.0606L0.302595 84.9983L0.243873 84ZM0.243873 81.64L0.183378 80.6418L-0.756127 80.6988V81.64H0.243873ZM5.90787 80.696L5.55675 79.7597L5.54657 79.7635L5.53648 79.7675L5.90787 80.696ZM8.38587 77.982L7.44288 77.6492L7.43402 77.6743L7.42651 77.6998L8.38587 77.982ZM8.38587 6.474L7.42651 6.75617L7.43402 6.78171L7.44288 6.80682L8.38587 6.474ZM5.90787 3.76L5.53648 4.68847L5.54657 4.69251L5.55675 4.69633L5.90787 3.76ZM0.243873 2.816H-0.756127V3.75723L0.183378 3.81417L0.243873 2.816ZM0.243873 0.455999L0.302594 -0.542275L-0.756127 -0.604552V0.455999H0.243873ZM36.7059 0.455999H37.7059V-0.601097L36.6504 -0.542461L36.7059 0.455999ZM36.7059 2.816L36.7646 3.81427L37.7059 3.7589V2.816H36.7059ZM30.9239 3.76L31.2953 4.68848L31.2953 4.68848L30.9239 3.76ZM28.4459 6.474L27.5029 6.14118L27.494 6.16629L27.4865 6.19183L28.4459 6.474ZM27.8559 39.514H26.8559V40.5652L27.9058 40.5128L27.8559 39.514ZM36.4699 36.682L35.9152 35.8499L35.9152 35.8499L36.4699 36.682ZM45.3199 28.422L46.0725 29.0805L46.0808 29.0709L46.089 29.0611L45.3199 28.422ZM52.2819 20.044L51.5267 19.3885L51.5196 19.3966L51.5128 19.4049L52.2819 20.044ZM55.3499 4.586L54.7567 5.39105L54.7665 5.39826L54.7764 5.40523L55.3499 4.586ZM48.9779 2.698H47.9779V3.64249L48.9208 3.69637L48.9779 2.698ZM48.9779 0.455999L49.0189 -0.543157L47.9779 -0.58594V0.455999H48.9779ZM77.5339 0.455999H78.5339V-0.630799L77.4508 -0.540546L77.5339 0.455999ZM77.5339 2.698L77.7649 3.67094L78.5339 3.48832V2.698H77.5339ZM60.4239 14.026L59.6597 13.3809L59.6578 13.3833L60.4239 14.026ZM45.6739 31.608L44.9078 30.9653L44.4349 31.529L44.8323 32.1482L45.6739 31.608ZM72.3303 74.9883C73.5465 76.8532 74.8232 78.3844 76.1674 79.5606L77.4844 78.0554C76.3112 77.0289 75.1492 75.6495 74.0055 73.8957L72.3303 74.9883ZM76.1674 79.5606C77.5304 80.7532 79.2476 81.7505 81.2925 82.5685L82.0353 80.7115C80.1469 79.9562 78.6387 79.0655 77.4844 78.0554L76.1674 79.5606ZM80.6639 81.64V84H82.6639V81.64H80.6639ZM81.7067 83.0009C76.183 82.7642 70.0324 82.646 63.2559 82.646V84.646C70.01 84.646 76.1314 84.7638 81.6211 84.9991L81.7067 83.0009ZM63.2559 82.646C58.0488 82.646 53.037 82.7643 48.2208 83.0012L48.319 84.9988C53.1001 84.7637 58.079 84.646 63.2559 84.646V82.646ZM49.2699 84V81.64H47.2699V84H49.2699ZM48.3411 82.6375C50.5513 82.4796 52.2336 82.2382 53.3061 81.8807L52.6736 79.9833C51.8582 80.2551 50.3938 80.4857 48.1986 80.6425L48.3411 82.6375ZM53.284 81.8878C53.896 81.6995 54.4578 81.4107 54.8732 80.9635C55.3092 80.4938 55.5239 79.9127 55.5239 79.28H53.5239C53.5239 79.4339 53.4828 79.5215 53.4076 79.6025C53.3116 79.7059 53.1064 79.8499 52.6958 79.9762L53.284 81.8878ZM55.5239 79.28C55.5239 78.7617 55.3529 78.209 55.1147 77.6678C54.8693 77.1101 54.5147 76.481 54.0654 75.7867L52.3863 76.8733C52.8024 77.5164 53.0968 78.0476 53.2841 78.4732C53.4786 78.9153 53.5239 79.169 53.5239 79.28H55.5239ZM54.0769 75.8049L36.9669 48.0749L35.2648 49.1251L52.3748 76.8551L54.0769 75.8049ZM36.9639 48.07C35.3822 45.5393 33.9687 43.7195 32.7217 42.7397L31.4861 44.3123C32.4417 45.0632 33.7029 46.626 35.2679 49.13L36.9639 48.07ZM32.7498 42.7626C31.5219 41.7236 29.886 41.1648 27.9425 40.9958L27.7692 42.9882C29.4444 43.1339 30.6405 43.5977 31.4579 44.2894L32.7498 42.7626ZM26.8559 41.992V71.492H28.8559V41.992H26.8559ZM26.8559 71.492C26.8559 74.4935 27.0499 76.7799 27.4865 78.2642L29.4052 77.6998C29.0551 76.5095 28.8559 74.4692 28.8559 71.492H26.8559ZM27.5029 78.3148C28.0583 79.8886 29.0723 81.0324 30.5525 81.6245L31.2953 79.7675C30.4155 79.4156 29.7774 78.7501 29.3889 77.6492L27.5029 78.3148ZM30.5525 81.6245C31.8918 82.1602 33.957 82.48 36.6472 82.6383L36.7646 80.6417C34.1055 80.4853 32.3159 80.1758 31.2953 79.7675L30.5525 81.6245ZM35.7059 81.64V84H37.7059V81.64H35.7059ZM36.7613 83.0015C32.4859 82.764 26.525 82.646 18.8879 82.646V84.646C26.512 84.646 32.4299 84.764 36.6504 84.9985L36.7613 83.0015ZM18.8879 82.646C10.4673 82.646 4.2281 82.7639 0.185151 83.0017L0.302595 84.9983C4.28365 84.7641 10.4738 84.646 18.8879 84.646V82.646ZM1.24387 84V81.64H-0.756127V84H1.24387ZM0.304368 82.6382C2.91965 82.4797 4.94253 82.1592 6.27926 81.6245L5.53648 79.7675C4.51321 80.1768 2.7601 80.4857 0.183378 80.6418L0.304368 82.6382ZM6.259 81.6323C7.82448 81.0453 8.86707 79.8899 9.34524 78.2642L7.42651 77.6998C7.11801 78.7487 6.5086 79.4027 5.55675 79.7597L6.259 81.6323ZM9.32886 78.3148C9.86115 76.8067 10.0939 74.4976 10.0939 71.492H8.09387C8.09387 74.4651 7.8546 76.4827 7.44288 77.6492L9.32886 78.3148ZM10.0939 71.492V12.964H8.09387V71.492H10.0939ZM10.0939 12.964C10.0939 9.95842 9.86115 7.64932 9.32886 6.14118L7.44288 6.80682C7.8546 7.97334 8.09387 9.9909 8.09387 12.964H10.0939ZM9.34524 6.19183C8.86707 4.56605 7.82448 3.41072 6.259 2.82367L5.55675 4.69633C6.5086 5.05327 7.11801 5.70728 7.42651 6.75617L9.34524 6.19183ZM6.27927 2.83152C4.94253 2.29683 2.91965 1.97633 0.304367 1.81783L0.183378 3.81417C2.7601 3.97033 4.51321 4.27916 5.53648 4.68847L6.27927 2.83152ZM1.24387 2.816V0.455999H-0.756127V2.816H1.24387ZM0.185152 1.45427C4.2281 1.69209 10.4673 1.80999 18.8879 1.80999V-0.190005C10.4738 -0.190005 4.28365 -0.308098 0.302594 -0.542275L0.185152 1.45427ZM18.8879 1.80999C26.525 1.80999 32.4859 1.69198 36.7613 1.45446L36.6504 -0.542461C32.4299 -0.307991 26.512 -0.190005 18.8879 -0.190005V1.80999ZM35.7059 0.455999V2.816H37.7059V0.455999H35.7059ZM36.6472 1.81772C33.957 1.97597 31.8918 2.29579 30.5525 2.83152L31.2953 4.68848C32.3159 4.28021 34.1055 3.97069 36.7646 3.81427L36.6472 1.81772ZM30.5525 2.83152C29.0723 3.42361 28.0583 4.56743 27.5029 6.14118L29.3889 6.80682C29.7774 5.7059 30.4155 5.04038 31.2953 4.68848L30.5525 2.83152ZM27.4865 6.19183C27.0499 7.67614 26.8559 9.96248 26.8559 12.964H28.8559C28.8559 9.98684 29.0551 7.94652 29.4052 6.75617L27.4865 6.19183ZM26.8559 12.964V39.514H28.8559V12.964H26.8559ZM27.9058 40.5128C31.2308 40.3465 34.2769 39.3458 37.0246 37.514L35.9152 35.8499C33.4709 37.4795 30.7743 38.3668 27.8059 38.5152L27.9058 40.5128ZM37.0246 37.514C39.7245 35.7141 42.741 32.8878 46.0725 29.0805L44.5673 27.7635C41.2907 31.5081 38.4073 34.1886 35.9152 35.8499L37.0246 37.514ZM46.089 29.0611L53.051 20.6831L51.5128 19.4049L44.5508 27.7829L46.089 29.0611ZM53.0371 20.6995C56.7057 16.4726 58.7099 12.5825 58.7099 9.06999H56.7099C56.7099 11.8508 55.0954 15.2768 51.5267 19.3885L53.0371 20.6995ZM58.7099 9.06999C58.7099 6.84903 57.7585 5.05138 55.9233 3.76676L54.7764 5.40523C56.0879 6.32328 56.7099 7.51496 56.7099 9.06999H58.7099ZM55.9431 3.78094C54.2336 2.52136 51.8936 1.86298 49.0349 1.69963L48.9208 3.69637C51.5688 3.84768 53.4768 4.44796 54.7567 5.39105L55.9431 3.78094ZM49.9779 2.698V0.455999H47.9779V2.698H49.9779ZM48.9368 1.45516C54.6935 1.69173 60.5285 1.80999 66.4419 1.80999V-0.190005C60.5552 -0.190005 54.7476 -0.307737 49.0189 -0.543157L48.9368 1.45516ZM66.4419 1.80999C71.0179 1.80999 74.7459 1.69179 77.6169 1.45255L77.4508 -0.540546C74.6578 -0.307798 70.9912 -0.190005 66.4419 -0.190005V1.80999ZM76.5339 0.455999V2.698H78.5339V0.455999H76.5339ZM77.3028 1.72506C70.758 3.27945 64.8794 7.1977 59.6597 13.3809L61.188 14.671C66.1951 8.73963 71.7231 5.10588 77.7649 3.67094L77.3028 1.72506ZM59.6578 13.3833L44.9078 30.9653L46.44 32.2507L61.19 14.6687L59.6578 13.3833ZM44.8323 32.1482L72.3263 74.9822L74.0094 73.9018L46.5154 31.0678L44.8323 32.1482ZM153.982 84L153.936 84.9989L155.088 85.0521L154.978 83.9045L153.982 84ZM91.5602 84H90.5602V85.0293L91.589 84.9996L91.5602 84ZM91.5602 81.64L91.5015 80.6417L90.5602 80.6971V81.64H91.5602ZM97.3422 80.696L97.7136 81.6245L97.7136 81.6245L97.3422 80.696ZM99.7022 77.982L98.7592 77.6492L98.7504 77.6743L98.7428 77.6998L99.7022 77.982ZM99.7022 18.274L98.7428 18.5562L98.7504 18.5817L98.7592 18.6068L99.7022 18.274ZM97.2242 15.56L96.8528 16.4885L96.8629 16.4925L96.8731 16.4963L97.2242 15.56ZM91.5602 14.616H90.5602V15.5572L91.4997 15.6142L91.5602 14.616ZM91.5602 12.256L91.589 11.2564L90.5602 11.2267V12.256H91.5602ZM151.622 12.256L152.617 12.3599L152.738 11.198L151.571 11.2573L151.622 12.256ZM151.15 33.732V34.732H152.289L152.142 33.6027L151.15 33.732ZM148.436 33.732L147.451 33.9038L147.596 34.732H148.436V33.732ZM142.3 19.336L141.593 20.0432L141.603 20.0527L142.3 19.336ZM121.296 15.56L121.59 16.5158L121.623 16.5057L121.655 16.4933L121.296 15.56ZM119.054 17.684L118.135 17.2901L118.128 17.3074L118.121 17.325L119.054 17.684ZM118.464 46.712H117.464V47.712H118.464V46.712ZM132.152 42.936L131.343 42.3478L131.34 42.3524L132.152 42.936ZM135.928 33.968V32.968H135.097L134.945 33.7851L135.928 33.968ZM138.642 33.968L139.638 34.0559L139.734 32.968H138.642V33.968ZM138.996 61.816V62.816H140.082L139.993 61.7341L138.996 61.816ZM136.282 61.816L135.293 61.9633L135.42 62.816H136.282V61.816ZM132.506 52.73L131.715 53.3422L131.726 53.3564L131.738 53.3702L132.506 52.73ZM118.464 49.072V48.072H117.464V49.072H118.464ZM119.054 78.69L118.112 79.0263L118.128 79.0685L118.146 79.1091L119.054 78.69ZM121.296 80.814L120.937 81.7473L120.969 81.7597L121.002 81.7698L121.296 80.814ZM144.07 76.448L143.363 75.7408L143.354 75.7497L144.07 76.448ZM150.796 60.164V59.164H149.948L149.81 60.0013L150.796 60.164ZM153.51 60.164L154.505 60.2705L154.623 59.164H153.51V60.164ZM152.156 68.66C152.156 73.1834 152.434 78.3295 152.987 84.0955L154.978 83.9045C154.429 78.1851 154.156 73.1046 154.156 68.66H152.156ZM154.028 83.0011C148.89 82.7639 140.255 82.646 128.14 82.646V84.646C140.255 84.646 148.848 84.7641 153.936 84.9989L154.028 83.0011ZM128.14 82.646C111.933 82.646 99.7276 82.764 91.5314 83.0004L91.589 84.9996C99.7555 84.764 111.937 84.646 128.14 84.646V82.646ZM92.5602 84V81.64H90.5602V84H92.5602ZM91.6189 82.6383C94.3091 82.48 96.3743 82.1602 97.7136 81.6245L96.9708 79.7675C95.9501 80.1758 94.1606 80.4853 91.5015 80.6417L91.6189 82.6383ZM97.7136 81.6245C99.2085 81.0265 100.191 79.8631 100.662 78.2642L98.7428 77.6998C98.4264 78.7756 97.8359 79.4215 96.9708 79.7675L97.7136 81.6245ZM100.645 78.3148C101.177 76.8067 101.41 74.4976 101.41 71.492H99.4102C99.4102 74.4651 99.1709 76.4827 98.7592 77.6492L100.645 78.3148ZM101.41 71.492V24.764H99.4102V71.492H101.41ZM101.41 24.764C101.41 21.7584 101.177 19.4493 100.645 17.9412L98.7592 18.6068C99.1709 19.7733 99.4102 21.7909 99.4102 24.764H101.41ZM100.662 17.9918C100.183 16.3661 99.1408 15.2107 97.5753 14.6237L96.8731 16.4963C97.8249 16.8533 98.4343 17.5073 98.7428 18.5562L100.662 17.9918ZM97.5956 14.6315C96.2589 14.0968 94.236 13.7763 91.6207 13.6178L91.4997 15.6142C94.0764 15.7703 95.8295 16.0792 96.8528 16.4885L97.5956 14.6315ZM92.5602 14.616V12.256H90.5602V14.616H92.5602ZM91.5314 13.2556C99.7276 13.492 111.933 13.61 128.14 13.61V11.61C111.937 11.61 99.7555 11.492 91.589 11.2564L91.5314 13.2556ZM128.14 13.61C139.154 13.61 147.004 13.4921 151.673 13.2547L151.571 11.2573C146.958 11.4919 139.153 11.61 128.14 11.61V13.61ZM150.628 12.1521C150.074 17.4485 149.796 22.2042 149.796 26.416H151.796C151.796 22.2892 152.069 17.6048 152.617 12.3599L150.628 12.1521ZM149.796 26.416C149.796 29.5024 149.915 31.99 150.159 33.8613L152.142 33.6027C151.914 31.8553 151.796 29.4656 151.796 26.416H149.796ZM151.15 32.732H148.436V34.732H151.15V32.732ZM149.421 33.5602C148.228 26.7165 146.132 21.6687 142.998 18.6193L141.603 20.0527C144.29 22.6673 146.285 27.2168 147.451 33.9038L149.421 33.5602ZM143.007 18.6289C139.866 15.4875 135.575 13.97 130.264 13.97V15.97C135.18 15.97 138.913 17.3631 141.593 20.0431L143.007 18.6289ZM130.264 13.97H125.898V15.97H130.264V13.97ZM125.898 13.97C123.818 13.97 122.135 14.1661 120.937 14.6266L121.655 16.4933C122.503 16.1672 123.888 15.97 125.898 15.97V13.97ZM121.002 14.6042C119.663 15.0163 118.707 15.9551 118.135 17.2901L119.973 18.0779C120.345 17.2102 120.884 16.7331 121.59 16.5158L121.002 14.6042ZM118.121 17.325C117.657 18.5301 117.464 20.3396 117.464 22.64H119.464C119.464 20.3777 119.664 18.8832 119.988 18.043L118.121 17.325ZM117.464 22.64V46.712H119.464V22.64H117.464ZM118.464 47.712H124.01V45.712H118.464V47.712ZM124.01 47.712C127.889 47.712 130.934 46.3446 132.964 43.5196L131.34 42.3524C129.752 44.562 127.368 45.712 124.01 45.712V47.712ZM132.961 43.5242C134.943 40.7992 136.257 37.6692 136.911 34.1509L134.945 33.7851C134.341 37.0321 133.138 39.8808 131.343 42.3478L132.961 43.5242ZM135.928 34.968H138.642V32.968H135.928V34.968ZM137.646 33.8801C137.407 36.5909 137.288 39.6892 137.288 43.172H139.288C139.288 39.7321 139.406 36.6944 139.638 34.0559L137.646 33.8801ZM137.288 43.172V47.892H139.288V43.172H137.288ZM137.288 47.892C137.288 51.4709 137.527 56.1426 138 61.8979L139.993 61.7341C139.522 56.0041 139.288 51.3931 139.288 47.892H137.288ZM138.996 60.816H136.282V62.816H138.996V60.816ZM137.271 61.6687C136.699 57.8293 135.382 54.6185 133.274 52.0898L131.738 53.3702C133.564 55.5615 134.764 58.408 135.293 61.9633L137.271 61.6687ZM133.297 52.1178C131.177 49.3794 128.019 48.072 124.01 48.072V50.072C127.554 50.072 130.06 51.2032 131.715 53.3422L133.297 52.1178ZM124.01 48.072H118.464V50.072H124.01V48.072ZM117.464 49.072V73.616H119.464V49.072H117.464ZM117.464 73.616C117.464 75.9244 117.659 77.7575 118.112 79.0263L119.996 78.3537C119.662 77.4199 119.464 75.8703 119.464 73.616H117.464ZM118.146 79.1091C118.724 80.3607 119.664 81.2577 120.937 81.7473L121.655 79.8807C120.883 79.5836 120.328 79.0646 119.962 78.2709L118.146 79.1091ZM121.002 81.7698C122.171 82.1295 123.827 82.286 125.898 82.286V80.286C123.879 80.286 122.467 80.1278 121.59 79.8582L121.002 81.7698ZM125.898 82.286H130.972V80.286H125.898V82.286ZM130.972 82.286C136.758 82.286 141.408 80.6087 144.786 77.1463L143.354 75.7497C140.439 78.738 136.357 80.286 130.972 80.286V82.286ZM144.777 77.1551C148.222 73.7107 150.511 68.0347 151.783 60.3267L149.81 60.0013C148.564 67.5546 146.369 72.7346 143.363 75.7409L144.777 77.1551ZM150.796 61.164H153.51V59.164H150.796V61.164ZM152.516 60.0575C152.275 62.3094 152.156 65.1805 152.156 68.66H154.156C154.156 65.2169 154.274 62.424 154.505 60.2705L152.516 60.0575ZM239.812 12.256L240.808 12.3477L240.912 11.2179L239.778 11.2566L239.812 12.256ZM239.34 38.688V39.688H240.439L240.336 38.5947L239.34 38.688ZM236.626 38.688L235.643 38.8692L235.794 39.688H236.626V38.688ZM232.614 24.646L231.7 25.0502L231.704 25.059L231.708 25.0677L232.614 24.646ZM226.714 17.33L226.16 18.1621L226.176 18.1726L226.192 18.1826L226.714 17.33ZM213.852 14.97V13.97H212.852V14.97H213.852ZM214.796 77.51L213.875 77.8981L213.875 77.8981L214.796 77.51ZM218.1 80.578L217.77 81.5219L217.77 81.5219L218.1 80.578ZM225.77 81.64H226.77V80.6835L225.815 80.641L225.77 81.64ZM225.77 84L225.715 84.9985L226.77 85.0571V84H225.77ZM183.88 84H182.88V85.0645L183.943 84.9981L183.88 84ZM183.88 81.64L183.836 80.641L182.88 80.6835V81.64H183.88ZM191.55 80.578L191.881 81.5219L191.881 81.5219L191.55 80.578ZM194.854 77.51L193.933 77.1219L193.933 77.1219L194.854 77.51ZM195.798 14.97H196.798V13.97H195.798V14.97ZM182.818 17.33L183.354 18.1748L183.361 18.1703L182.818 17.33ZM176.918 24.646L176.012 24.2243L176.008 24.233L176.004 24.2418L176.918 24.646ZM173.024 38.688V39.688H173.857L174.008 38.8692L173.024 38.688ZM170.31 38.688L169.315 38.5947L169.212 39.688H170.31V38.688ZM169.838 12.256L169.873 11.2566L168.739 11.2175L168.843 12.3477L169.838 12.256ZM238.817 12.1643C238.264 18.1657 237.986 23.5465 237.986 28.304H239.986C239.986 23.6215 240.26 18.3036 240.808 12.3477L238.817 12.1643ZM237.986 28.304C237.986 32.7213 238.105 36.2184 238.345 38.7813L240.336 38.5947C240.104 36.1229 239.986 32.6974 239.986 28.304H237.986ZM239.34 37.688H236.626V39.688H239.34V37.688ZM237.61 38.5068C236.502 32.4901 235.145 27.7162 233.521 24.2243L231.708 25.0677C233.23 28.3411 234.549 32.9285 235.643 38.8692L237.61 38.5068ZM233.529 24.2418C231.976 20.7275 229.893 18.1055 227.237 16.4774L226.192 18.1826C228.413 19.5439 230.263 21.7992 231.7 25.0502L233.529 24.2418ZM227.269 16.498C224.699 14.7842 221.42 13.97 217.51 13.97V15.97C221.153 15.97 224.01 16.7291 226.16 18.1621L227.269 16.498ZM217.51 13.97H213.852V15.97H217.51V13.97ZM212.852 14.97V70.312H214.852V14.97H212.852ZM212.852 70.312C212.852 73.6397 213.164 76.209 213.875 77.8981L215.718 77.1219C215.171 75.8217 214.852 73.5923 214.852 70.312H212.852ZM213.875 77.8981C214.617 79.6614 215.938 80.8808 217.77 81.5219L218.431 79.6341C217.116 79.1739 216.234 78.348 215.718 77.1219L213.875 77.8981ZM217.77 81.5219C219.491 82.1241 222.173 82.4811 225.726 82.639L225.815 80.641C222.288 80.4842 219.857 80.1332 218.431 79.6341L217.77 81.5219ZM224.77 81.64V84H226.77V81.64H224.77ZM225.826 83.0015C221.548 82.7639 214.443 82.646 204.53 82.646V84.646C214.442 84.646 221.497 84.7641 225.715 84.9985L225.826 83.0015ZM204.53 82.646C194.542 82.646 187.629 82.7637 183.818 83.0019L183.943 84.9981C187.684 84.7643 194.538 84.646 204.53 84.646V82.646ZM184.88 84V81.64H182.88V84H184.88ZM183.925 82.639C187.478 82.4811 190.16 82.1241 191.881 81.5219L191.22 79.6341C189.794 80.1332 187.363 80.4842 183.836 80.641L183.925 82.639ZM191.881 81.5219C193.712 80.8808 195.034 79.6614 195.776 77.8981L193.933 77.1219C193.417 78.348 192.535 79.1739 191.22 79.6341L191.881 81.5219ZM195.776 77.8981C196.487 76.209 196.798 73.6397 196.798 70.312H194.798C194.798 73.5923 194.48 75.8217 193.933 77.1219L195.776 77.8981ZM196.798 70.312V14.97H194.798V70.312H196.798ZM195.798 13.97H192.14V15.97H195.798V13.97ZM192.14 13.97C188.229 13.97 184.919 14.785 182.276 16.4897L183.361 18.1703C185.596 16.7283 188.5 15.97 192.14 15.97V13.97ZM182.283 16.4852C179.716 18.1114 177.639 20.7248 176.012 24.2243L177.825 25.0677C179.344 21.8019 181.201 19.5379 183.354 18.1748L182.283 16.4852ZM176.004 24.2418C174.464 27.7267 173.149 32.4938 172.041 38.5068L174.008 38.8692C175.103 32.9249 176.384 28.3306 177.833 25.0502L176.004 24.2418ZM173.024 37.688H170.31V39.688H173.024V37.688ZM171.306 38.7813C171.546 36.2184 171.664 32.7213 171.664 28.304H169.664C169.664 32.6974 169.547 36.1229 169.315 38.5947L171.306 38.7813ZM171.664 28.304C171.664 23.5465 171.387 18.1657 170.834 12.1643L168.843 12.3477C169.391 18.3036 169.664 23.6215 169.664 28.304H171.664ZM169.804 13.2554C176.667 13.4921 188.246 13.61 204.53 13.61V11.61C188.247 11.61 176.698 11.4919 169.873 11.2566L169.804 13.2554ZM204.53 13.61C221.129 13.61 232.905 13.4921 239.847 13.2554L239.778 11.2566C232.874 11.4919 221.129 11.61 204.53 11.61V13.61ZM310.251 74.088L309.34 74.5003L309.345 74.5117L310.251 74.088ZM317.685 81.64H318.685V80.6971L317.744 80.6417L317.685 81.64ZM317.685 84L317.623 84.9981L318.685 85.0645V84H317.685ZM283.583 84H282.583V85.0606L283.642 84.9983L283.583 84ZM283.583 81.64L283.523 80.6418L282.583 80.6988V81.64H283.583ZM289.365 80.46L289.812 81.3544L289.834 81.3435L289.855 81.3316L289.365 80.46ZM289.719 71.728L288.803 72.1297L288.81 72.1459L288.818 72.1618L289.719 71.728ZM283.819 58.276L284.735 57.8743L284.472 57.276H283.819V58.276ZM259.039 58.276V57.276H258.389L258.125 57.8699L259.039 58.276ZM257.623 61.462L256.709 61.0559L256.706 61.0636L256.702 61.0714L257.623 61.462ZM256.915 79.516L257.503 78.7073L257.503 78.7073L256.915 79.516ZM264.585 81.64H265.585V80.6854L264.632 80.6411L264.585 81.64ZM264.585 84L264.533 84.9986L265.585 85.054V84H264.585ZM241.457 84H240.457V85.1173L241.568 84.9939L241.457 84ZM241.457 81.64L241.253 80.661L240.457 80.8269V81.64H241.457ZM246.649 78.1L245.871 77.4717L245.868 77.4753L246.649 78.1ZM251.841 69.014L252.753 69.4251L252.757 69.4143L251.841 69.014ZM276.739 12.02L276.863 11.0277L276.122 10.9351L275.823 11.6197L276.739 12.02ZM282.167 12.02L283.078 11.6078L282.769 10.9239L282.026 11.03L282.167 12.02ZM282.757 55.916V56.916H284.287L283.673 55.5145L282.757 55.916ZM271.429 30.074L272.345 29.6725L271.429 27.5832L270.513 29.6725L271.429 30.074ZM260.101 55.916L259.185 55.5145L258.571 56.916H260.101V55.916ZM309.345 74.5117C310.512 77.0051 311.759 78.9651 313.108 80.3355C314.464 81.7133 315.972 82.5409 317.626 82.6383L317.744 80.6417C316.724 80.5817 315.655 80.0721 314.533 78.9325C313.404 77.7856 312.272 76.0483 311.157 73.6643L309.345 74.5117ZM316.685 81.64V84H318.685V81.64H316.685ZM317.747 83.0019C313.941 82.764 308.765 82.646 302.227 82.646V84.646C308.748 84.646 313.877 84.764 317.623 84.9981L317.747 83.0019ZM302.227 82.646C293.806 82.646 287.567 82.7639 283.524 83.0017L283.642 84.9983C287.623 84.7641 293.813 84.646 302.227 84.646V82.646ZM284.583 84V81.64H282.583V84H284.583ZM283.644 82.6382C286.279 82.4784 288.37 82.0755 289.812 81.3544L288.918 79.5656C287.843 80.1031 286.079 80.4869 283.523 80.6418L283.644 82.6382ZM289.855 81.3316C291.462 80.4279 292.253 78.9331 292.253 77.038H290.253C290.253 78.2896 289.786 79.0761 288.875 79.5884L289.855 81.3316ZM292.253 77.038C292.253 75.4037 291.67 73.4748 290.62 71.2942L288.818 72.1618C289.814 74.2292 290.253 75.8403 290.253 77.038H292.253ZM290.635 71.3263L284.735 57.8743L282.903 58.6777L288.803 72.1297L290.635 71.3263ZM283.819 57.276H259.039V59.276H283.819V57.276ZM258.125 57.8699L256.709 61.0559L258.537 61.8681L259.953 58.6821L258.125 57.8699ZM256.702 61.0714C254.487 66.2929 253.319 70.4971 253.319 73.616H255.319C255.319 70.9136 256.354 67.0151 258.544 61.8525L256.702 61.0714ZM253.319 73.616C253.319 76.5214 254.273 78.831 256.327 80.3247L257.503 78.7073C256.096 77.6837 255.319 76.0599 255.319 73.616H253.319ZM256.327 80.3247C258.283 81.7474 261.065 82.4774 264.539 82.6389L264.632 80.6411C261.34 80.488 259.008 79.802 257.503 78.7073L256.327 80.3247ZM263.585 81.64V84H265.585V81.64H263.585ZM264.638 83.0014C260.136 82.7644 255.595 82.646 251.015 82.646V84.646C255.561 84.646 260.066 84.7636 264.533 84.9986L264.638 83.0014ZM251.015 82.646C246.759 82.646 243.528 82.7638 241.347 83.0061L241.568 84.9939C243.635 84.7642 246.775 84.646 251.015 84.646V82.646ZM242.457 84V81.64H240.457V84H242.457ZM241.661 82.619C243.838 82.1654 245.756 80.8167 247.43 78.7247L245.868 77.4753C244.395 79.3166 242.852 80.328 241.253 80.661L241.661 82.619ZM247.427 78.7283C249.157 76.587 250.928 73.4702 252.753 69.4251L250.929 68.6029C249.135 72.5818 247.446 75.5223 245.871 77.4717L247.427 78.7283ZM252.757 69.4143L277.655 12.4203L275.823 11.6197L250.925 68.6137L252.757 69.4143ZM276.615 13.0123C277.307 13.0987 278.26 13.138 279.453 13.138V11.138C278.286 11.138 277.43 11.0986 276.863 11.0277L276.615 13.0123ZM279.453 13.138C280.715 13.138 281.682 13.0995 282.309 13.0099L282.026 11.03C281.551 11.0978 280.708 11.138 279.453 11.138V13.138ZM281.256 12.4322L309.34 74.5002L311.162 73.6758L283.078 11.6078L281.256 12.4322ZM283.673 55.5145L272.345 29.6725L270.513 30.4755L281.841 56.3175L283.673 55.5145ZM270.513 29.6725L259.185 55.5145L261.017 56.3175L272.345 30.4755L270.513 29.6725ZM260.101 56.916H282.757V54.916H260.101V56.916ZM400.044 74.442L399.231 75.0253L399.239 75.0363L399.247 75.0471L400.044 74.442ZM408.068 81.64H409.068V81.0086L408.497 80.7371L408.068 81.64ZM408.068 84L408.024 84.9991L409.068 85.0444V84H408.068ZM373.966 84H372.966V85.0472L374.012 84.9989L373.966 84ZM373.966 81.64L373.934 80.6405L372.966 80.6708V81.64H373.966ZM379.276 81.05L379.57 82.0058L379.602 81.9957L379.635 81.9833L379.276 81.05ZM379.512 76.33L380.351 75.7867L380.342 75.7724L380.332 75.7583L379.512 76.33ZM364.054 54.146L364.874 53.5743L364.87 53.568L364.054 54.146ZM360.042 49.898L359.434 50.6924L359.449 50.704L359.465 50.715L360.042 49.898ZM354.732 48.246L354.767 47.2466L353.732 47.2096V48.246H354.732ZM355.322 77.982L354.362 78.2642L354.37 78.2897L354.379 78.3148L355.322 77.982ZM357.8 80.696L358.171 79.7675L358.171 79.7675L357.8 80.696ZM363.582 81.64H364.582V80.6971L363.64 80.6417L363.582 81.64ZM363.582 84L363.523 84.9983L364.582 85.0606V84H363.582ZM327.828 84H326.828V85.0606L327.886 84.9983L327.828 84ZM327.828 81.64L327.769 80.6417L326.828 80.6971V81.64H327.828ZM333.61 80.696L333.981 81.6245L333.981 81.6245L333.61 80.696ZM335.97 77.982L335.027 77.6492L335.018 77.6743L335.01 77.6998L335.97 77.982ZM335.97 18.274L335.01 18.5562L335.018 18.5817L335.027 18.6068L335.97 18.274ZM333.492 15.56L333.12 16.4885L333.13 16.4925L333.14 16.4963L333.492 15.56ZM327.828 14.616H326.828V15.5572L327.767 15.6142L327.828 14.616ZM327.828 12.256L327.886 11.2577L326.828 11.1954V12.256H327.828ZM363.582 12.256H364.582V11.1954L363.523 11.2577L363.582 12.256ZM363.582 14.616L363.64 15.6143L364.582 15.5589V14.616H363.582ZM357.8 15.56L357.428 14.6315L357.428 14.6315L357.8 15.56ZM355.322 18.274L354.379 17.9412L354.37 17.9663L354.362 17.9918L355.322 18.274ZM354.732 45.886H353.732V46.9833L354.824 46.8817L354.732 45.886ZM364.054 43.29L363.606 42.3956L363.606 42.3956L364.054 43.29ZM373.14 36.564L373.829 37.2886L373.841 37.2771L373.852 37.2653L373.14 36.564ZM380.338 29.248L379.64 28.5318L379.632 28.5391L379.625 28.5467L380.338 29.248ZM376.09 14.498H375.09V15.4392L376.029 15.4962L376.09 14.498ZM376.09 12.256L376.131 11.2569L375.09 11.2135V12.256H376.09ZM404.764 12.256H405.764V11.1692L404.681 11.2594L404.764 12.256ZM404.764 14.498L404.986 15.4729L405.764 15.2952V14.498H404.764ZM396.858 17.802L397.368 18.6618L397.378 18.656L397.388 18.65L396.858 17.802ZM388.716 24.174L388.028 23.4475L388.021 23.4543L388.014 23.4611L388.716 24.174ZM374.202 38.452L373.5 37.7391L372.89 38.3397L373.389 39.0353L374.202 38.452ZM399.247 75.0471C400.758 77.0344 402.095 78.5801 403.257 79.6588L404.618 78.1932C403.577 77.2265 402.319 75.7829 400.84 73.8369L399.247 75.0471ZM403.257 79.6588C404.447 80.7636 405.913 81.7217 407.638 82.5429L408.497 80.7371C406.918 79.985 405.631 79.1337 404.618 78.1932L403.257 79.6588ZM407.068 81.64V84H409.068V81.64H407.068ZM408.111 83.0009C402.666 82.7642 396.633 82.646 390.014 82.646V84.646C396.61 84.646 402.613 84.7638 408.024 84.9991L408.111 83.0009ZM390.014 82.646C384.414 82.646 379.049 82.7643 373.919 83.0011L374.012 84.9989C379.108 84.7637 384.442 84.646 390.014 84.646V82.646ZM374.966 84V81.64H372.966V84H374.966ZM373.997 82.6395C376.516 82.5608 378.406 82.3638 379.57 82.0058L378.981 80.0942C378.1 80.3655 376.45 80.5619 373.934 80.6405L373.997 82.6395ZM379.635 81.9833C380.799 81.5353 381.81 80.7307 381.81 79.398H379.81C379.81 79.4813 379.797 79.778 378.917 80.1167L379.635 81.9833ZM381.81 79.398C381.81 78.8559 381.648 78.2826 381.406 77.7104C381.16 77.1281 380.803 76.4851 380.351 75.7867L378.672 76.8732C379.085 77.5122 379.378 78.0493 379.564 78.4896C379.755 78.9401 379.81 79.2321 379.81 79.398H381.81ZM380.332 75.7583L364.874 53.5743L363.233 54.7177L378.691 76.9017L380.332 75.7583ZM364.87 53.568C363.492 51.6225 362.078 50.1115 360.618 49.081L359.465 50.715C360.68 51.5725 361.941 52.8935 363.238 54.724L364.87 53.568ZM360.649 49.1036C359.103 47.9212 357.114 47.3304 354.767 47.2466L354.696 49.2454C356.755 49.3189 358.306 49.8295 359.434 50.6924L360.649 49.1036ZM353.732 48.246V71.492H355.732V48.246H353.732ZM353.732 71.492C353.732 74.4935 353.926 76.7799 354.362 78.2642L356.281 77.6998C355.931 76.5095 355.732 74.4692 355.732 71.492H353.732ZM354.379 78.3148C354.934 79.8886 355.948 81.0324 357.428 81.6245L358.171 79.7675C357.291 79.4156 356.653 78.7501 356.265 77.6492L354.379 78.3148ZM357.428 81.6245C358.767 82.1602 360.833 82.48 363.523 82.6383L363.64 80.6417C360.981 80.4853 359.192 80.1758 358.171 79.7675L357.428 81.6245ZM362.582 81.64V84H364.582V81.64H362.582ZM363.64 83.0017C359.598 82.764 353.754 82.646 346.118 82.646V84.646C353.743 84.646 359.541 84.764 363.523 84.9983L363.64 83.0017ZM346.118 82.646C337.932 82.646 331.811 82.7639 327.769 83.0017L327.886 84.9983C331.868 84.7641 337.94 84.646 346.118 84.646V82.646ZM328.828 84V81.64H326.828V84H328.828ZM327.886 82.6383C330.576 82.48 332.642 82.1602 333.981 81.6245L333.238 79.7675C332.217 80.1758 330.428 80.4853 327.769 80.6417L327.886 82.6383ZM333.981 81.6245C335.476 81.0265 336.459 79.8631 336.929 78.2642L335.01 77.6998C334.694 78.7756 334.103 79.4215 333.238 79.7675L333.981 81.6245ZM336.913 78.3148C337.445 76.8067 337.678 74.4976 337.678 71.492H335.678C335.678 74.4651 335.438 76.4827 335.027 77.6492L336.913 78.3148ZM337.678 71.492V24.764H335.678V71.492H337.678ZM337.678 24.764C337.678 21.7584 337.445 19.4493 336.913 17.9412L335.027 18.6068C335.438 19.7733 335.678 21.7909 335.678 24.764H337.678ZM336.929 17.9918C336.451 16.3661 335.408 15.2107 333.843 14.6237L333.14 16.4963C334.092 16.8533 334.702 17.5073 335.01 18.5562L336.929 17.9918ZM333.863 14.6315C332.526 14.0968 330.503 13.7763 327.888 13.6178L327.767 15.6142C330.344 15.7703 332.097 16.0792 333.12 16.4885L333.863 14.6315ZM328.828 14.616V12.256H326.828V14.616H328.828ZM327.769 13.2543C331.811 13.4921 337.932 13.61 346.118 13.61V11.61C337.94 11.61 331.868 11.4919 327.886 11.2577L327.769 13.2543ZM346.118 13.61C353.754 13.61 359.598 13.492 363.64 13.2543L363.523 11.2577C359.541 11.492 353.743 11.61 346.118 11.61V13.61ZM362.582 12.256V14.616H364.582V12.256H362.582ZM363.523 13.6177C360.833 13.776 358.767 14.0958 357.428 14.6315L358.171 16.4885C359.192 16.0802 360.981 15.7707 363.64 15.6143L363.523 13.6177ZM357.428 14.6315C355.948 15.2236 354.934 16.3674 354.379 17.9412L356.265 18.6068C356.653 17.5059 357.291 16.8404 358.171 16.4885L357.428 14.6315ZM354.362 17.9918C353.926 19.4761 353.732 21.7625 353.732 24.764H355.732C355.732 21.7868 355.931 19.7465 356.281 18.5562L354.362 17.9918ZM353.732 24.764V45.886H355.732V24.764H353.732ZM354.824 46.8817C358.321 46.5564 361.55 45.6598 364.501 44.1844L363.606 42.3956C360.893 43.7522 357.907 44.5863 354.639 44.8903L354.824 46.8817ZM364.501 44.1844C367.449 42.7102 370.558 40.3995 373.829 37.2886L372.45 35.8394C369.27 38.8645 366.322 41.0378 363.606 42.3956L364.501 44.1844ZM373.852 37.2653L381.05 29.9493L379.625 28.5467L372.427 35.8627L373.852 37.2653ZM381.035 29.9642C384.161 26.9187 385.94 23.958 385.94 21.106H383.94C383.94 23.1313 382.65 25.5986 379.64 28.5318L381.035 29.9642ZM385.94 21.106C385.94 18.8676 384.934 17.0414 383.043 15.6903L381.88 17.3177C383.293 18.3266 383.94 19.5684 383.94 21.106H385.94ZM383.043 15.6903C381.2 14.3743 378.881 13.6654 376.15 13.4998L376.029 15.4962C378.49 15.6453 380.419 16.2737 381.88 17.3177L383.043 15.6903ZM377.09 14.498V12.256H375.09V14.498H377.09ZM376.048 13.2551C381.728 13.4918 387.799 13.61 394.262 13.61V11.61C387.823 11.61 381.78 11.4922 376.131 11.2569L376.048 13.2551ZM394.262 13.61C398.447 13.61 401.977 13.4916 404.847 13.2525L404.681 11.2594C401.886 11.4924 398.415 11.61 394.262 11.61V13.61ZM403.764 12.256V14.498H405.764V12.256H403.764ZM404.541 13.5231C401.673 14.1786 398.935 15.3246 396.328 16.954L397.388 18.65C399.815 17.1327 402.347 16.0761 404.986 15.4729L404.541 13.5231ZM396.347 16.9421C393.748 18.4855 390.975 20.6605 388.028 23.4475L389.403 24.9005C392.278 22.1808 394.933 20.1078 397.368 18.6618L396.347 16.9421ZM388.014 23.4611L373.5 37.7391L374.903 39.1649L389.417 24.8869L388.014 23.4611ZM373.389 39.0353L399.231 75.0253L400.856 73.8587L375.014 37.8687L373.389 39.0353ZM454.667 14.616L454.726 15.6143L455.667 15.5589V14.616H454.667ZM448.885 15.56L448.514 14.6315L448.514 14.6315L448.885 15.56ZM446.407 18.274L445.464 17.9412L445.456 17.9663L445.448 17.9918L446.407 18.274ZM446.407 77.982L445.448 78.2642L445.456 78.2897L445.464 78.3148L446.407 77.982ZM448.885 80.696L449.257 79.7675L449.257 79.7675L448.885 80.696ZM454.667 81.64H455.667V80.6971L454.726 80.6417L454.667 81.64ZM454.667 84L454.609 84.9983L455.667 85.0606V84H454.667ZM418.913 84H417.913V85.0618L418.973 84.9982L418.913 84ZM418.913 81.64L418.855 80.6417L417.913 80.6971V81.64H418.913ZM424.695 80.696L425.067 81.6245L425.067 81.6245L424.695 80.696ZM427.055 77.982L426.112 77.6492L426.104 77.6743L426.096 77.6998L427.055 77.982ZM427.055 18.274L426.096 18.5562L426.104 18.5817L426.112 18.6068L427.055 18.274ZM424.577 15.56L424.206 16.4885L424.216 16.4925L424.226 16.4963L424.577 15.56ZM418.913 14.616H417.913V15.5572L418.853 15.6142L418.913 14.616ZM418.913 12.256L418.975 11.2579L417.913 11.1929V12.256H418.913ZM454.667 12.256H455.667V11.1954L454.609 11.2577L454.667 12.256ZM454.609 13.6177C451.918 13.776 449.853 14.0958 448.514 14.6315L449.257 16.4885C450.277 16.0802 452.067 15.7707 454.726 15.6143L454.609 13.6177ZM448.514 14.6315C447.034 15.2236 446.02 16.3674 445.464 17.9412L447.35 18.6068C447.739 17.5059 448.377 16.8404 449.257 16.4885L448.514 14.6315ZM445.448 17.9918C445.011 19.4761 444.817 21.7625 444.817 24.764H446.817C446.817 21.7868 447.017 19.7465 447.367 18.5562L445.448 17.9918ZM444.817 24.764V71.492H446.817V24.764H444.817ZM444.817 71.492C444.817 74.4935 445.011 76.7799 445.448 78.2642L447.367 77.6998C447.017 76.5095 446.817 74.4692 446.817 71.492H444.817ZM445.464 78.3148C446.02 79.8886 447.034 81.0324 448.514 81.6245L449.257 79.7675C448.377 79.4156 447.739 78.7501 447.35 77.6492L445.464 78.3148ZM448.514 81.6245C449.853 82.1602 451.918 82.48 454.609 82.6383L454.726 80.6417C452.067 80.4853 450.277 80.1758 449.257 79.7675L448.514 81.6245ZM453.667 81.64V84H455.667V81.64H453.667ZM454.726 83.0017C450.684 82.764 444.84 82.646 437.203 82.646V84.646C444.829 84.646 450.626 84.764 454.609 84.9983L454.726 83.0017ZM437.203 82.646C428.94 82.646 422.818 82.7639 418.854 83.0018L418.973 84.9982C422.875 84.7641 428.947 84.646 437.203 84.646V82.646ZM419.913 84V81.64H417.913V84H419.913ZM418.972 82.6383C421.662 82.48 423.727 82.1602 425.067 81.6245L424.324 79.7675C423.303 80.1758 421.514 80.4853 418.855 80.6417L418.972 82.6383ZM425.067 81.6245C426.562 81.0265 427.544 79.8631 428.015 78.2642L426.096 77.6998C425.78 78.7756 425.189 79.4215 424.324 79.7675L425.067 81.6245ZM427.998 78.3148C428.531 76.8067 428.763 74.4976 428.763 71.492H426.763C426.763 74.4651 426.524 76.4827 426.112 77.6492L427.998 78.3148ZM428.763 71.492V24.764H426.763V71.492H428.763ZM428.763 24.764C428.763 21.7584 428.531 19.4493 427.998 17.9412L426.112 18.6068C426.524 19.7733 426.763 21.7909 426.763 24.764H428.763ZM428.015 17.9918C427.537 16.3661 426.494 15.2107 424.929 14.6237L424.226 16.4963C425.178 16.8533 425.788 17.5073 426.096 18.5562L428.015 17.9918ZM424.949 14.6315C423.612 14.0968 421.589 13.7763 418.974 13.6178L418.853 15.6142C421.43 15.7703 423.183 16.0792 424.206 16.4885L424.949 14.6315ZM419.913 14.616V12.256H417.913V14.616H419.913ZM418.852 13.2541C422.74 13.4921 428.862 13.61 437.203 13.61V11.61C428.867 11.61 422.797 11.4919 418.975 11.2579L418.852 13.2541ZM437.203 13.61C444.84 13.61 450.684 13.492 454.726 13.2543L454.609 11.2577C450.626 11.492 444.829 11.61 437.203 11.61V13.61ZM453.667 12.256V14.616H455.667V12.256H453.667ZM573.382 0.455999L574.379 0.529484L574.461 -0.580525L573.349 -0.543445L573.382 0.455999ZM572.91 29.484V30.484H574.019L573.905 29.3811L572.91 29.484ZM570.196 29.484L569.214 29.6755L569.372 30.484H570.196V29.484ZM562.408 9.06999L561.635 9.70412L561.642 9.71319L562.408 9.06999ZM546.36 3.16999V2.16999H545.36V3.16999H546.36ZM547.304 77.746L546.382 78.1341L546.391 78.1543L546.4 78.1741L547.304 77.746ZM550.844 80.814L550.528 81.7627L550.554 81.7715L550.581 81.7788L550.844 80.814ZM558.986 81.64H559.986V80.6611L559.007 80.6402L558.986 81.64ZM558.986 84L558.962 84.9997L559.986 85.0241V84H558.986ZM514.972 84H513.972V85.0253L514.997 84.9997L514.972 84ZM514.972 81.64L514.951 80.6402L513.972 80.6611V81.64H514.972ZM522.996 80.814L523.271 81.7755L523.285 81.7714L523.299 81.7669L522.996 80.814ZM526.536 77.746L525.632 77.3179L525.623 77.3377L525.614 77.3579L526.536 77.746ZM527.598 3.16999H528.598V2.16999H527.598V3.16999ZM515.326 5.648L514.8 4.79712L514.789 4.80433L515.326 5.648ZM508.6 13.908L509.494 14.3552L509.498 14.3479L508.6 13.908ZM503.762 29.484V30.484H504.58L504.742 29.6824L503.762 29.484ZM501.048 29.484L500.053 29.3811L499.939 30.484H501.048V29.484ZM500.576 0.455999L500.609 -0.543458L499.497 -0.580117L499.579 0.529485L500.576 0.455999ZM572.385 0.382515C571.833 7.87413 571.556 14.586 571.556 20.516H573.556C573.556 14.646 573.83 7.98453 574.379 0.529484L572.385 0.382515ZM571.556 20.516C571.556 24.2297 571.674 27.2572 571.915 29.5869L573.905 29.3811C573.674 27.1481 573.556 24.197 573.556 20.516H571.556ZM572.91 28.484H570.196V30.484H572.91V28.484ZM571.177 29.2925C569.282 19.577 566.647 12.5621 563.174 8.4268L561.642 9.71319C564.777 13.4446 567.334 20.039 569.214 29.6755L571.177 29.2925ZM563.181 8.43591C559.743 4.24275 554.999 2.16999 549.074 2.16999V4.16999C554.477 4.16999 558.622 6.03057 561.635 9.70407L563.181 8.43591ZM549.074 2.16999H546.36V4.16999H549.074V2.16999ZM545.36 3.16999V70.548H547.36V3.16999H545.36ZM545.36 70.548C545.36 73.8757 545.671 76.445 546.382 78.1341L548.225 77.3579C547.678 76.0577 547.36 73.8283 547.36 70.548H545.36ZM546.4 78.1741C547.232 79.9293 548.632 81.1309 550.528 81.7627L551.16 79.8653C549.751 79.3957 548.792 78.552 548.208 77.3179L546.4 78.1741ZM550.581 81.7788C552.436 82.2847 555.253 82.5608 558.965 82.6398L559.007 80.6402C555.324 80.5619 552.713 80.2873 551.107 79.8492L550.581 81.7788ZM557.986 81.64V84H559.986V81.64H557.986ZM559.01 83.0003C549.096 82.7642 541.613 82.646 536.566 82.646V84.646C541.588 84.646 549.052 84.7638 558.962 84.9997L559.01 83.0003ZM536.566 82.646C531.597 82.646 524.389 82.7643 514.947 83.0003L514.997 84.9997C524.435 84.7637 531.623 84.646 536.566 84.646V82.646ZM515.972 84V81.64H513.972V84H515.972ZM514.993 82.6398C518.701 82.5609 521.486 82.2853 523.271 81.7755L522.721 79.8525C521.201 80.2867 518.637 80.5618 514.951 80.6402L514.993 82.6398ZM523.299 81.7669C525.271 81.1395 526.7 79.9327 527.457 78.1341L525.614 77.3579C525.113 78.5486 524.182 79.3872 522.693 79.8611L523.299 81.7669ZM527.44 78.1741C528.247 76.4688 528.598 73.8811 528.598 70.548H526.598C526.598 73.8229 526.24 76.0339 525.632 77.3179L527.44 78.1741ZM528.598 70.548V3.16999H526.598V70.548H528.598ZM527.598 2.16999H525.002V4.16999H527.598V2.16999ZM525.002 2.16999C521.078 2.16999 517.662 3.02963 514.8 4.7972L515.851 6.49879C518.339 4.96236 521.374 4.16999 525.002 4.16999V2.16999ZM514.789 4.80433C511.988 6.58676 509.64 9.5106 507.702 13.4681L509.498 14.3479C511.336 10.5961 513.472 8.01323 515.863 6.49166L514.789 4.80433ZM507.705 13.4608C505.762 17.3481 504.127 22.6361 502.782 29.2856L504.742 29.6824C506.071 23.1159 507.662 18.0199 509.494 14.3552L507.705 13.4608ZM503.762 28.484H501.048V30.484H503.762V28.484ZM502.043 29.5869C502.284 27.2572 502.402 24.2297 502.402 20.516H500.402C500.402 24.197 500.284 27.1481 500.053 29.3811L502.043 29.5869ZM502.402 20.516C502.402 14.586 502.125 7.87413 501.573 0.382514L499.579 0.529485C500.128 7.98453 500.402 14.646 500.402 20.516H502.402ZM500.543 1.45546C507.72 1.69205 519.888 1.80999 537.038 1.80999V-0.190005C519.889 -0.190005 507.749 -0.308059 500.609 -0.543458L500.543 1.45546ZM537.038 1.80999C554.187 1.80999 566.317 1.69205 573.415 1.45544L573.349 -0.543445C566.287 -0.308062 554.187 -0.190005 537.038 -0.190005V1.80999ZM644.339 74.088L643.427 74.5003L643.433 74.5117L644.339 74.088ZM651.773 81.64H652.773V80.6971L651.831 80.6417L651.773 81.64ZM651.773 84L651.71 84.9981L652.773 85.0645V84H651.773ZM617.671 84H616.671V85.0606L617.729 84.9983L617.671 84ZM617.671 81.64L617.61 80.6418L616.671 80.6988V81.64H617.671ZM623.453 80.46L623.9 81.3544L623.922 81.3435L623.943 81.3316L623.453 80.46ZM623.807 71.728L622.891 72.1297L622.898 72.1459L622.906 72.1618L623.807 71.728ZM617.907 58.276L618.822 57.8743L618.56 57.276H617.907V58.276ZM593.127 58.276V57.276H592.477L592.213 57.8699L593.127 58.276ZM591.711 61.462L590.797 61.0559L590.793 61.0636L590.79 61.0714L591.711 61.462ZM591.003 79.516L591.591 78.7073L591.591 78.7073L591.003 79.516ZM598.673 81.64H599.673V80.6854L598.719 80.6411L598.673 81.64ZM598.673 84L598.62 84.9986L599.673 85.054V84H598.673ZM575.545 84H574.545V85.1173L575.655 84.9939L575.545 84ZM575.545 81.64L575.341 80.661L574.545 80.8269V81.64H575.545ZM580.737 78.1L579.959 77.4717L579.956 77.4753L580.737 78.1ZM585.929 69.014L586.84 69.4251L586.845 69.4143L585.929 69.014ZM610.827 12.02L610.951 11.0277L610.209 10.9351L609.91 11.6197L610.827 12.02ZM616.255 12.02L617.166 11.6078L616.856 10.9239L616.113 11.03L616.255 12.02ZM616.845 55.916V56.916H618.375L617.76 55.5145L616.845 55.916ZM605.517 30.074L606.432 29.6725L605.517 27.5832L604.601 29.6725L605.517 30.074ZM594.189 55.916L593.273 55.5145L592.658 56.916H594.189V55.916ZM643.433 74.5117C644.599 77.0051 645.846 78.9651 647.195 80.3355C648.552 81.7133 650.059 82.5409 651.714 82.6383L651.831 80.6417C650.811 80.5817 649.743 80.0721 648.621 78.9325C647.492 77.7856 646.359 76.0483 645.244 73.6643L643.433 74.5117ZM650.773 81.64V84H652.773V81.64H650.773ZM651.835 83.0019C648.029 82.764 642.852 82.646 636.315 82.646V84.646C642.836 84.646 647.965 84.764 651.71 84.9981L651.835 83.0019ZM636.315 82.646C627.894 82.646 621.655 82.7639 617.612 83.0017L617.729 84.9983C621.71 84.7641 627.901 84.646 636.315 84.646V82.646ZM618.671 84V81.64H616.671V84H618.671ZM617.731 82.6382C620.367 82.4784 622.458 82.0755 623.9 81.3544L623.005 79.5656C621.93 80.1031 620.166 80.4869 617.61 80.6418L617.731 82.6382ZM623.943 81.3316C625.549 80.4279 626.341 78.9331 626.341 77.038H624.341C624.341 78.2896 623.873 79.0761 622.962 79.5884L623.943 81.3316ZM626.341 77.038C626.341 75.4037 625.757 73.4748 624.708 71.2942L622.906 72.1618C623.901 74.2292 624.341 75.8403 624.341 77.038H626.341ZM624.722 71.3263L618.822 57.8743L616.991 58.6777L622.891 72.1297L624.722 71.3263ZM617.907 57.276H593.127V59.276H617.907V57.276ZM592.213 57.8699L590.797 61.0559L592.624 61.8681L594.04 58.6821L592.213 57.8699ZM590.79 61.0714C588.575 66.2929 587.407 70.4971 587.407 73.616H589.407C589.407 70.9136 590.441 67.0151 592.631 61.8525L590.79 61.0714ZM587.407 73.616C587.407 76.5214 588.36 78.831 590.414 80.3247L591.591 78.7073C590.183 77.6837 589.407 76.0599 589.407 73.616H587.407ZM590.414 80.3247C592.371 81.7474 595.153 82.4774 598.626 82.6389L598.719 80.6411C595.427 80.488 593.096 79.802 591.591 78.7073L590.414 80.3247ZM597.673 81.64V84H599.673V81.64H597.673ZM598.725 83.0014C594.223 82.7644 589.683 82.646 585.103 82.646V84.646C589.648 84.646 594.154 84.7636 598.62 84.9986L598.725 83.0014ZM585.103 82.646C580.846 82.646 577.615 82.7638 575.434 83.0061L575.655 84.9939C577.722 84.7642 580.863 84.646 585.103 84.646V82.646ZM576.545 84V81.64H574.545V84H576.545ZM575.749 82.619C577.926 82.1654 579.844 80.8167 581.517 78.7247L579.956 77.4753C578.483 79.3166 576.939 80.328 575.341 80.661L575.749 82.619ZM581.515 78.7283C583.244 76.587 585.016 73.4702 586.84 69.4251L585.017 68.6029C583.223 72.5818 581.533 75.5223 579.959 77.4717L581.515 78.7283ZM586.845 69.4143L611.743 12.4203L609.91 11.6197L585.012 68.6137L586.845 69.4143ZM610.703 13.0123C611.394 13.0987 612.348 13.138 613.541 13.138V11.138C612.373 11.138 611.518 11.0986 610.951 11.0277L610.703 13.0123ZM613.541 13.138C614.803 13.138 615.769 13.0995 616.396 13.0099L616.113 11.03C615.639 11.0978 614.796 11.138 613.541 11.138V13.138ZM615.344 12.4322L643.428 74.5002L645.25 73.6758L617.166 11.6078L615.344 12.4322ZM617.76 55.5145L606.432 29.6725L604.601 30.4755L615.929 56.3175L617.76 55.5145ZM604.601 29.6725L593.273 55.5145L595.104 56.3175L606.432 30.4755L604.601 29.6725ZM594.189 56.916H616.845V54.916H594.189V56.916ZM735.901 14.616L736.051 15.6047L736.901 15.4759V14.616H735.901ZM730.119 16.386L729.589 15.538L729.577 15.5458L729.564 15.5539L730.119 16.386ZM727.641 20.162L726.676 19.8989L726.671 19.9195L726.666 19.9404L727.641 20.162ZM727.051 84.236L727.014 85.2353L728.051 85.2737V84.236H727.051ZM723.865 84.118L723.902 83.1187L723.864 83.1173L723.827 83.1187L723.865 84.118ZM720.797 84.236L720.018 84.863L720.333 85.2546L720.835 85.2353L720.797 84.236ZM673.597 25.59L674.376 24.963L672.597 22.7526V25.59H673.597ZM674.541 76.094L673.596 76.4226L673.601 76.4357L674.541 76.094ZM677.963 79.87L677.533 80.7729L677.533 80.7729L677.963 79.87ZM685.751 81.64H686.751V80.745L685.861 80.6461L685.751 81.64ZM685.751 84L685.684 84.9978L686.751 85.0689V84H685.751ZM662.033 84H661.033V85.0981L662.126 84.9956L662.033 84ZM662.033 81.64L661.883 80.6513L661.033 80.7801V81.64H662.033ZM667.697 79.87L667.167 79.022L667.155 79.0298L667.142 79.0379L667.697 79.87ZM670.175 76.094L669.21 75.8309L669.205 75.8515L669.2 75.8724L670.175 76.094ZM670.175 18.274L669.216 18.5562L669.223 18.5817L669.232 18.6068L670.175 18.274ZM667.697 15.56L667.326 16.4885L667.336 16.4925L667.346 16.4963L667.697 15.56ZM662.033 14.616H661.033V15.5572L661.973 15.6142L662.033 14.616ZM662.033 12.256L662.126 11.2604L661.033 11.1579V12.256H662.033ZM686.695 12.256L687.474 11.6287L687.151 11.2275L686.636 11.2577L686.695 12.256ZM724.337 58.984L723.558 59.6113L725.337 61.8194V58.984H724.337ZM723.393 20.28L722.448 20.6085L722.453 20.6217L723.393 20.28ZM719.853 16.386L719.423 17.2889L719.431 17.2927L719.439 17.2964L719.853 16.386ZM712.183 14.616H711.183V15.5088L712.07 15.6096L712.183 14.616ZM712.183 12.256L712.251 11.2583L711.183 11.1855V12.256H712.183ZM735.901 12.256H736.901V11.1545L735.805 11.2606L735.901 12.256ZM735.751 13.6273C733.108 14.0277 731.021 14.6433 729.589 15.538L730.649 17.234C731.735 16.5554 733.502 15.9909 736.051 15.6047L735.751 13.6273ZM729.564 15.5539C728.135 16.5071 727.194 17.9989 726.676 19.8989L728.606 20.4251C729.032 18.8638 729.743 17.8383 730.674 17.218L729.564 15.5539ZM726.666 19.9404C726.247 21.7844 726.051 24.5117 726.051 28.068H728.051C728.051 24.5443 728.249 22.0009 728.616 20.3836L726.666 19.9404ZM726.051 28.068V84.236H728.051V28.068H726.051ZM727.088 83.2367L723.902 83.1187L723.828 85.1173L727.014 85.2353L727.088 83.2367ZM723.827 83.1187L720.759 83.2367L720.835 85.2353L723.903 85.1173L723.827 83.1187ZM721.576 83.609L674.376 24.963L672.818 26.217L720.018 84.863L721.576 83.609ZM672.597 25.59V68.188H674.597V25.59H672.597ZM672.597 68.188C672.597 71.6862 672.912 74.4545 673.597 76.4225L675.486 75.7655C674.911 74.1148 674.597 71.6125 674.597 68.188H672.597ZM673.601 76.4357C674.32 78.4113 675.642 79.8725 677.533 80.7729L678.393 78.9671C676.98 78.2942 676.021 77.238 675.481 75.7523L673.601 76.4357ZM677.533 80.7729C679.341 81.6338 682.074 82.2376 685.641 82.6339L685.861 80.6461C682.348 80.2557 679.889 79.6795 678.393 78.9671L677.533 80.7729ZM684.751 81.64V84H686.751V81.64H684.751ZM685.818 83.0022C682.247 82.7642 677.739 82.646 672.299 82.646V84.646C677.715 84.646 682.175 84.7638 685.684 84.9978L685.818 83.0022ZM672.299 82.646C667.96 82.646 664.502 82.7641 661.94 83.0044L662.126 84.9956C664.598 84.7639 667.985 84.646 672.299 84.646V82.646ZM663.033 84V81.64H661.033V84H663.033ZM662.183 82.6287C664.821 82.229 666.886 81.6127 668.252 80.7021L667.142 79.0379C666.148 79.7007 664.437 80.2643 661.883 80.6513L662.183 82.6287ZM668.227 80.718C669.755 79.763 670.71 78.2515 671.15 76.3156L669.2 75.8724C668.853 77.3978 668.156 78.4036 667.167 79.022L668.227 80.718ZM671.14 76.3571C671.648 74.4932 671.883 71.7483 671.883 68.188H669.883C669.883 71.7077 669.646 74.2335 669.21 75.8309L671.14 76.3571ZM671.883 68.188V24.764H669.883V68.188H671.883ZM671.883 24.764C671.883 21.7584 671.65 19.4493 671.118 17.9412L669.232 18.6068C669.644 19.7733 669.883 21.7909 669.883 24.764H671.883ZM671.134 17.9918C670.656 16.3661 669.614 15.2107 668.048 14.6237L667.346 16.4963C668.298 16.8533 668.907 17.5073 669.216 18.5562L671.134 17.9918ZM668.068 14.6315C666.732 14.0968 664.709 13.7763 662.094 13.6178L661.973 15.6142C664.549 15.7703 666.302 16.0792 667.326 16.4885L668.068 14.6315ZM663.033 14.616V12.256H661.033V14.616H663.033ZM661.94 13.2516C664.502 13.4919 667.96 13.61 672.299 13.61V11.61C667.985 11.61 664.598 11.4921 662.126 11.2604L661.94 13.2516ZM672.299 13.61C677.897 13.61 682.716 13.4918 686.754 13.2543L686.636 11.2577C682.65 11.4922 677.872 11.61 672.299 11.61V13.61ZM685.916 12.8833L723.558 59.6113L725.116 58.3567L687.474 11.6287L685.916 12.8833ZM725.337 58.984V28.068H723.337V58.984H725.337ZM725.337 28.068C725.337 24.574 725.023 21.8364 724.333 19.9383L722.453 20.6217C723.022 22.1849 723.337 24.6394 723.337 28.068H725.337ZM724.338 19.9515C723.619 17.886 722.249 16.3765 720.267 15.4756L719.439 17.2964C720.919 17.9689 721.908 19.0553 722.449 20.6085L724.338 19.9515ZM720.283 15.4831C718.477 14.6234 715.787 14.0191 712.296 13.6224L712.07 15.6096C715.502 15.9996 717.925 16.5753 719.423 17.2889L720.283 15.4831ZM713.183 14.616V12.256H711.183V14.616H713.183ZM712.115 13.2537C715.608 13.4918 720.117 13.61 725.635 13.61V11.61C720.14 11.61 715.681 11.4921 712.251 11.2583L712.115 13.2537ZM725.635 13.61C730.052 13.61 733.511 13.492 735.997 13.2513L735.805 11.2606C733.414 11.492 730.029 11.61 725.635 11.61V13.61ZM734.901 12.256V14.616H736.901V12.256H734.901ZM822.106 74.442L821.293 75.0253L821.301 75.0363L821.309 75.0471L822.106 74.442ZM830.13 81.64H831.13V81.0086L830.56 80.7371L830.13 81.64ZM830.13 84L830.086 84.9991L831.13 85.0444V84H830.13ZM796.028 84H795.028V85.0472L796.074 84.9989L796.028 84ZM796.028 81.64L795.996 80.6405L795.028 80.6708V81.64H796.028ZM801.338 81.05L801.632 82.0058L801.664 81.9957L801.697 81.9833L801.338 81.05ZM801.574 76.33L802.413 75.7867L802.404 75.7724L802.394 75.7583L801.574 76.33ZM786.116 54.146L786.936 53.5743L786.932 53.568L786.116 54.146ZM782.104 49.898L781.496 50.6924L781.511 50.704L781.527 50.715L782.104 49.898ZM776.794 48.246L776.829 47.2466L775.794 47.2096V48.246H776.794ZM777.384 77.982L776.424 78.2642L776.432 78.2897L776.441 78.3148L777.384 77.982ZM779.862 80.696L780.233 79.7675L780.233 79.7675L779.862 80.696ZM785.644 81.64H786.644V80.6971L785.702 80.6417L785.644 81.64ZM785.644 84L785.585 84.9983L786.644 85.0606V84H785.644ZM749.89 84H748.89V85.0606L749.948 84.9983L749.89 84ZM749.89 81.64L749.831 80.6417L748.89 80.6971V81.64H749.89ZM755.672 80.696L756.043 81.6245L756.043 81.6245L755.672 80.696ZM758.032 77.982L757.089 77.6492L757.08 77.6743L757.072 77.6998L758.032 77.982ZM758.032 18.274L757.072 18.5562L757.08 18.5817L757.089 18.6068L758.032 18.274ZM755.554 15.56L755.182 16.4885L755.192 16.4925L755.202 16.4963L755.554 15.56ZM749.89 14.616H748.89V15.5572L749.829 15.6142L749.89 14.616ZM749.89 12.256L749.948 11.2577L748.89 11.1954V12.256H749.89ZM785.644 12.256H786.644V11.1954L785.585 11.2577L785.644 12.256ZM785.644 14.616L785.702 15.6143L786.644 15.5589V14.616H785.644ZM779.862 15.56L779.49 14.6315L779.49 14.6315L779.862 15.56ZM777.384 18.274L776.441 17.9412L776.432 17.9663L776.424 17.9918L777.384 18.274ZM776.794 45.886H775.794V46.9833L776.886 46.8817L776.794 45.886ZM786.116 43.29L785.668 42.3956L785.668 42.3956L786.116 43.29ZM795.202 36.564L795.891 37.2886L795.903 37.2771L795.914 37.2653L795.202 36.564ZM802.4 29.248L801.702 28.5318L801.694 28.5391L801.687 28.5467L802.4 29.248ZM798.152 14.498H797.152V15.4392L798.091 15.4962L798.152 14.498ZM798.152 12.256L798.193 11.2569L797.152 11.2135V12.256H798.152ZM826.826 12.256H827.826V11.1692L826.743 11.2594L826.826 12.256ZM826.826 14.498L827.048 15.4729L827.826 15.2952V14.498H826.826ZM818.92 17.802L819.43 18.6618L819.44 18.656L819.45 18.65L818.92 17.802ZM810.778 24.174L810.09 23.4475L810.083 23.4543L810.076 23.4611L810.778 24.174ZM796.264 38.452L795.562 37.7391L794.952 38.3397L795.451 39.0353L796.264 38.452ZM821.309 75.0471C822.82 77.0344 824.157 78.5801 825.319 79.6588L826.68 78.1932C825.639 77.2265 824.381 75.7829 822.902 73.8369L821.309 75.0471ZM825.319 79.6588C826.509 80.7636 827.975 81.7217 829.7 82.5429L830.56 80.7371C828.98 79.985 827.693 79.1337 826.68 78.1932L825.319 79.6588ZM829.13 81.64V84H831.13V81.64H829.13ZM830.173 83.0009C824.728 82.7642 818.695 82.646 812.076 82.646V84.646C818.672 84.646 824.675 84.7638 830.086 84.9991L830.173 83.0009ZM812.076 82.646C806.476 82.646 801.111 82.7643 795.981 83.0011L796.074 84.9989C801.17 84.7637 806.504 84.646 812.076 84.646V82.646ZM797.028 84V81.64H795.028V84H797.028ZM796.059 82.6395C798.578 82.5608 800.468 82.3638 801.632 82.0058L801.043 80.0942C800.162 80.3655 798.512 80.5619 795.996 80.6405L796.059 82.6395ZM801.697 81.9833C802.861 81.5353 803.872 80.7307 803.872 79.398H801.872C801.872 79.4813 801.859 79.778 800.979 80.1167L801.697 81.9833ZM803.872 79.398C803.872 78.8559 803.71 78.2826 803.468 77.7104C803.222 77.1281 802.865 76.4851 802.413 75.7867L800.734 76.8732C801.147 77.5122 801.44 78.0493 801.626 78.4896C801.817 78.9401 801.872 79.2321 801.872 79.398H803.872ZM802.394 75.7583L786.936 53.5743L785.295 54.7177L800.753 76.9017L802.394 75.7583ZM786.932 53.568C785.554 51.6225 784.14 50.1115 782.68 49.081L781.527 50.715C782.742 51.5725 784.003 52.8935 785.3 54.724L786.932 53.568ZM782.711 49.1036C781.165 47.9212 779.176 47.3304 776.829 47.2466L776.758 49.2454C778.817 49.3189 780.368 49.8295 781.496 50.6924L782.711 49.1036ZM775.794 48.246V71.492H777.794V48.246H775.794ZM775.794 71.492C775.794 74.4935 775.988 76.7799 776.424 78.2642L778.343 77.6998C777.993 76.5095 777.794 74.4692 777.794 71.492H775.794ZM776.441 78.3148C776.996 79.8886 778.01 81.0324 779.49 81.6245L780.233 79.7675C779.353 79.4156 778.715 78.7501 778.327 77.6492L776.441 78.3148ZM779.49 81.6245C780.83 82.1602 782.895 82.48 785.585 82.6383L785.702 80.6417C783.043 80.4853 781.254 80.1758 780.233 79.7675L779.49 81.6245ZM784.644 81.64V84H786.644V81.64H784.644ZM785.702 83.0017C781.66 82.764 775.816 82.646 768.18 82.646V84.646C775.805 84.646 781.603 84.764 785.585 84.9983L785.702 83.0017ZM768.18 82.646C759.994 82.646 753.873 82.7639 749.831 83.0017L749.948 84.9983C753.93 84.7641 760.002 84.646 768.18 84.646V82.646ZM750.89 84V81.64H748.89V84H750.89ZM749.948 82.6383C752.638 82.48 754.704 82.1602 756.043 81.6245L755.3 79.7675C754.28 80.1758 752.49 80.4853 749.831 80.6417L749.948 82.6383ZM756.043 81.6245C757.538 81.0265 758.521 79.8631 758.991 78.2642L757.072 77.6998C756.756 78.7756 756.165 79.4215 755.3 79.7675L756.043 81.6245ZM758.975 78.3148C759.507 76.8067 759.74 74.4976 759.74 71.492H757.74C757.74 74.4651 757.5 76.4827 757.089 77.6492L758.975 78.3148ZM759.74 71.492V24.764H757.74V71.492H759.74ZM759.74 24.764C759.74 21.7584 759.507 19.4493 758.975 17.9412L757.089 18.6068C757.5 19.7733 757.74 21.7909 757.74 24.764H759.74ZM758.991 17.9918C758.513 16.3661 757.47 15.2107 755.905 14.6237L755.202 16.4963C756.154 16.8533 756.764 17.5073 757.072 18.5562L758.991 17.9918ZM755.925 14.6315C754.588 14.0968 752.565 13.7763 749.95 13.6178L749.829 15.6142C752.406 15.7703 754.159 16.0792 755.182 16.4885L755.925 14.6315ZM750.89 14.616V12.256H748.89V14.616H750.89ZM749.831 13.2543C753.873 13.4921 759.994 13.61 768.18 13.61V11.61C760.002 11.61 753.93 11.4919 749.948 11.2577L749.831 13.2543ZM768.18 13.61C775.816 13.61 781.66 13.492 785.702 13.2543L785.585 11.2577C781.603 11.492 775.805 11.61 768.18 11.61V13.61ZM784.644 12.256V14.616H786.644V12.256H784.644ZM785.585 13.6177C782.895 13.776 780.83 14.0958 779.49 14.6315L780.233 16.4885C781.254 16.0802 783.043 15.7707 785.702 15.6143L785.585 13.6177ZM779.49 14.6315C778.01 15.2236 776.996 16.3674 776.441 17.9412L778.327 18.6068C778.715 17.5059 779.353 16.8404 780.233 16.4885L779.49 14.6315ZM776.424 17.9918C775.988 19.4761 775.794 21.7625 775.794 24.764H777.794C777.794 21.7868 777.993 19.7465 778.343 18.5562L776.424 17.9918ZM775.794 24.764V45.886H777.794V24.764H775.794ZM776.886 46.8817C780.383 46.5564 783.612 45.6598 786.563 44.1844L785.668 42.3956C782.955 43.7522 779.969 44.5863 776.701 44.8903L776.886 46.8817ZM786.563 44.1844C789.511 42.7102 792.62 40.3995 795.891 37.2886L794.512 35.8394C791.332 38.8645 788.384 41.0378 785.668 42.3956L786.563 44.1844ZM795.914 37.2653L803.112 29.9493L801.687 28.5467L794.489 35.8627L795.914 37.2653ZM803.097 29.9642C806.223 26.9187 808.002 23.958 808.002 21.106H806.002C806.002 23.1313 804.712 25.5986 801.702 28.5318L803.097 29.9642ZM808.002 21.106C808.002 18.8676 806.996 17.0414 805.105 15.6903L803.942 17.3177C805.355 18.3266 806.002 19.5684 806.002 21.106H808.002ZM805.105 15.6903C803.262 14.3743 800.943 13.6654 798.212 13.4998L798.091 15.4962C800.552 15.6453 802.481 16.2737 803.942 17.3177L805.105 15.6903ZM799.152 14.498V12.256H797.152V14.498H799.152ZM798.11 13.2551C803.79 13.4918 809.861 13.61 816.324 13.61V11.61C809.885 11.61 803.842 11.4922 798.193 11.2569L798.11 13.2551ZM816.324 13.61C820.509 13.61 824.04 13.4916 826.909 13.2525L826.743 11.2594C823.948 11.4924 820.477 11.61 816.324 11.61V13.61ZM825.826 12.256V14.498H827.826V12.256H825.826ZM826.603 13.5231C823.735 14.1786 820.997 15.3246 818.39 16.954L819.45 18.65C821.877 17.1327 824.409 16.0761 827.048 15.4729L826.603 13.5231ZM818.409 16.9421C815.81 18.4855 813.037 20.6605 810.09 23.4475L811.465 24.9005C814.34 22.1808 816.995 20.1078 819.43 18.6618L818.409 16.9421ZM810.076 23.4611L795.562 37.7391L796.965 39.1649L811.479 24.8869L810.076 23.4611ZM795.451 39.0353L821.293 75.0253L822.918 73.8587L797.076 37.8687L795.451 39.0353ZM860.209 69.958L859.535 70.6965L859.544 70.7047L859.553 70.7126L860.209 69.958ZM860.209 83.292L860.866 84.0466L860.875 84.0387L860.884 84.0305L860.209 83.292ZM845.577 83.292L844.903 84.0305L844.912 84.0387L844.921 84.0466L845.577 83.292ZM845.577 69.958L846.234 70.7126L846.243 70.7047L846.252 70.6965L845.577 69.958ZM852.893 68.48C855.777 68.48 857.953 69.2522 859.535 70.6965L860.884 69.2195C858.847 67.3598 856.145 66.48 852.893 66.48V68.48ZM859.553 70.7126C861.104 72.0612 861.923 73.9657 861.923 76.566H863.923C863.923 73.5023 862.933 71.0015 860.866 69.2034L859.553 70.7126ZM861.923 76.566C861.923 79.1651 861.104 81.1212 859.535 82.5535L860.884 84.0305C862.934 82.1588 863.923 79.6309 863.923 76.566H861.923ZM859.553 82.5374C857.972 83.9123 855.789 84.652 852.893 84.652V86.652C856.133 86.652 858.828 85.8184 860.866 84.0466L859.553 82.5374ZM852.893 84.652C849.997 84.652 847.815 83.9123 846.234 82.5374L844.921 84.0466C846.959 85.8184 849.653 86.652 852.893 86.652V84.652ZM846.252 82.5535C844.683 81.1212 843.863 79.1651 843.863 76.566H841.863C841.863 79.6309 842.853 82.1588 844.903 84.0305L846.252 82.5535ZM843.863 76.566C843.863 73.9657 844.683 72.0612 846.234 70.7126L844.921 69.2034C842.853 71.0015 841.863 73.5023 841.863 76.566H843.863ZM846.252 70.6965C847.834 69.2522 850.009 68.48 852.893 68.48V66.48C849.641 66.48 846.94 67.3598 844.903 69.2195L846.252 70.6965Z" fill="black"/>
</svg>
